<svg xmlns="http://www.w3.org/2000/svg" width="2469.5" height="380"><text style="font: 15px sans-serif;" x="40" y="175">STU1</text><rect stroke="#006FB0" stroke-width="1" x="100" y="160" width="2269.5" height="20" fill="#B9E3FF"/><line stroke="#000000" stroke-width="1.5" x1="458.5" y1="150" x2="458.5" y2="160"/><text style="font: 8px sans-serif;" x="453.5" y="145">S239</text><line stroke="#000000" stroke-width="1.5" x1="506.5" y1="150" x2="506.5" y2="160"/><text style="font: 8px sans-serif;" x="501.5" y="145">S271</text><line stroke="#000000" stroke-width="1.5" x1="839.5" y1="150" x2="839.5" y2="160"/><text style="font: 8px sans-serif;" x="834.5" y="145">S493</text><line stroke="#000000" stroke-width="1.5" x1="928.0" y1="150" x2="928.0" y2="160"/><text style="font: 8px sans-serif;" x="923.0" y="145">S552</text><line stroke="#000000" stroke-width="1.5" x1="961.0" y1="150" x2="961.0" y2="160"/><text style="font: 8px sans-serif;" x="956.0" y="145">S574</text><line stroke="#000000" stroke-width="1.5" x1="1003.0" y1="150" x2="1003.0" y2="160"/><text style="font: 8px sans-serif;" x="998.0" y="145">S602</text><line stroke="#000000" stroke-width="1.5" x1="1079.5" y1="150" x2="1079.5" y2="160"/><text style="font: 8px sans-serif;" x="1074.5" y="145">S653</text><line stroke="#000000" stroke-width="1.5" x1="1135.0" y1="150" x2="1135.0" y2="160"/><text style="font: 8px sans-serif;" x="1130.0" y="145">S690</text><line stroke="#000000" stroke-width="1.5" x1="1141.0" y1="150" x2="1141.0" y2="160"/><text style="font: 8px sans-serif;" x="1136.0" y="145">S694</text><line stroke="#000000" stroke-width="1.5" x1="1184.5" y1="150" x2="1184.5" y2="160"/><text style="font: 8px sans-serif;" x="1179.5" y="145">S723</text><line stroke="#000000" stroke-width="1.5" x1="1190.5" y1="150" x2="1190.5" y2="160"/><text style="font: 8px sans-serif;" x="1185.5" y="145">S727</text><line stroke="#000000" stroke-width="1.5" x1="1214.5" y1="150" x2="1214.5" y2="160"/><text style="font: 8px sans-serif;" x="1209.5" y="145">S743</text><line stroke="#000000" stroke-width="1.5" x1="1217.5" y1="150" x2="1217.5" y2="160"/><text style="font: 8px sans-serif;" x="1212.5" y="145">S745</text><line stroke="#000000" stroke-width="1.5" x1="1222.0" y1="150" x2="1222.0" y2="160"/><text style="font: 8px sans-serif;" x="1217.0" y="145">S748</text><line stroke="#000000" stroke-width="1.5" x1="1595.5" y1="150" x2="1595.5" y2="160"/><text style="font: 8px sans-serif;" x="1590.5" y="145">S997</text><line stroke="#000000" stroke-width="1.5" x1="1601.5" y1="150" x2="1601.5" y2="160"/><text style="font: 8px sans-serif;" x="1596.5" y="145">S1001</text><line stroke="#000000" stroke-width="1.5" x1="1607.5" y1="150" x2="1607.5" y2="160"/><text style="font: 8px sans-serif;" x="1602.5" y="145">T1005</text><line stroke="#000000" stroke-width="1.5" x1="1627.0" y1="150" x2="1627.0" y2="160"/><text style="font: 8px sans-serif;" x="1622.0" y="145">S1018</text><line stroke="#000000" stroke-width="1.5" x1="1651.0" y1="150" x2="1651.0" y2="160"/><text style="font: 8px sans-serif;" x="1646.0" y="145">T1034</text><line stroke="#000000" stroke-width="1.5" x1="1670.5" y1="150" x2="1670.5" y2="160"/><text style="font: 8px sans-serif;" x="1665.5" y="145">T1047</text><line stroke="#000000" stroke-width="1.5" x1="1690.0" y1="150" x2="1690.0" y2="160"/><text style="font: 8px sans-serif;" x="1685.0" y="145">S1060</text><line stroke="#000000" stroke-width="1.5" x1="1694.5" y1="150" x2="1694.5" y2="160"/><text style="font: 8px sans-serif;" x="1689.5" y="145">S1063</text><line stroke="#000000" stroke-width="1.5" x1="1715.5" y1="150" x2="1715.5" y2="160"/><text style="font: 8px sans-serif;" x="1710.5" y="145">S1077</text><line stroke="#000000" stroke-width="1.5" x1="1720.0" y1="150" x2="1720.0" y2="160"/><text style="font: 8px sans-serif;" x="1715.0" y="145">T1080</text><line stroke="#000000" stroke-width="1.5" x1="1769.5" y1="150" x2="1769.5" y2="160"/><text style="font: 8px sans-serif;" x="1764.5" y="145">S1113</text><line stroke="#000000" stroke-width="1.5" x1="1801.0" y1="150" x2="1801.0" y2="160"/><text style="font: 8px sans-serif;" x="1796.0" y="145">T1134</text><line stroke="#000000" stroke-width="1.5" x1="1808.5" y1="150" x2="1808.5" y2="160"/><text style="font: 8px sans-serif;" x="1803.5" y="145">T1139</text><line stroke="#000000" stroke-width="1.5" x1="1850.5" y1="150" x2="1850.5" y2="160"/><text style="font: 8px sans-serif;" x="1845.5" y="145">S1167</text><text style="font: 15px sans-serif;" x="40" y="235">SLK19</text><rect stroke="#006FB0" stroke-width="1" x="100" y="220" width="1231.5" height="20" fill="#B9E3FF"/><line stroke="#000000" stroke-width="1.5" x1="110.5" y1="210" x2="110.5" y2="220"/><text style="font: 8px sans-serif;" x="105.5" y="205">T7</text><line stroke="#000000" stroke-width="1.5" x1="140.5" y1="210" x2="140.5" y2="220"/><text style="font: 8px sans-serif;" x="135.5" y="205">S27</text><line stroke="#000000" stroke-width="1.5" x1="167.5" y1="210" x2="167.5" y2="220"/><text style="font: 8px sans-serif;" x="162.5" y="205">S45</text><line stroke="#000000" stroke-width="1.5" x1="208.0" y1="210" x2="208.0" y2="220"/><text style="font: 8px sans-serif;" x="203.0" y="205">S72</text><line stroke="#000000" stroke-width="1.5" x1="256.0" y1="210" x2="256.0" y2="220"/><text style="font: 8px sans-serif;" x="251.0" y="205">S104</text><line stroke="#000000" stroke-width="1.5" x1="292.0" y1="210" x2="292.0" y2="220"/><text style="font: 8px sans-serif;" x="287.0" y="205">S128</text><line stroke="#000000" stroke-width="1.5" x1="304.0" y1="210" x2="304.0" y2="220"/><text style="font: 8px sans-serif;" x="299.0" y="205">S136</text><line stroke="#000000" stroke-width="1.5" x1="332.5" y1="210" x2="332.5" y2="220"/><text style="font: 8px sans-serif;" x="327.5" y="205">S155</text><line stroke="#000000" stroke-width="1.5" x1="350.5" y1="210" x2="350.5" y2="220"/><text style="font: 8px sans-serif;" x="345.5" y="205">S167</text><line stroke="#000000" stroke-width="1.5" x1="382.0" y1="210" x2="382.0" y2="220"/><text style="font: 8px sans-serif;" x="377.0" y="205">S188</text><line stroke="#000000" stroke-width="1.5" x1="383.5" y1="210" x2="383.5" y2="220"/><text style="font: 8px sans-serif;" x="378.5" y="205">S189</text><line stroke="#000000" stroke-width="1.5" x1="401.5" y1="210" x2="401.5" y2="220"/><text style="font: 8px sans-serif;" x="396.5" y="205">S201</text><line stroke="#000000" stroke-width="1.5" x1="424.0" y1="210" x2="424.0" y2="220"/><text style="font: 8px sans-serif;" x="419.0" y="205">S216</text><line stroke="#000000" stroke-width="1.5" x1="434.5" y1="210" x2="434.5" y2="220"/><text style="font: 8px sans-serif;" x="429.5" y="205">T223</text><line stroke="#000000" stroke-width="1.5" x1="466.0" y1="210" x2="466.0" y2="220"/><text style="font: 8px sans-serif;" x="461.0" y="205">S244</text><line stroke="#000000" stroke-width="1.5" x1="497.5" y1="210" x2="497.5" y2="220"/><text style="font: 8px sans-serif;" x="492.5" y="205">T265</text><line stroke="#000000" stroke-width="1.5" x1="500.5" y1="210" x2="500.5" y2="220"/><text style="font: 8px sans-serif;" x="495.5" y="205">S267</text><line stroke="#000000" stroke-width="1.5" x1="509.5" y1="210" x2="509.5" y2="220"/><text style="font: 8px sans-serif;" x="504.5" y="205">T273</text><line stroke="#000000" stroke-width="1.5" x1="518.5" y1="210" x2="518.5" y2="220"/><text style="font: 8px sans-serif;" x="513.5" y="205">S279</text><line stroke="#000000" stroke-width="1.5" x1="524.5" y1="210" x2="524.5" y2="220"/><text style="font: 8px sans-serif;" x="519.5" y="205">S283</text><line stroke="#000000" stroke-width="1.5" x1="527.5" y1="210" x2="527.5" y2="220"/><text style="font: 8px sans-serif;" x="522.5" y="205">S285</text><line stroke="#000000" stroke-width="1.5" x1="1160.5" y1="210" x2="1160.5" y2="220"/><text style="font: 8px sans-serif;" x="1155.5" y="205">S707</text><text style="font: 15px sans-serif;" x="40" y="295">BUB1</text><rect stroke="#006FB0" stroke-width="1" x="100" y="280" width="1531.5" height="20" fill="#B9E3FF"/><line stroke="#000000" stroke-width="1.5" x1="863.5" y1="270" x2="863.5" y2="280"/><text style="font: 8px sans-serif;" x="858.5" y="265">T509</text></svg>