<svg xmlns="http://www.w3.org/2000/svg" width="2469.5" height="380"><text style="font: 15px sans-serif;" x="40" y="175">STU1</text><rect stroke="#006FB0" stroke-width="1" x="100" y="160" width="2269.5" height="20" fill="#B9E3FF"/><line stroke="#000000" stroke-width="1.5" x1="928.0" y1="150" x2="928.0" y2="160"/><text style="font: 8px sans-serif;" x="923.0" y="145">S552</text><line stroke="#000000" stroke-width="1.5" x1="1003.0" y1="150" x2="1003.0" y2="160"/><text style="font: 8px sans-serif;" x="998.0" y="145">S602</text><line stroke="#000000" stroke-width="1.5" x1="1135.0" y1="150" x2="1135.0" y2="160"/><text style="font: 8px sans-serif;" x="1130.0" y="145">S690</text><line stroke="#000000" stroke-width="1.5" x1="1216.0" y1="150" x2="1216.0" y2="160"/><text style="font: 8px sans-serif;" x="1211.0" y="145">S744</text><line stroke="#000000" stroke-width="1.5" x1="1217.5" y1="150" x2="1217.5" y2="160"/><text style="font: 8px sans-serif;" x="1212.5" y="145">S745</text><line stroke="#000000" stroke-width="1.5" x1="1222.0" y1="150" x2="1222.0" y2="160"/><text style="font: 8px sans-serif;" x="1217.0" y="145">S748</text><line stroke="#000000" stroke-width="1.5" x1="1240.0" y1="150" x2="1240.0" y2="160"/><text style="font: 8px sans-serif;" x="1235.0" y="145">T760</text><line stroke="#000000" stroke-width="1.5" x1="1595.5" y1="150" x2="1595.5" y2="160"/><text style="font: 8px sans-serif;" x="1590.5" y="145">S997</text><line stroke="#000000" stroke-width="1.5" x1="1601.5" y1="150" x2="1601.5" y2="160"/><text style="font: 8px sans-serif;" x="1596.5" y="145">S1001</text><line stroke="#000000" stroke-width="1.5" x1="1607.5" y1="150" x2="1607.5" y2="160"/><text style="font: 8px sans-serif;" x="1602.5" y="145">T1005</text><line stroke="#000000" stroke-width="1.5" x1="1627.0" y1="150" x2="1627.0" y2="160"/><text style="font: 8px sans-serif;" x="1622.0" y="145">S1018</text><line stroke="#000000" stroke-width="1.5" x1="1651.0" y1="150" x2="1651.0" y2="160"/><text style="font: 8px sans-serif;" x="1646.0" y="145">T1034</text><line stroke="#000000" stroke-width="1.5" x1="1670.5" y1="150" x2="1670.5" y2="160"/><text style="font: 8px sans-serif;" x="1665.5" y="145">T1047</text><line stroke="#000000" stroke-width="1.5" x1="1690.0" y1="150" x2="1690.0" y2="160"/><text style="font: 8px sans-serif;" x="1685.0" y="145">S1060</text><line stroke="#000000" stroke-width="1.5" x1="1691.5" y1="150" x2="1691.5" y2="160"/><text style="font: 8px sans-serif;" x="1686.5" y="145">T1061</text><line stroke="#000000" stroke-width="1.5" x1="1694.5" y1="150" x2="1694.5" y2="160"/><text style="font: 8px sans-serif;" x="1689.5" y="145">S1063</text><line stroke="#000000" stroke-width="1.5" x1="1715.5" y1="150" x2="1715.5" y2="160"/><text style="font: 8px sans-serif;" x="1710.5" y="145">S1077</text><line stroke="#000000" stroke-width="1.5" x1="1720.0" y1="150" x2="1720.0" y2="160"/><text style="font: 8px sans-serif;" x="1715.0" y="145">T1080</text><line stroke="#000000" stroke-width="1.5" x1="1769.5" y1="150" x2="1769.5" y2="160"/><text style="font: 8px sans-serif;" x="1764.5" y="145">S1113</text><line stroke="#000000" stroke-width="1.5" x1="1801.0" y1="150" x2="1801.0" y2="160"/><text style="font: 8px sans-serif;" x="1796.0" y="145">T1134</text><line stroke="#000000" stroke-width="1.5" x1="1808.5" y1="150" x2="1808.5" y2="160"/><text style="font: 8px sans-serif;" x="1803.5" y="145">T1139</text><line stroke="#000000" stroke-width="1.5" x1="1891.0" y1="150" x2="1891.0" y2="160"/><text style="font: 8px sans-serif;" x="1886.0" y="145">T1194</text><line stroke="#000000" stroke-width="1.5" x1="1900.0" y1="150" x2="1900.0" y2="160"/><text style="font: 8px sans-serif;" x="1895.0" y="145">S1200</text><text style="font: 15px sans-serif;" x="40" y="235">SLK19</text><rect stroke="#006FB0" stroke-width="1" x="100" y="220" width="1231.5" height="20" fill="#B9E3FF"/><line stroke="#000000" stroke-width="1.5" x1="109.0" y1="210" x2="109.0" y2="220"/><text style="font: 8px sans-serif;" x="104.0" y="205">T6</text><line stroke="#000000" stroke-width="1.5" x1="110.5" y1="210" x2="110.5" y2="220"/><text style="font: 8px sans-serif;" x="105.5" y="205">T7</text><line stroke="#000000" stroke-width="1.5" x1="140.5" y1="210" x2="140.5" y2="220"/><text style="font: 8px sans-serif;" x="135.5" y="205">S27</text><line stroke="#000000" stroke-width="1.5" x1="172.0" y1="210" x2="172.0" y2="220"/><text style="font: 8px sans-serif;" x="167.0" y="205">S48</text><line stroke="#000000" stroke-width="1.5" x1="208.0" y1="210" x2="208.0" y2="220"/><text style="font: 8px sans-serif;" x="203.0" y="205">S72</text><line stroke="#000000" stroke-width="1.5" x1="256.0" y1="210" x2="256.0" y2="220"/><text style="font: 8px sans-serif;" x="251.0" y="205">S104</text><line stroke="#000000" stroke-width="1.5" x1="292.0" y1="210" x2="292.0" y2="220"/><text style="font: 8px sans-serif;" x="287.0" y="205">S128</text><line stroke="#000000" stroke-width="1.5" x1="332.5" y1="210" x2="332.5" y2="220"/><text style="font: 8px sans-serif;" x="327.5" y="205">S155</text><line stroke="#000000" stroke-width="1.5" x1="350.5" y1="210" x2="350.5" y2="220"/><text style="font: 8px sans-serif;" x="345.5" y="205">S167</text><line stroke="#000000" stroke-width="1.5" x1="382.0" y1="210" x2="382.0" y2="220"/><text style="font: 8px sans-serif;" x="377.0" y="205">S188</text><line stroke="#000000" stroke-width="1.5" x1="383.5" y1="210" x2="383.5" y2="220"/><text style="font: 8px sans-serif;" x="378.5" y="205">S189</text><line stroke="#000000" stroke-width="1.5" x1="424.0" y1="210" x2="424.0" y2="220"/><text style="font: 8px sans-serif;" x="419.0" y="205">S216</text><line stroke="#000000" stroke-width="1.5" x1="431.5" y1="210" x2="431.5" y2="220"/><text style="font: 8px sans-serif;" x="426.5" y="205">T221</text><line stroke="#000000" stroke-width="1.5" x1="466.0" y1="210" x2="466.0" y2="220"/><text style="font: 8px sans-serif;" x="461.0" y="205">S244</text><line stroke="#000000" stroke-width="1.5" x1="497.5" y1="210" x2="497.5" y2="220"/><text style="font: 8px sans-serif;" x="492.5" y="205">T265</text><line stroke="#000000" stroke-width="1.5" x1="500.5" y1="210" x2="500.5" y2="220"/><text style="font: 8px sans-serif;" x="495.5" y="205">S267</text><line stroke="#000000" stroke-width="1.5" x1="509.5" y1="210" x2="509.5" y2="220"/><text style="font: 8px sans-serif;" x="504.5" y="205">T273</text><line stroke="#000000" stroke-width="1.5" x1="518.5" y1="210" x2="518.5" y2="220"/><text style="font: 8px sans-serif;" x="513.5" y="205">S279</text><line stroke="#000000" stroke-width="1.5" x1="527.5" y1="210" x2="527.5" y2="220"/><text style="font: 8px sans-serif;" x="522.5" y="205">S285</text><line stroke="#000000" stroke-width="1.5" x1="1000.0" y1="210" x2="1000.0" y2="220"/><text style="font: 8px sans-serif;" x="995.0" y="205">T600</text><line stroke="#000000" stroke-width="1.5" x1="1160.5" y1="210" x2="1160.5" y2="220"/><text style="font: 8px sans-serif;" x="1155.5" y="205">S707</text><text style="font: 15px sans-serif;" x="40" y="295">BUB1</text><rect stroke="#006FB0" stroke-width="1" x="100" y="280" width="1531.5" height="20" fill="#B9E3FF"/><line stroke="#000000" stroke-width="1.5" x1="863.5" y1="270" x2="863.5" y2="280"/><text style="font: 8px sans-serif;" x="858.5" y="265">T509</text></svg>