<svg xmlns="http://www.w3.org/2000/svg" width="2200" height="800"><text style="font: 15px sans-serif;" x="40" y="175">NDC80</text><rect stroke="#006FB0" stroke-width="1" x="100" y="160" width="1036.5" height="20" fill="#B9E3FF"/><line stroke="#000000" stroke-width="1.5" x1="155.5" y1="150" x2="155.5" y2="160"/><text style="font: 8px sans-serif;" x="150.5" y="145">S37</text><line stroke="#000000" stroke-width="1.5" x1="181.0" y1="150" x2="181.0" y2="160"/><text style="font: 8px sans-serif;" x="176.0" y="145">T54</text><line stroke="#000000" stroke-width="1.5" x1="245.5" y1="150" x2="245.5" y2="160"/><text style="font: 8px sans-serif;" x="240.5" y="145">S97</text><line stroke="#000000" stroke-width="1.5" x1="472.0" y1="150" x2="472.0" y2="160"/><text style="font: 8px sans-serif;" x="467.0" y="145">T248</text><line stroke="#000000" stroke-width="1.5" x1="478.0" y1="150" x2="478.0" y2="160"/><text style="font: 8px sans-serif;" x="473.0" y="145">T252</text><text style="font: 15px sans-serif;" x="40" y="235">SPC105</text><rect stroke="#006FB0" stroke-width="1" x="100" y="220" width="1375.5" height="20" fill="#B9E3FF"/><line stroke="#000000" stroke-width="1.5" x1="215.5" y1="210" x2="215.5" y2="220"/><text style="font: 8px sans-serif;" x="210.5" y="205">S77</text><line stroke="#000000" stroke-width="1.5" x1="224.5" y1="210" x2="224.5" y2="220"/><text style="font: 8px sans-serif;" x="219.5" y="205">T83</text><line stroke="#000000" stroke-width="1.5" x1="266.5" y1="210" x2="266.5" y2="220"/><text style="font: 8px sans-serif;" x="261.5" y="205">T111</text><line stroke="#000000" stroke-width="1.5" x1="272.5" y1="210" x2="272.5" y2="220"/><text style="font: 8px sans-serif;" x="267.5" y="205">S115</text><line stroke="#000000" stroke-width="1.5" x1="634.0" y1="210" x2="634.0" y2="220"/><text style="font: 8px sans-serif;" x="629.0" y="205">T356</text><line stroke="#000000" stroke-width="1.5" x1="677.5" y1="210" x2="677.5" y2="220"/><text style="font: 8px sans-serif;" x="672.5" y="205">S385</text><text style="font: 15px sans-serif;" x="40" y="295">MPS1</text><rect stroke="#006FB0" stroke-width="1" x="100" y="280" width="1146.0" height="20" fill="#B9E3FF"/><line stroke="#000000" stroke-width="1.5" x1="604.0" y1="270" x2="604.0" y2="280"/><text style="font: 8px sans-serif;" x="599.0" y="265">S336</text><line stroke="#000000" stroke-width="1.5" x1="644.5" y1="270" x2="644.5" y2="280"/><text style="font: 8px sans-serif;" x="639.5" y="265">S363</text><line stroke="#000000" stroke-width="1.5" x1="692.5" y1="270" x2="692.5" y2="280"/><text style="font: 8px sans-serif;" x="687.5" y="265">S395</text><text style="font: 15px sans-serif;" x="40" y="355">DSN1</text><rect stroke="#006FB0" stroke-width="1" x="100" y="340" width="864.0" height="20" fill="#B9E3FF"/><line stroke="#000000" stroke-width="1.5" x1="203.5" y1="330" x2="203.5" y2="340"/><text style="font: 8px sans-serif;" x="198.5" y="325">S69</text><text style="font: 15px sans-serif;" x="40" y="415">SPC24</text><rect stroke="#006FB0" stroke-width="1" x="100" y="400" width="319.5" height="20" fill="#B9E3FF"/><line stroke="#000000" stroke-width="1.5" x1="295.0" y1="390" x2="295.0" y2="400"/><text style="font: 8px sans-serif;" x="290.0" y="385">T130</text><text style="font: 15px sans-serif;" x="40" y="475">MIF2</text><rect stroke="#006FB0" stroke-width="1" x="100" y="460" width="823.5" height="20" fill="#B9E3FF"/><line stroke="#000000" stroke-width="1.5" x1="181.0" y1="450" x2="181.0" y2="460"/><text style="font: 8px sans-serif;" x="176.0" y="445">S54</text><line stroke="#000000" stroke-width="1.5" x1="331.0" y1="450" x2="331.0" y2="460"/><text style="font: 8px sans-serif;" x="326.0" y="445">S154</text><text style="font: 15px sans-serif;" x="40" y="535">MCM21</text><rect stroke="#006FB0" stroke-width="1" x="100" y="520" width="552.0" height="20" fill="#B9E3FF"/><line stroke="#000000" stroke-width="1.5" x1="308.5" y1="510" x2="308.5" y2="520"/><text style="font: 8px sans-serif;" x="303.5" y="505">S139</text><text style="font: 15px sans-serif;" x="40" y="595">AME1</text><rect stroke="#006FB0" stroke-width="1" x="100" y="580" width="486.0" height="20" fill="#B9E3FF"/><line stroke="#000000" stroke-width="1.5" x1="146.5" y1="570" x2="146.5" y2="580"/><text style="font: 8px sans-serif;" x="141.5" y="565">T31</text><line stroke="#000000" stroke-width="1.5" x1="179.5" y1="570" x2="179.5" y2="580"/><text style="font: 8px sans-serif;" x="174.5" y="565">S53</text><text style="font: 15px sans-serif;" x="40" y="655">AVO1</text><rect stroke="#006FB0" stroke-width="1" x="100" y="640" width="1764.0" height="20" fill="#B9E3FF"/><line stroke="#000000" stroke-width="1.5" x1="1640.5" y1="630" x2="1640.5" y2="640"/><text style="font: 8px sans-serif;" x="1635.5" y="625">S1027</text><text style="font: 15px sans-serif;" x="40" y="715">BIR1</text><rect stroke="#006FB0" stroke-width="1" x="100" y="700" width="1431.0" height="20" fill="#B9E3FF"/><line stroke="#000000" stroke-width="1.5" x1="1060.0" y1="690" x2="1060.0" y2="700"/><text style="font: 8px sans-serif;" x="1055.0" y="685">S640</text></svg>