<svg xmlns="http://www.w3.org/2000/svg" width="3008.0" height="1040"><text style="font: 15px sans-serif;" x="40" y="175">NDC80</text><rect stroke="#006FB0" stroke-width="1" x="100" y="160" width="1036.5" height="20" fill="#B9E3FF"/><line stroke="#000000" stroke-width="1.5" x1="155.5" y1="150" x2="155.5" y2="160"/><text style="font: 8px sans-serif;" x="150.5" y="145">S37</text><line stroke="#000000" stroke-width="1.5" x1="157.0" y1="150" x2="157.0" y2="160"/><text style="font: 8px sans-serif;" x="152.0" y="145">T38</text><text style="font: 15px sans-serif;" x="40" y="235">SPC105</text><rect stroke="#006FB0" stroke-width="1" x="100" y="220" width="1375.5" height="20" fill="#B9E3FF"/><line stroke="#000000" stroke-width="1.5" x1="197.5" y1="210" x2="197.5" y2="220"/><text style="font: 8px sans-serif;" x="192.5" y="205">T65</text><line stroke="#000000" stroke-width="1.5" x1="266.5" y1="210" x2="266.5" y2="220"/><text style="font: 8px sans-serif;" x="261.5" y="205">T111</text><line stroke="#000000" stroke-width="1.5" x1="632.5" y1="210" x2="632.5" y2="220"/><text style="font: 8px sans-serif;" x="627.5" y="205">T355</text><line stroke="#000000" stroke-width="1.5" x1="670.0" y1="210" x2="670.0" y2="220"/><text style="font: 8px sans-serif;" x="665.0" y="205">S380</text><line stroke="#000000" stroke-width="1.5" x1="677.5" y1="210" x2="677.5" y2="220"/><text style="font: 8px sans-serif;" x="672.5" y="205">S385</text><text style="font: 15px sans-serif;" x="40" y="295">DSN1</text><rect stroke="#006FB0" stroke-width="1" x="100" y="280" width="864.0" height="20" fill="#B9E3FF"/><line stroke="#000000" stroke-width="1.5" x1="475.0" y1="270" x2="475.0" y2="280"/><text style="font: 8px sans-serif;" x="470.0" y="265">S250</text><text style="font: 15px sans-serif;" x="40" y="355">NET1</text><rect stroke="#006FB0" stroke-width="1" x="100" y="340" width="1783.5" height="20" fill="#B9E3FF"/><line stroke="#000000" stroke-width="1.5" x1="1723.0" y1="330" x2="1723.0" y2="340"/><text style="font: 8px sans-serif;" x="1718.0" y="325">S1082</text><text style="font: 15px sans-serif;" x="40" y="415">MPS1</text><rect stroke="#006FB0" stroke-width="1" x="100" y="400" width="1146.0" height="20" fill="#B9E3FF"/><line stroke="#000000" stroke-width="1.5" x1="538.0" y1="390" x2="538.0" y2="400"/><text style="font: 8px sans-serif;" x="533.0" y="385">S292</text><line stroke="#000000" stroke-width="1.5" x1="566.5" y1="390" x2="566.5" y2="400"/><text style="font: 8px sans-serif;" x="561.5" y="385">S311</text><line stroke="#000000" stroke-width="1.5" x1="598.0" y1="390" x2="598.0" y2="400"/><text style="font: 8px sans-serif;" x="593.0" y="385">S332</text><text style="font: 15px sans-serif;" x="40" y="475">FIN1</text><rect stroke="#006FB0" stroke-width="1" x="100" y="460" width="436.5" height="20" fill="#B9E3FF"/><line stroke="#000000" stroke-width="1.5" x1="322.0" y1="450" x2="322.0" y2="460"/><text style="font: 8px sans-serif;" x="317.0" y="445">S148</text><text style="font: 15px sans-serif;" x="40" y="535">UBR2</text><rect stroke="#006FB0" stroke-width="1" x="100" y="520" width="2808.0" height="20" fill="#B9E3FF"/><line stroke="#000000" stroke-width="1.5" x1="691.0" y1="510" x2="691.0" y2="520"/><text style="font: 8px sans-serif;" x="686.0" y="505">S394</text><text style="font: 15px sans-serif;" x="40" y="595">SPC24</text><rect stroke="#006FB0" stroke-width="1" x="100" y="580" width="319.5" height="20" fill="#B9E3FF"/><line stroke="#000000" stroke-width="1.5" x1="295.0" y1="570" x2="295.0" y2="580"/><text style="font: 8px sans-serif;" x="290.0" y="565">T130</text><text style="font: 15px sans-serif;" x="40" y="655">MIF2</text><rect stroke="#006FB0" stroke-width="1" x="100" y="640" width="823.5" height="20" fill="#B9E3FF"/><line stroke="#000000" stroke-width="1.5" x1="349.0" y1="630" x2="349.0" y2="640"/><text style="font: 8px sans-serif;" x="344.0" y="625">T166</text><text style="font: 15px sans-serif;" x="40" y="715">AME1</text><rect stroke="#006FB0" stroke-width="1" x="100" y="700" width="486.0" height="20" fill="#B9E3FF"/><line stroke="#000000" stroke-width="1.5" x1="167.5" y1="690" x2="167.5" y2="700"/><text style="font: 8px sans-serif;" x="162.5" y="685">S45</text><text style="font: 15px sans-serif;" x="40" y="775">RGA1</text><rect stroke="#006FB0" stroke-width="1" x="100" y="760" width="1510.5" height="20" fill="#B9E3FF"/><line stroke="#000000" stroke-width="1.5" x1="517.0" y1="750" x2="517.0" y2="760"/><text style="font: 8px sans-serif;" x="512.0" y="745">T278</text><text style="font: 15px sans-serif;" x="40" y="835">XRN1</text><rect stroke="#006FB0" stroke-width="1" x="100" y="820" width="2292.0" height="20" fill="#B9E3FF"/><line stroke="#000000" stroke-width="1.5" x1="2359.0" y1="810" x2="2359.0" y2="820"/><text style="font: 8px sans-serif;" x="2354.0" y="805">T1506</text><text style="font: 15px sans-serif;" x="40" y="895">BIR1</text><rect stroke="#006FB0" stroke-width="1" x="100" y="880" width="1431.0" height="20" fill="#B9E3FF"/><line stroke="#000000" stroke-width="1.5" x1="886.0" y1="870" x2="886.0" y2="880"/><text style="font: 8px sans-serif;" x="881.0" y="865">S524</text><text style="font: 15px sans-serif;" x="40" y="955">YPR097W</text><rect stroke="#006FB0" stroke-width="1" x="100" y="940" width="1609.5" height="20" fill="#B9E3FF"/><line stroke="#000000" stroke-width="1.5" x1="949.0" y1="930" x2="949.0" y2="940"/><text style="font: 8px sans-serif;" x="944.0" y="925">S566</text></svg>