<svg xmlns="http://www.w3.org/2000/svg" width="3074.0" height="2540"><text style="font: 15px sans-serif;" x="40" y="175">NDC80</text><rect stroke="#006FB0" stroke-width="1" x="100" y="160" width="1036.5" height="20" fill="#B9E3FF"/><line stroke="#000000" stroke-width="1.5" x1="155.5" y1="150" x2="155.5" y2="160"/><text style="font: 8px sans-serif;" x="150.5" y="145">S37</text><line stroke="#000000" stroke-width="1.5" x1="1135.0" y1="150" x2="1135.0" y2="160"/><text style="font: 8px sans-serif;" x="1130.0" y="145">T690</text><text style="font: 15px sans-serif;" x="40" y="235">FIN1</text><rect stroke="#006FB0" stroke-width="1" x="100" y="220" width="436.5" height="20" fill="#B9E3FF"/><line stroke="#000000" stroke-width="1.5" x1="154.0" y1="210" x2="154.0" y2="220"/><text style="font: 8px sans-serif;" x="149.0" y="205">S36</text><line stroke="#000000" stroke-width="1.5" x1="160.0" y1="210" x2="160.0" y2="220"/><text style="font: 8px sans-serif;" x="155.0" y="205">T40</text><line stroke="#000000" stroke-width="1.5" x1="181.0" y1="210" x2="181.0" y2="220"/><text style="font: 8px sans-serif;" x="176.0" y="205">S54</text><line stroke="#000000" stroke-width="1.5" x1="275.5" y1="210" x2="275.5" y2="220"/><text style="font: 8px sans-serif;" x="270.5" y="205">S117</text><text style="font: 15px sans-serif;" x="40" y="295">MPS1</text><rect stroke="#006FB0" stroke-width="1" x="100" y="280" width="1146.0" height="20" fill="#B9E3FF"/><line stroke="#000000" stroke-width="1.5" x1="107.5" y1="270" x2="107.5" y2="280"/><text style="font: 8px sans-serif;" x="102.5" y="265">S5</text><line stroke="#000000" stroke-width="1.5" x1="133.0" y1="270" x2="133.0" y2="280"/><text style="font: 8px sans-serif;" x="128.0" y="265">S22</text><line stroke="#000000" stroke-width="1.5" x1="206.5" y1="270" x2="206.5" y2="280"/><text style="font: 8px sans-serif;" x="201.5" y="265">S71</text><line stroke="#000000" stroke-width="1.5" x1="238.0" y1="270" x2="238.0" y2="280"/><text style="font: 8px sans-serif;" x="233.0" y="265">S92</text><line stroke="#000000" stroke-width="1.5" x1="566.5" y1="270" x2="566.5" y2="280"/><text style="font: 8px sans-serif;" x="561.5" y="265">S311</text><line stroke="#000000" stroke-width="1.5" x1="571.0" y1="270" x2="571.0" y2="280"/><text style="font: 8px sans-serif;" x="566.0" y="265">S314</text><line stroke="#000000" stroke-width="1.5" x1="598.0" y1="270" x2="598.0" y2="280"/><text style="font: 8px sans-serif;" x="593.0" y="265">S332</text><line stroke="#000000" stroke-width="1.5" x1="604.0" y1="270" x2="604.0" y2="280"/><text style="font: 8px sans-serif;" x="599.0" y="265">S336</text><line stroke="#000000" stroke-width="1.5" x1="683.5" y1="270" x2="683.5" y2="280"/><text style="font: 8px sans-serif;" x="678.5" y="265">T389</text><line stroke="#000000" stroke-width="1.5" x1="737.5" y1="270" x2="737.5" y2="280"/><text style="font: 8px sans-serif;" x="732.5" y="265">S425</text><text style="font: 15px sans-serif;" x="40" y="355">CNN1</text><rect stroke="#006FB0" stroke-width="1" x="100" y="340" width="541.5" height="20" fill="#B9E3FF"/><line stroke="#000000" stroke-width="1.5" x1="104.5" y1="330" x2="104.5" y2="340"/><text style="font: 8px sans-serif;" x="99.5" y="325">T3</text><line stroke="#000000" stroke-width="1.5" x1="131.5" y1="330" x2="131.5" y2="340"/><text style="font: 8px sans-serif;" x="126.5" y="325">T21</text><line stroke="#000000" stroke-width="1.5" x1="163.0" y1="330" x2="163.0" y2="340"/><text style="font: 8px sans-serif;" x="158.0" y="325">T42</text><text style="font: 15px sans-serif;" x="40" y="415">SPC24</text><rect stroke="#006FB0" stroke-width="1" x="100" y="400" width="319.5" height="20" fill="#B9E3FF"/><line stroke="#000000" stroke-width="1.5" x1="295.0" y1="390" x2="295.0" y2="400"/><text style="font: 8px sans-serif;" x="290.0" y="385">T130</text><line stroke="#000000" stroke-width="1.5" x1="301.0" y1="390" x2="301.0" y2="400"/><text style="font: 8px sans-serif;" x="296.0" y="385">S134</text><text style="font: 15px sans-serif;" x="40" y="475">NET1</text><rect stroke="#006FB0" stroke-width="1" x="100" y="460" width="1783.5" height="20" fill="#B9E3FF"/><line stroke="#000000" stroke-width="1.5" x1="446.5" y1="450" x2="446.5" y2="460"/><text style="font: 8px sans-serif;" x="441.5" y="445">S231</text><line stroke="#000000" stroke-width="1.5" x1="478.0" y1="450" x2="478.0" y2="460"/><text style="font: 8px sans-serif;" x="473.0" y="445">S252</text><line stroke="#000000" stroke-width="1.5" x1="1648.0" y1="450" x2="1648.0" y2="460"/><text style="font: 8px sans-serif;" x="1643.0" y="445">S1032</text><line stroke="#000000" stroke-width="1.5" x1="1723.0" y1="450" x2="1723.0" y2="460"/><text style="font: 8px sans-serif;" x="1718.0" y="445">S1082</text><text style="font: 15px sans-serif;" x="40" y="535">FET4</text><rect stroke="#006FB0" stroke-width="1" x="100" y="520" width="828.0" height="20" fill="#B9E3FF"/><line stroke="#000000" stroke-width="1.5" x1="152.5" y1="510" x2="152.5" y2="520"/><text style="font: 8px sans-serif;" x="147.5" y="505">S35</text><text style="font: 15px sans-serif;" x="40" y="595">AKL1</text><rect stroke="#006FB0" stroke-width="1" x="100" y="580" width="1662.0" height="20" fill="#B9E3FF"/><line stroke="#000000" stroke-width="1.5" x1="851.5" y1="570" x2="851.5" y2="580"/><text style="font: 8px sans-serif;" x="846.5" y="565">S501</text><text style="font: 15px sans-serif;" x="40" y="655">ALK1</text><rect stroke="#006FB0" stroke-width="1" x="100" y="640" width="1140.0" height="20" fill="#B9E3FF"/><line stroke="#000000" stroke-width="1.5" x1="626.5" y1="630" x2="626.5" y2="640"/><text style="font: 8px sans-serif;" x="621.5" y="625">S351</text><text style="font: 15px sans-serif;" x="40" y="715">TCO89</text><rect stroke="#006FB0" stroke-width="1" x="100" y="700" width="1198.5" height="20" fill="#B9E3FF"/><line stroke="#000000" stroke-width="1.5" x1="256.0" y1="690" x2="256.0" y2="700"/><text style="font: 8px sans-serif;" x="251.0" y="685">S104</text><text style="font: 15px sans-serif;" x="40" y="775">AVO1</text><rect stroke="#006FB0" stroke-width="1" x="100" y="760" width="1764.0" height="20" fill="#B9E3FF"/><line stroke="#000000" stroke-width="1.5" x1="575.5" y1="750" x2="575.5" y2="760"/><text style="font: 8px sans-serif;" x="570.5" y="745">S317</text><line stroke="#000000" stroke-width="1.5" x1="743.5" y1="750" x2="743.5" y2="760"/><text style="font: 8px sans-serif;" x="738.5" y="745">S429</text><line stroke="#000000" stroke-width="1.5" x1="905.5" y1="750" x2="905.5" y2="760"/><text style="font: 8px sans-serif;" x="900.5" y="745">S537</text><text style="font: 15px sans-serif;" x="40" y="835">STU2</text><rect stroke="#006FB0" stroke-width="1" x="100" y="820" width="1332.0" height="20" fill="#B9E3FF"/><line stroke="#000000" stroke-width="1.5" x1="1004.5" y1="810" x2="1004.5" y2="820"/><text style="font: 8px sans-serif;" x="999.5" y="805">S603</text><text style="font: 15px sans-serif;" x="40" y="895">ASK10</text><rect stroke="#006FB0" stroke-width="1" x="100" y="880" width="1719.0" height="20" fill="#B9E3FF"/><line stroke="#000000" stroke-width="1.5" x1="1583.5" y1="870" x2="1583.5" y2="880"/><text style="font: 8px sans-serif;" x="1578.5" y="865">S989</text><text style="font: 15px sans-serif;" x="40" y="955">DSN1</text><rect stroke="#006FB0" stroke-width="1" x="100" y="940" width="864.0" height="20" fill="#B9E3FF"/><line stroke="#000000" stroke-width="1.5" x1="118.0" y1="930" x2="118.0" y2="940"/><text style="font: 8px sans-serif;" x="113.0" y="925">T12</text><text style="font: 15px sans-serif;" x="40" y="1015">DAM1</text><rect stroke="#006FB0" stroke-width="1" x="100" y="1000" width="514.5" height="20" fill="#B9E3FF"/><line stroke="#000000" stroke-width="1.5" x1="146.5" y1="990" x2="146.5" y2="1000"/><text style="font: 8px sans-serif;" x="141.5" y="985">S31</text><text style="font: 15px sans-serif;" x="40" y="1075">MSB1</text><rect stroke="#006FB0" stroke-width="1" x="100" y="1060" width="1705.5" height="20" fill="#B9E3FF"/><line stroke="#000000" stroke-width="1.5" x1="149.5" y1="1050" x2="149.5" y2="1060"/><text style="font: 8px sans-serif;" x="144.5" y="1045">S33</text><text style="font: 15px sans-serif;" x="40" y="1135">SWI5</text><rect stroke="#006FB0" stroke-width="1" x="100" y="1120" width="1063.5" height="20" fill="#B9E3FF"/><line stroke="#000000" stroke-width="1.5" x1="838.0" y1="1110" x2="838.0" y2="1120"/><text style="font: 8px sans-serif;" x="833.0" y="1105">S492</text><text style="font: 15px sans-serif;" x="40" y="1195">ACE2</text><rect stroke="#006FB0" stroke-width="1" x="100" y="1180" width="1155.0" height="20" fill="#B9E3FF"/><line stroke="#000000" stroke-width="1.5" x1="220.0" y1="1170" x2="220.0" y2="1180"/><text style="font: 8px sans-serif;" x="215.0" y="1165">S80</text><line stroke="#000000" stroke-width="1.5" x1="677.5" y1="1170" x2="677.5" y2="1180"/><text style="font: 8px sans-serif;" x="672.5" y="1165">S385</text><text style="font: 15px sans-serif;" x="40" y="1255">PHO84</text><rect stroke="#006FB0" stroke-width="1" x="100" y="1240" width="880.5" height="20" fill="#B9E3FF"/><line stroke="#000000" stroke-width="1.5" x1="553.0" y1="1230" x2="553.0" y2="1240"/><text style="font: 8px sans-serif;" x="548.0" y="1225">T302</text><line stroke="#000000" stroke-width="1.5" x1="968.5" y1="1230" x2="968.5" y2="1240"/><text style="font: 8px sans-serif;" x="963.5" y="1225">S579</text><line stroke="#000000" stroke-width="1.5" x1="971.5" y1="1230" x2="971.5" y2="1240"/><text style="font: 8px sans-serif;" x="966.5" y="1225">S581</text><text style="font: 15px sans-serif;" x="40" y="1315">TSC11</text><rect stroke="#006FB0" stroke-width="1" x="100" y="1300" width="2145.0" height="20" fill="#B9E3FF"/><line stroke="#000000" stroke-width="1.5" x1="230.5" y1="1290" x2="230.5" y2="1300"/><text style="font: 8px sans-serif;" x="225.5" y="1285">S87</text><text style="font: 15px sans-serif;" x="40" y="1375">SLI15</text><rect stroke="#006FB0" stroke-width="1" x="100" y="1360" width="1047.0" height="20" fill="#B9E3FF"/><line stroke="#000000" stroke-width="1.5" x1="245.5" y1="1350" x2="245.5" y2="1360"/><text style="font: 8px sans-serif;" x="240.5" y="1345">S97</text><text style="font: 15px sans-serif;" x="40" y="1435">ASK1</text><rect stroke="#006FB0" stroke-width="1" x="100" y="1420" width="438.0" height="20" fill="#B9E3FF"/><line stroke="#000000" stroke-width="1.5" x1="514.0" y1="1410" x2="514.0" y2="1420"/><text style="font: 8px sans-serif;" x="509.0" y="1405">T276</text><text style="font: 15px sans-serif;" x="40" y="1495">RGA2</text><rect stroke="#006FB0" stroke-width="1" x="100" y="1480" width="1513.5" height="20" fill="#B9E3FF"/><line stroke="#000000" stroke-width="1.5" x1="1244.5" y1="1470" x2="1244.5" y2="1480"/><text style="font: 8px sans-serif;" x="1239.5" y="1465">S763</text><text style="font: 15px sans-serif;" x="40" y="1555">MYO5</text><rect stroke="#006FB0" stroke-width="1" x="100" y="1540" width="1828.5" height="20" fill="#B9E3FF"/><line stroke="#000000" stroke-width="1.5" x1="1264.0" y1="1530" x2="1264.0" y2="1540"/><text style="font: 8px sans-serif;" x="1259.0" y="1525">M776</text><text style="font: 15px sans-serif;" x="40" y="1615">CDC14</text><rect stroke="#006FB0" stroke-width="1" x="100" y="1600" width="826.5" height="20" fill="#B9E3FF"/><line stroke="#000000" stroke-width="1.5" x1="800.5" y1="1590" x2="800.5" y2="1600"/><text style="font: 8px sans-serif;" x="795.5" y="1585">S467</text><text style="font: 15px sans-serif;" x="40" y="1675">MYO3</text><rect stroke="#006FB0" stroke-width="1" x="100" y="1660" width="1908.0" height="20" fill="#B9E3FF"/><line stroke="#000000" stroke-width="1.5" x1="1264.0" y1="1650" x2="1264.0" y2="1660"/><text style="font: 8px sans-serif;" x="1259.0" y="1645">M776</text><text style="font: 15px sans-serif;" x="40" y="1735">AVO2</text><rect stroke="#006FB0" stroke-width="1" x="100" y="1720" width="639.0" height="20" fill="#B9E3FF"/><line stroke="#000000" stroke-width="1.5" x1="595.0" y1="1710" x2="595.0" y2="1720"/><text style="font: 8px sans-serif;" x="590.0" y="1705">T330</text><line stroke="#000000" stroke-width="1.5" x1="599.5" y1="1710" x2="599.5" y2="1720"/><text style="font: 8px sans-serif;" x="594.5" y="1705">S333</text><text style="font: 15px sans-serif;" x="40" y="1795">DOT6</text><rect stroke="#006FB0" stroke-width="1" x="100" y="1780" width="1005.0" height="20" fill="#B9E3FF"/><line stroke="#000000" stroke-width="1.5" x1="830.5" y1="1770" x2="830.5" y2="1780"/><text style="font: 8px sans-serif;" x="825.5" y="1765">S487</text><text style="font: 15px sans-serif;" x="40" y="1855">PWP2</text><rect stroke="#006FB0" stroke-width="1" x="100" y="1840" width="1384.5" height="20" fill="#B9E3FF"/><line stroke="#000000" stroke-width="1.5" x1="448.0" y1="1830" x2="448.0" y2="1840"/><text style="font: 8px sans-serif;" x="443.0" y="1825">S232</text><text style="font: 15px sans-serif;" x="40" y="1915">SAS10</text><rect stroke="#006FB0" stroke-width="1" x="100" y="1900" width="915.0" height="20" fill="#B9E3FF"/><line stroke="#000000" stroke-width="1.5" x1="815.5" y1="1890" x2="815.5" y2="1900"/><text style="font: 8px sans-serif;" x="810.5" y="1885">S477</text><text style="font: 15px sans-serif;" x="40" y="1975">RIF1</text><rect stroke="#006FB0" stroke-width="1" x="100" y="1960" width="2874.0" height="20" fill="#B9E3FF"/><line stroke="#000000" stroke-width="1.5" x1="2555.5" y1="1950" x2="2555.5" y2="1960"/><text style="font: 8px sans-serif;" x="2550.5" y="1945">S1637</text><text style="font: 15px sans-serif;" x="40" y="2035">CMR2</text><rect stroke="#006FB0" stroke-width="1" x="100" y="2020" width="2472.0" height="20" fill="#B9E3FF"/><line stroke="#000000" stroke-width="1.5" x1="1226.5" y1="2010" x2="1226.5" y2="2020"/><text style="font: 8px sans-serif;" x="1221.5" y="2005">S751</text><text style="font: 15px sans-serif;" x="40" y="2095">SLA2</text><rect stroke="#006FB0" stroke-width="1" x="100" y="2080" width="1452.0" height="20" fill="#B9E3FF"/><line stroke="#000000" stroke-width="1.5" x1="562.0" y1="2070" x2="562.0" y2="2080"/><text style="font: 8px sans-serif;" x="557.0" y="2065">S308</text><text style="font: 15px sans-serif;" x="40" y="2155">HSL1</text><rect stroke="#006FB0" stroke-width="1" x="100" y="2140" width="2277.0" height="20" fill="#B9E3FF"/><line stroke="#000000" stroke-width="1.5" x1="1399.0" y1="2130" x2="1399.0" y2="2140"/><text style="font: 8px sans-serif;" x="1394.0" y="2125">S866</text><text style="font: 15px sans-serif;" x="40" y="2215">MTC5</text><rect stroke="#006FB0" stroke-width="1" x="100" y="2200" width="1722.0" height="20" fill="#B9E3FF"/><line stroke="#000000" stroke-width="1.5" x1="1493.5" y1="2190" x2="1493.5" y2="2200"/><text style="font: 8px sans-serif;" x="1488.5" y="2185">T929</text><text style="font: 15px sans-serif;" x="40" y="2275">LRS4</text><rect stroke="#006FB0" stroke-width="1" x="100" y="2260" width="520.5" height="20" fill="#B9E3FF"/><line stroke="#000000" stroke-width="1.5" x1="319.0" y1="2250" x2="319.0" y2="2260"/><text style="font: 8px sans-serif;" x="314.0" y="2245">S146</text><text style="font: 15px sans-serif;" x="40" y="2335">SHE3</text><rect stroke="#006FB0" stroke-width="1" x="100" y="2320" width="637.5" height="20" fill="#B9E3FF"/><line stroke="#000000" stroke-width="1.5" x1="679.0" y1="2310" x2="679.0" y2="2320"/><text style="font: 8px sans-serif;" x="674.0" y="2305">T386</text><text style="font: 15px sans-serif;" x="40" y="2395">TAT1</text><rect stroke="#006FB0" stroke-width="1" x="100" y="2380" width="928.5" height="20" fill="#B9E3FF"/><line stroke="#000000" stroke-width="1.5" x1="130.0" y1="2370" x2="130.0" y2="2380"/><text style="font: 8px sans-serif;" x="125.0" y="2365">S20</text><text style="font: 15px sans-serif;" x="40" y="2455">YMR295C</text><rect stroke="#006FB0" stroke-width="1" x="100" y="2440" width="295.5" height="20" fill="#B9E3FF"/><line stroke="#000000" stroke-width="1.5" x1="113.5" y1="2430" x2="113.5" y2="2440"/><text style="font: 8px sans-serif;" x="108.5" y="2425">S9</text></svg>