<svg xmlns="http://www.w3.org/2000/svg" width="3492.5" height="4580"><text style="font: 15px sans-serif;" x="40" y="175">NDC80</text><rect stroke="#006FB0" stroke-width="1" x="100" y="160" width="1036.5" height="20" fill="#B9E3FF"/><line stroke="#000000" stroke-width="1.5" x1="155.5" y1="150" x2="155.5" y2="160"/><text style="font: 8px sans-serif;" x="150.5" y="145">S37</text><line stroke="#000000" stroke-width="1.5" x1="242.5" y1="150" x2="242.5" y2="160"/><text style="font: 8px sans-serif;" x="237.5" y="145">S95</text><line stroke="#000000" stroke-width="1.5" x1="1135.0" y1="150" x2="1135.0" y2="160"/><text style="font: 8px sans-serif;" x="1130.0" y="145">T690</text><text style="font: 15px sans-serif;" x="40" y="235">SPC105</text><rect stroke="#006FB0" stroke-width="1" x="100" y="220" width="1375.5" height="20" fill="#B9E3FF"/><line stroke="#000000" stroke-width="1.5" x1="188.5" y1="210" x2="188.5" y2="220"/><text style="font: 8px sans-serif;" x="183.5" y="205">T59</text><line stroke="#000000" stroke-width="1.5" x1="215.5" y1="210" x2="215.5" y2="220"/><text style="font: 8px sans-serif;" x="210.5" y="205">S77</text><line stroke="#000000" stroke-width="1.5" x1="263.5" y1="210" x2="263.5" y2="220"/><text style="font: 8px sans-serif;" x="258.5" y="205">S109</text><line stroke="#000000" stroke-width="1.5" x1="266.5" y1="210" x2="266.5" y2="220"/><text style="font: 8px sans-serif;" x="261.5" y="205">T111</text><line stroke="#000000" stroke-width="1.5" x1="314.5" y1="210" x2="314.5" y2="220"/><text style="font: 8px sans-serif;" x="309.5" y="205">T143</text><line stroke="#000000" stroke-width="1.5" x1="487.0" y1="210" x2="487.0" y2="220"/><text style="font: 8px sans-serif;" x="482.0" y="205">S258</text><line stroke="#000000" stroke-width="1.5" x1="634.0" y1="210" x2="634.0" y2="220"/><text style="font: 8px sans-serif;" x="629.0" y="205">T356</text><line stroke="#000000" stroke-width="1.5" x1="670.0" y1="210" x2="670.0" y2="220"/><text style="font: 8px sans-serif;" x="665.0" y="205">S380</text><line stroke="#000000" stroke-width="1.5" x1="677.5" y1="210" x2="677.5" y2="220"/><text style="font: 8px sans-serif;" x="672.5" y="205">S385</text><text style="font: 15px sans-serif;" x="40" y="295">FIN1</text><rect stroke="#006FB0" stroke-width="1" x="100" y="280" width="436.5" height="20" fill="#B9E3FF"/><line stroke="#000000" stroke-width="1.5" x1="154.0" y1="270" x2="154.0" y2="280"/><text style="font: 8px sans-serif;" x="149.0" y="265">S36</text><line stroke="#000000" stroke-width="1.5" x1="181.0" y1="270" x2="181.0" y2="280"/><text style="font: 8px sans-serif;" x="176.0" y="265">S54</text><line stroke="#000000" stroke-width="1.5" x1="232.0" y1="270" x2="232.0" y2="280"/><text style="font: 8px sans-serif;" x="227.0" y="265">S88</text><line stroke="#000000" stroke-width="1.5" x1="322.0" y1="270" x2="322.0" y2="280"/><text style="font: 8px sans-serif;" x="317.0" y="265">S148</text><text style="font: 15px sans-serif;" x="40" y="355">DSN1</text><rect stroke="#006FB0" stroke-width="1" x="100" y="340" width="864.0" height="20" fill="#B9E3FF"/><line stroke="#000000" stroke-width="1.5" x1="103.0" y1="330" x2="103.0" y2="340"/><text style="font: 8px sans-serif;" x="98.0" y="325">S2</text><line stroke="#000000" stroke-width="1.5" x1="115.0" y1="330" x2="115.0" y2="340"/><text style="font: 8px sans-serif;" x="110.0" y="325">S10</text><line stroke="#000000" stroke-width="1.5" x1="203.5" y1="330" x2="203.5" y2="340"/><text style="font: 8px sans-serif;" x="198.5" y="325">S69</text><line stroke="#000000" stroke-width="1.5" x1="475.0" y1="330" x2="475.0" y2="340"/><text style="font: 8px sans-serif;" x="470.0" y="325">S250</text><line stroke="#000000" stroke-width="1.5" x1="496.0" y1="330" x2="496.0" y2="340"/><text style="font: 8px sans-serif;" x="491.0" y="325">S264</text><line stroke="#000000" stroke-width="1.5" x1="920.5" y1="330" x2="920.5" y2="340"/><text style="font: 8px sans-serif;" x="915.5" y="325">S547</text><text style="font: 15px sans-serif;" x="40" y="415">NET1</text><rect stroke="#006FB0" stroke-width="1" x="100" y="400" width="1783.5" height="20" fill="#B9E3FF"/><line stroke="#000000" stroke-width="1.5" x1="193.0" y1="390" x2="193.0" y2="400"/><text style="font: 8px sans-serif;" x="188.0" y="385">T62</text><line stroke="#000000" stroke-width="1.5" x1="446.5" y1="390" x2="446.5" y2="400"/><text style="font: 8px sans-serif;" x="441.5" y="385">S231</text><line stroke="#000000" stroke-width="1.5" x1="478.0" y1="390" x2="478.0" y2="400"/><text style="font: 8px sans-serif;" x="473.0" y="385">S252</text><line stroke="#000000" stroke-width="1.5" x1="760.0" y1="390" x2="760.0" y2="400"/><text style="font: 8px sans-serif;" x="755.0" y="385">S440</text><line stroke="#000000" stroke-width="1.5" x1="1648.0" y1="390" x2="1648.0" y2="400"/><text style="font: 8px sans-serif;" x="1643.0" y="385">S1032</text><line stroke="#000000" stroke-width="1.5" x1="1663.0" y1="390" x2="1663.0" y2="400"/><text style="font: 8px sans-serif;" x="1658.0" y="385">T1042</text><line stroke="#000000" stroke-width="1.5" x1="1688.5" y1="390" x2="1688.5" y2="400"/><text style="font: 8px sans-serif;" x="1683.5" y="385">S1059</text><line stroke="#000000" stroke-width="1.5" x1="1723.0" y1="390" x2="1723.0" y2="400"/><text style="font: 8px sans-serif;" x="1718.0" y="385">S1082</text><line stroke="#000000" stroke-width="1.5" x1="1726.0" y1="390" x2="1726.0" y2="400"/><text style="font: 8px sans-serif;" x="1721.0" y="385">S1084</text><text style="font: 15px sans-serif;" x="40" y="475">NSL1</text><rect stroke="#006FB0" stroke-width="1" x="100" y="460" width="324.0" height="20" fill="#B9E3FF"/><line stroke="#000000" stroke-width="1.5" x1="347.5" y1="450" x2="347.5" y2="460"/><text style="font: 8px sans-serif;" x="342.5" y="445">S165</text><text style="font: 15px sans-serif;" x="40" y="535">SPC24</text><rect stroke="#006FB0" stroke-width="1" x="100" y="520" width="319.5" height="20" fill="#B9E3FF"/><line stroke="#000000" stroke-width="1.5" x1="103.0" y1="510" x2="103.0" y2="520"/><text style="font: 8px sans-serif;" x="98.0" y="505">S2</text><line stroke="#000000" stroke-width="1.5" x1="295.0" y1="510" x2="295.0" y2="520"/><text style="font: 8px sans-serif;" x="290.0" y="505">T130</text><line stroke="#000000" stroke-width="1.5" x1="328.0" y1="510" x2="328.0" y2="520"/><text style="font: 8px sans-serif;" x="323.0" y="505">T152</text><text style="font: 15px sans-serif;" x="40" y="595">SPC25</text><rect stroke="#006FB0" stroke-width="1" x="100" y="580" width="331.5" height="20" fill="#B9E3FF"/><line stroke="#000000" stroke-width="1.5" x1="250.0" y1="570" x2="250.0" y2="580"/><text style="font: 8px sans-serif;" x="245.0" y="565">S100</text><text style="font: 15px sans-serif;" x="40" y="655">STU2</text><rect stroke="#006FB0" stroke-width="1" x="100" y="640" width="1332.0" height="20" fill="#B9E3FF"/><line stroke="#000000" stroke-width="1.5" x1="1004.5" y1="630" x2="1004.5" y2="640"/><text style="font: 8px sans-serif;" x="999.5" y="625">S603</text><line stroke="#000000" stroke-width="1.5" x1="1319.5" y1="630" x2="1319.5" y2="640"/><text style="font: 8px sans-serif;" x="1314.5" y="625">S813</text><text style="font: 15px sans-serif;" x="40" y="715">MPS1</text><rect stroke="#006FB0" stroke-width="1" x="100" y="700" width="1146.0" height="20" fill="#B9E3FF"/><line stroke="#000000" stroke-width="1.5" x1="107.5" y1="690" x2="107.5" y2="700"/><text style="font: 8px sans-serif;" x="102.5" y="685">S5</text><line stroke="#000000" stroke-width="1.5" x1="142.0" y1="690" x2="142.0" y2="700"/><text style="font: 8px sans-serif;" x="137.0" y="685">T28</text><line stroke="#000000" stroke-width="1.5" x1="572.5" y1="690" x2="572.5" y2="700"/><text style="font: 8px sans-serif;" x="567.5" y="685">S315</text><line stroke="#000000" stroke-width="1.5" x1="604.0" y1="690" x2="604.0" y2="700"/><text style="font: 8px sans-serif;" x="599.0" y="685">S336</text><line stroke="#000000" stroke-width="1.5" x1="644.5" y1="690" x2="644.5" y2="700"/><text style="font: 8px sans-serif;" x="639.5" y="685">S363</text><line stroke="#000000" stroke-width="1.5" x1="674.5" y1="690" x2="674.5" y2="700"/><text style="font: 8px sans-serif;" x="669.5" y="685">S383</text><text style="font: 15px sans-serif;" x="40" y="775">UBR2</text><rect stroke="#006FB0" stroke-width="1" x="100" y="760" width="2808.0" height="20" fill="#B9E3FF"/><line stroke="#000000" stroke-width="1.5" x1="691.0" y1="750" x2="691.0" y2="760"/><text style="font: 8px sans-serif;" x="686.0" y="745">S394</text><text style="font: 15px sans-serif;" x="40" y="835">MIF2</text><rect stroke="#006FB0" stroke-width="1" x="100" y="820" width="823.5" height="20" fill="#B9E3FF"/><line stroke="#000000" stroke-width="1.5" x1="181.0" y1="810" x2="181.0" y2="820"/><text style="font: 8px sans-serif;" x="176.0" y="805">S54</text><line stroke="#000000" stroke-width="1.5" x1="340.0" y1="810" x2="340.0" y2="820"/><text style="font: 8px sans-serif;" x="335.0" y="805">S160</text><line stroke="#000000" stroke-width="1.5" x1="349.0" y1="810" x2="349.0" y2="820"/><text style="font: 8px sans-serif;" x="344.0" y="805">T166</text><text style="font: 15px sans-serif;" x="40" y="895">YPR137C-B</text><rect stroke="#006FB0" stroke-width="1" x="100" y="880" width="2632.5" height="20" fill="#B9E3FF"/><line stroke="#000000" stroke-width="1.5" x1="1540.0" y1="870" x2="1540.0" y2="880"/><text style="font: 8px sans-serif;" x="1535.0" y="865">S960</text><line stroke="#000000" stroke-width="1.5" x1="1721.5" y1="870" x2="1721.5" y2="880"/><text style="font: 8px sans-serif;" x="1716.5" y="865">S1081</text><text style="font: 15px sans-serif;" x="40" y="955">YML039W</text><rect stroke="#006FB0" stroke-width="1" x="100" y="940" width="2632.5" height="20" fill="#B9E3FF"/><line stroke="#000000" stroke-width="1.5" x1="1540.0" y1="930" x2="1540.0" y2="940"/><text style="font: 8px sans-serif;" x="1535.0" y="925">S960</text><line stroke="#000000" stroke-width="1.5" x1="1721.5" y1="930" x2="1721.5" y2="940"/><text style="font: 8px sans-serif;" x="1716.5" y="925">S1081</text><text style="font: 15px sans-serif;" x="40" y="1015">YDR261C-D</text><rect stroke="#006FB0" stroke-width="1" x="100" y="1000" width="2406.0" height="20" fill="#B9E3FF"/><line stroke="#000000" stroke-width="1.5" x1="1540.0" y1="990" x2="1540.0" y2="1000"/><text style="font: 8px sans-serif;" x="1535.0" y="985">S960</text><line stroke="#000000" stroke-width="1.5" x1="1721.5" y1="990" x2="1721.5" y2="1000"/><text style="font: 8px sans-serif;" x="1716.5" y="985">S1081</text><text style="font: 15px sans-serif;" x="40" y="1075">YPR158C-D</text><rect stroke="#006FB0" stroke-width="1" x="100" y="1060" width="2632.5" height="20" fill="#B9E3FF"/><line stroke="#000000" stroke-width="1.5" x1="1721.5" y1="1050" x2="1721.5" y2="1060"/><text style="font: 8px sans-serif;" x="1716.5" y="1045">S1081</text><text style="font: 15px sans-serif;" x="40" y="1135">YHR214C-B</text><rect stroke="#006FB0" stroke-width="1" x="100" y="1120" width="2689.5" height="20" fill="#B9E3FF"/><line stroke="#000000" stroke-width="1.5" x1="1540.0" y1="1110" x2="1540.0" y2="1120"/><text style="font: 8px sans-serif;" x="1535.0" y="1105">A960</text><text style="font: 15px sans-serif;" x="40" y="1195">BUB1</text><rect stroke="#006FB0" stroke-width="1" x="100" y="1180" width="1531.5" height="20" fill="#B9E3FF"/><line stroke="#000000" stroke-width="1.5" x1="121.0" y1="1170" x2="121.0" y2="1180"/><text style="font: 8px sans-serif;" x="116.0" y="1165">S14</text><text style="font: 15px sans-serif;" x="40" y="1255">YDR210C-D</text><rect stroke="#006FB0" stroke-width="1" x="100" y="1240" width="2632.5" height="20" fill="#B9E3FF"/><line stroke="#000000" stroke-width="1.5" x1="1540.0" y1="1230" x2="1540.0" y2="1240"/><text style="font: 8px sans-serif;" x="1535.0" y="1225">S960</text><line stroke="#000000" stroke-width="1.5" x1="1721.5" y1="1230" x2="1721.5" y2="1240"/><text style="font: 8px sans-serif;" x="1716.5" y="1225">S1081</text><text style="font: 15px sans-serif;" x="40" y="1315">YGR161C-D</text><rect stroke="#006FB0" stroke-width="1" x="100" y="1300" width="2632.5" height="20" fill="#B9E3FF"/><line stroke="#000000" stroke-width="1.5" x1="1540.0" y1="1290" x2="1540.0" y2="1300"/><text style="font: 8px sans-serif;" x="1535.0" y="1285">S960</text><text style="font: 15px sans-serif;" x="40" y="1375">YBL005W-B</text><rect stroke="#006FB0" stroke-width="1" x="100" y="1360" width="2632.5" height="20" fill="#B9E3FF"/><line stroke="#000000" stroke-width="1.5" x1="1540.0" y1="1350" x2="1540.0" y2="1360"/><text style="font: 8px sans-serif;" x="1535.0" y="1345">S960</text><text style="font: 15px sans-serif;" x="40" y="1435">DAM1</text><rect stroke="#006FB0" stroke-width="1" x="100" y="1420" width="514.5" height="20" fill="#B9E3FF"/><line stroke="#000000" stroke-width="1.5" x1="103.0" y1="1410" x2="103.0" y2="1420"/><text style="font: 8px sans-serif;" x="98.0" y="1405">S2</text><line stroke="#000000" stroke-width="1.5" x1="134.5" y1="1410" x2="134.5" y2="1420"/><text style="font: 8px sans-serif;" x="129.5" y="1405">S23</text><line stroke="#000000" stroke-width="1.5" x1="140.5" y1="1410" x2="140.5" y2="1420"/><text style="font: 8px sans-serif;" x="135.5" y="1405">S27</text><line stroke="#000000" stroke-width="1.5" x1="145.0" y1="1410" x2="145.0" y2="1420"/><text style="font: 8px sans-serif;" x="140.0" y="1405">S30</text><text style="font: 15px sans-serif;" x="40" y="1495">OKP1</text><rect stroke="#006FB0" stroke-width="1" x="100" y="1480" width="609.0" height="20" fill="#B9E3FF"/><line stroke="#000000" stroke-width="1.5" x1="205.0" y1="1470" x2="205.0" y2="1480"/><text style="font: 8px sans-serif;" x="200.0" y="1465">S70</text><text style="font: 15px sans-serif;" x="40" y="1555">RGA1</text><rect stroke="#006FB0" stroke-width="1" x="100" y="1540" width="1510.5" height="20" fill="#B9E3FF"/><line stroke="#000000" stroke-width="1.5" x1="536.5" y1="1530" x2="536.5" y2="1540"/><text style="font: 8px sans-serif;" x="531.5" y="1525">S291</text><line stroke="#000000" stroke-width="1.5" x1="767.5" y1="1530" x2="767.5" y2="1540"/><text style="font: 8px sans-serif;" x="762.5" y="1525">S445</text><line stroke="#000000" stroke-width="1.5" x1="881.5" y1="1530" x2="881.5" y2="1540"/><text style="font: 8px sans-serif;" x="876.5" y="1525">S521</text><text style="font: 15px sans-serif;" x="40" y="1615">ASK10</text><rect stroke="#006FB0" stroke-width="1" x="100" y="1600" width="1719.0" height="20" fill="#B9E3FF"/><line stroke="#000000" stroke-width="1.5" x1="1631.5" y1="1590" x2="1631.5" y2="1600"/><text style="font: 8px sans-serif;" x="1626.5" y="1585">S1021</text><text style="font: 15px sans-serif;" x="40" y="1675">AVO1</text><rect stroke="#006FB0" stroke-width="1" x="100" y="1660" width="1764.0" height="20" fill="#B9E3FF"/><line stroke="#000000" stroke-width="1.5" x1="575.5" y1="1650" x2="575.5" y2="1660"/><text style="font: 8px sans-serif;" x="570.5" y="1645">S317</text><text style="font: 15px sans-serif;" x="40" y="1735">TCO89</text><rect stroke="#006FB0" stroke-width="1" x="100" y="1720" width="1198.5" height="20" fill="#B9E3FF"/><line stroke="#000000" stroke-width="1.5" x1="260.5" y1="1710" x2="260.5" y2="1720"/><text style="font: 8px sans-serif;" x="255.5" y="1705">S107</text><line stroke="#000000" stroke-width="1.5" x1="278.5" y1="1710" x2="278.5" y2="1720"/><text style="font: 8px sans-serif;" x="273.5" y="1705">S119</text><line stroke="#000000" stroke-width="1.5" x1="919.0" y1="1710" x2="919.0" y2="1720"/><text style="font: 8px sans-serif;" x="914.0" y="1705">S546</text><text style="font: 15px sans-serif;" x="40" y="1795">CDC14</text><rect stroke="#006FB0" stroke-width="1" x="100" y="1780" width="826.5" height="20" fill="#B9E3FF"/><line stroke="#000000" stroke-width="1.5" x1="689.5" y1="1770" x2="689.5" y2="1780"/><text style="font: 8px sans-serif;" x="684.5" y="1765">T393</text><line stroke="#000000" stroke-width="1.5" x1="796.0" y1="1770" x2="796.0" y2="1780"/><text style="font: 8px sans-serif;" x="791.0" y="1765">S464</text><line stroke="#000000" stroke-width="1.5" x1="800.5" y1="1770" x2="800.5" y2="1780"/><text style="font: 8px sans-serif;" x="795.5" y="1765">S467</text><text style="font: 15px sans-serif;" x="40" y="1855">ALK1</text><rect stroke="#006FB0" stroke-width="1" x="100" y="1840" width="1140.0" height="20" fill="#B9E3FF"/><line stroke="#000000" stroke-width="1.5" x1="214.0" y1="1830" x2="214.0" y2="1840"/><text style="font: 8px sans-serif;" x="209.0" y="1825">S76</text><line stroke="#000000" stroke-width="1.5" x1="634.0" y1="1830" x2="634.0" y2="1840"/><text style="font: 8px sans-serif;" x="629.0" y="1825">S356</text><text style="font: 15px sans-serif;" x="40" y="1915">SLI15</text><rect stroke="#006FB0" stroke-width="1" x="100" y="1900" width="1047.0" height="20" fill="#B9E3FF"/><line stroke="#000000" stroke-width="1.5" x1="755.5" y1="1890" x2="755.5" y2="1900"/><text style="font: 8px sans-serif;" x="750.5" y="1885">S437</text><text style="font: 15px sans-serif;" x="40" y="1975">SEC16</text><rect stroke="#006FB0" stroke-width="1" x="100" y="1960" width="3292.5" height="20" fill="#B9E3FF"/><line stroke="#000000" stroke-width="1.5" x1="1111.0" y1="1950" x2="1111.0" y2="1960"/><text style="font: 8px sans-serif;" x="1106.0" y="1945">S674</text><text style="font: 15px sans-serif;" x="40" y="2035">BIR1</text><rect stroke="#006FB0" stroke-width="1" x="100" y="2020" width="1431.0" height="20" fill="#B9E3FF"/><line stroke="#000000" stroke-width="1.5" x1="815.5" y1="2010" x2="815.5" y2="2020"/><text style="font: 8px sans-serif;" x="810.5" y="2005">S477</text><line stroke="#000000" stroke-width="1.5" x1="886.0" y1="2010" x2="886.0" y2="2020"/><text style="font: 8px sans-serif;" x="881.0" y="2005">S524</text><line stroke="#000000" stroke-width="1.5" x1="1060.0" y1="2010" x2="1060.0" y2="2020"/><text style="font: 8px sans-serif;" x="1055.0" y="2005">S640</text><text style="font: 15px sans-serif;" x="40" y="2095">BOI1</text><rect stroke="#006FB0" stroke-width="1" x="100" y="2080" width="1470.0" height="20" fill="#B9E3FF"/><line stroke="#000000" stroke-width="1.5" x1="256.0" y1="2070" x2="256.0" y2="2080"/><text style="font: 8px sans-serif;" x="251.0" y="2065">S104</text><text style="font: 15px sans-serif;" x="40" y="2155">DUO1</text><rect stroke="#006FB0" stroke-width="1" x="100" y="2140" width="370.5" height="20" fill="#B9E3FF"/><line stroke="#000000" stroke-width="1.5" x1="146.5" y1="2130" x2="146.5" y2="2140"/><text style="font: 8px sans-serif;" x="141.5" y="2125">T31</text><text style="font: 15px sans-serif;" x="40" y="2215">ASK1</text><rect stroke="#006FB0" stroke-width="1" x="100" y="2200" width="438.0" height="20" fill="#B9E3FF"/><line stroke="#000000" stroke-width="1.5" x1="466.0" y1="2190" x2="466.0" y2="2200"/><text style="font: 8px sans-serif;" x="461.0" y="2185">S244</text><text style="font: 15px sans-serif;" x="40" y="2275">AME1</text><rect stroke="#006FB0" stroke-width="1" x="100" y="2260" width="486.0" height="20" fill="#B9E3FF"/><line stroke="#000000" stroke-width="1.5" x1="167.5" y1="2250" x2="167.5" y2="2260"/><text style="font: 8px sans-serif;" x="162.5" y="2245">S45</text><line stroke="#000000" stroke-width="1.5" x1="179.5" y1="2250" x2="179.5" y2="2260"/><text style="font: 8px sans-serif;" x="174.5" y="2245">S53</text><text style="font: 15px sans-serif;" x="40" y="2335">TSC11</text><rect stroke="#006FB0" stroke-width="1" x="100" y="2320" width="2145.0" height="20" fill="#B9E3FF"/><line stroke="#000000" stroke-width="1.5" x1="230.5" y1="2310" x2="230.5" y2="2320"/><text style="font: 8px sans-serif;" x="225.5" y="2305">S87</text><text style="font: 15px sans-serif;" x="40" y="2395">CBF5</text><rect stroke="#006FB0" stroke-width="1" x="100" y="2380" width="724.5" height="20" fill="#B9E3FF"/><line stroke="#000000" stroke-width="1.5" x1="667.0" y1="2370" x2="667.0" y2="2380"/><text style="font: 8px sans-serif;" x="662.0" y="2365">T378</text><text style="font: 15px sans-serif;" x="40" y="2455">ACE2</text><rect stroke="#006FB0" stroke-width="1" x="100" y="2440" width="1155.0" height="20" fill="#B9E3FF"/><line stroke="#000000" stroke-width="1.5" x1="1163.5" y1="2430" x2="1163.5" y2="2440"/><text style="font: 8px sans-serif;" x="1158.5" y="2425">S709</text><text style="font: 15px sans-serif;" x="40" y="2515">SWI5</text><rect stroke="#006FB0" stroke-width="1" x="100" y="2500" width="1063.5" height="20" fill="#B9E3FF"/><line stroke="#000000" stroke-width="1.5" x1="838.0" y1="2490" x2="838.0" y2="2500"/><text style="font: 8px sans-serif;" x="833.0" y="2485">S492</text><line stroke="#000000" stroke-width="1.5" x1="857.5" y1="2490" x2="857.5" y2="2500"/><text style="font: 8px sans-serif;" x="852.5" y="2485">S505</text><text style="font: 15px sans-serif;" x="40" y="2575">UTP22</text><rect stroke="#006FB0" stroke-width="1" x="100" y="2560" width="1855.5" height="20" fill="#B9E3FF"/><line stroke="#000000" stroke-width="1.5" x1="190.0" y1="2550" x2="190.0" y2="2560"/><text style="font: 8px sans-serif;" x="185.0" y="2545">T60</text><text style="font: 15px sans-serif;" x="40" y="2635">PSH1</text><rect stroke="#006FB0" stroke-width="1" x="100" y="2620" width="609.0" height="20" fill="#B9E3FF"/><line stroke="#000000" stroke-width="1.5" x1="314.5" y1="2610" x2="314.5" y2="2620"/><text style="font: 8px sans-serif;" x="309.5" y="2605">S143</text><line stroke="#000000" stroke-width="1.5" x1="565.0" y1="2610" x2="565.0" y2="2620"/><text style="font: 8px sans-serif;" x="560.0" y="2605">T310</text><text style="font: 15px sans-serif;" x="40" y="2695">MSB1</text><rect stroke="#006FB0" stroke-width="1" x="100" y="2680" width="1705.5" height="20" fill="#B9E3FF"/><line stroke="#000000" stroke-width="1.5" x1="149.5" y1="2670" x2="149.5" y2="2680"/><text style="font: 8px sans-serif;" x="144.5" y="2665">S33</text><text style="font: 15px sans-serif;" x="40" y="2755">AVO2</text><rect stroke="#006FB0" stroke-width="1" x="100" y="2740" width="639.0" height="20" fill="#B9E3FF"/><line stroke="#000000" stroke-width="1.5" x1="599.5" y1="2730" x2="599.5" y2="2740"/><text style="font: 8px sans-serif;" x="594.5" y="2725">S333</text><text style="font: 15px sans-serif;" x="40" y="2815">MCM21</text><rect stroke="#006FB0" stroke-width="1" x="100" y="2800" width="552.0" height="20" fill="#B9E3FF"/><line stroke="#000000" stroke-width="1.5" x1="308.5" y1="2790" x2="308.5" y2="2800"/><text style="font: 8px sans-serif;" x="303.5" y="2785">S139</text><text style="font: 15px sans-serif;" x="40" y="2875">BEM2</text><rect stroke="#006FB0" stroke-width="1" x="100" y="2860" width="3250.5" height="20" fill="#B9E3FF"/><line stroke="#000000" stroke-width="1.5" x1="1618.0" y1="2850" x2="1618.0" y2="2860"/><text style="font: 8px sans-serif;" x="1613.0" y="2845">S1012</text><text style="font: 15px sans-serif;" x="40" y="2935">SIR2</text><rect stroke="#006FB0" stroke-width="1" x="100" y="2920" width="843.0" height="20" fill="#B9E3FF"/><line stroke="#000000" stroke-width="1.5" x1="134.5" y1="2910" x2="134.5" y2="2920"/><text style="font: 8px sans-serif;" x="129.5" y="2905">S23</text><text style="font: 15px sans-serif;" x="40" y="2995">DNF2</text><rect stroke="#006FB0" stroke-width="1" x="100" y="2980" width="2418.0" height="20" fill="#B9E3FF"/><line stroke="#000000" stroke-width="1.5" x1="2488.0" y1="2970" x2="2488.0" y2="2980"/><text style="font: 8px sans-serif;" x="2483.0" y="2965">S1592</text><text style="font: 15px sans-serif;" x="40" y="3055">LRS4</text><rect stroke="#006FB0" stroke-width="1" x="100" y="3040" width="520.5" height="20" fill="#B9E3FF"/><line stroke="#000000" stroke-width="1.5" x1="319.0" y1="3030" x2="319.0" y2="3040"/><text style="font: 8px sans-serif;" x="314.0" y="3025">S146</text><text style="font: 15px sans-serif;" x="40" y="3115">SAS10</text><rect stroke="#006FB0" stroke-width="1" x="100" y="3100" width="915.0" height="20" fill="#B9E3FF"/><line stroke="#000000" stroke-width="1.5" x1="815.5" y1="3090" x2="815.5" y2="3100"/><text style="font: 8px sans-serif;" x="810.5" y="3085">S477</text><text style="font: 15px sans-serif;" x="40" y="3175">GIN4</text><rect stroke="#006FB0" stroke-width="1" x="100" y="3160" width="1713.0" height="20" fill="#B9E3FF"/><line stroke="#000000" stroke-width="1.5" x1="793.0" y1="3150" x2="793.0" y2="3160"/><text style="font: 8px sans-serif;" x="788.0" y="3145">T462</text><text style="font: 15px sans-serif;" x="40" y="3235">RGA2</text><rect stroke="#006FB0" stroke-width="1" x="100" y="3220" width="1513.5" height="20" fill="#B9E3FF"/><line stroke="#000000" stroke-width="1.5" x1="1258.0" y1="3210" x2="1258.0" y2="3220"/><text style="font: 8px sans-serif;" x="1253.0" y="3205">S772</text><text style="font: 15px sans-serif;" x="40" y="3295">BOI2</text><rect stroke="#006FB0" stroke-width="1" x="100" y="3280" width="1560.0" height="20" fill="#B9E3FF"/><line stroke="#000000" stroke-width="1.5" x1="658.0" y1="3270" x2="658.0" y2="3280"/><text style="font: 8px sans-serif;" x="653.0" y="3265">T372</text><text style="font: 15px sans-serif;" x="40" y="3355">RPC19</text><rect stroke="#006FB0" stroke-width="1" x="100" y="3340" width="213.0" height="20" fill="#B9E3FF"/><line stroke="#000000" stroke-width="1.5" x1="149.5" y1="3330" x2="149.5" y2="3340"/><text style="font: 8px sans-serif;" x="144.5" y="3325">T33</text><text style="font: 15px sans-serif;" x="40" y="3415">RPG1</text><rect stroke="#006FB0" stroke-width="1" x="100" y="3400" width="1446.0" height="20" fill="#B9E3FF"/><line stroke="#000000" stroke-width="1.5" x1="1439.5" y1="3390" x2="1439.5" y2="3400"/><text style="font: 8px sans-serif;" x="1434.5" y="3385">S893</text><text style="font: 15px sans-serif;" x="40" y="3475">MYO5</text><rect stroke="#006FB0" stroke-width="1" x="100" y="3460" width="1828.5" height="20" fill="#B9E3FF"/><line stroke="#000000" stroke-width="1.5" x1="1264.0" y1="3450" x2="1264.0" y2="3460"/><text style="font: 8px sans-serif;" x="1259.0" y="3445">M776</text><text style="font: 15px sans-serif;" x="40" y="3535">SRP40</text><rect stroke="#006FB0" stroke-width="1" x="100" y="3520" width="609.0" height="20" fill="#B9E3FF"/><line stroke="#000000" stroke-width="1.5" x1="299.5" y1="3510" x2="299.5" y2="3520"/><text style="font: 8px sans-serif;" x="294.5" y="3505">S133</text><text style="font: 15px sans-serif;" x="40" y="3595">HRB1</text><rect stroke="#006FB0" stroke-width="1" x="100" y="3580" width="681.0" height="20" fill="#B9E3FF"/><line stroke="#000000" stroke-width="1.5" x1="140.5" y1="3570" x2="140.5" y2="3580"/><text style="font: 8px sans-serif;" x="135.5" y="3565">S27</text><text style="font: 15px sans-serif;" x="40" y="3655">ROM2</text><rect stroke="#006FB0" stroke-width="1" x="100" y="3640" width="2034.0" height="20" fill="#B9E3FF"/><line stroke="#000000" stroke-width="1.5" x1="661.0" y1="3630" x2="661.0" y2="3640"/><text style="font: 8px sans-serif;" x="656.0" y="3625">T374</text><text style="font: 15px sans-serif;" x="40" y="3715">PHO84</text><rect stroke="#006FB0" stroke-width="1" x="100" y="3700" width="880.5" height="20" fill="#B9E3FF"/><line stroke="#000000" stroke-width="1.5" x1="104.5" y1="3690" x2="104.5" y2="3700"/><text style="font: 8px sans-serif;" x="99.5" y="3685">S3</text><text style="font: 15px sans-serif;" x="40" y="3775">MYO3</text><rect stroke="#006FB0" stroke-width="1" x="100" y="3760" width="1908.0" height="20" fill="#B9E3FF"/><line stroke="#000000" stroke-width="1.5" x1="1264.0" y1="3750" x2="1264.0" y2="3760"/><text style="font: 8px sans-serif;" x="1259.0" y="3745">M776</text><text style="font: 15px sans-serif;" x="40" y="3835">GAL11</text><rect stroke="#006FB0" stroke-width="1" x="100" y="3820" width="1621.5" height="20" fill="#B9E3FF"/><line stroke="#000000" stroke-width="1.5" x1="1274.5" y1="3810" x2="1274.5" y2="3820"/><text style="font: 8px sans-serif;" x="1269.5" y="3805">S783</text><text style="font: 15px sans-serif;" x="40" y="3895">HSL1</text><rect stroke="#006FB0" stroke-width="1" x="100" y="3880" width="2277.0" height="20" fill="#B9E3FF"/><line stroke="#000000" stroke-width="1.5" x1="1399.0" y1="3870" x2="1399.0" y2="3880"/><text style="font: 8px sans-serif;" x="1394.0" y="3865">S866</text><text style="font: 15px sans-serif;" x="40" y="3955">SQS1</text><rect stroke="#006FB0" stroke-width="1" x="100" y="3940" width="1150.5" height="20" fill="#B9E3FF"/><line stroke="#000000" stroke-width="1.5" x1="257.5" y1="3930" x2="257.5" y2="3940"/><text style="font: 8px sans-serif;" x="252.5" y="3925">S105</text><text style="font: 15px sans-serif;" x="40" y="4015">GLK1</text><rect stroke="#006FB0" stroke-width="1" x="100" y="4000" width="750.0" height="20" fill="#B9E3FF"/><line stroke="#000000" stroke-width="1.5" x1="103.0" y1="3990" x2="103.0" y2="4000"/><text style="font: 8px sans-serif;" x="98.0" y="3985">S2</text><text style="font: 15px sans-serif;" x="40" y="4075">BUD22</text><rect stroke="#006FB0" stroke-width="1" x="100" y="4060" width="778.5" height="20" fill="#B9E3FF"/><line stroke="#000000" stroke-width="1.5" x1="485.5" y1="4050" x2="485.5" y2="4060"/><text style="font: 8px sans-serif;" x="480.5" y="4045">T257</text><text style="font: 15px sans-serif;" x="40" y="4135">KRI1</text><rect stroke="#006FB0" stroke-width="1" x="100" y="4120" width="886.5" height="20" fill="#B9E3FF"/><line stroke="#000000" stroke-width="1.5" x1="829.0" y1="4110" x2="829.0" y2="4120"/><text style="font: 8px sans-serif;" x="824.0" y="4105">S486</text><text style="font: 15px sans-serif;" x="40" y="4195">PDA1</text><rect stroke="#006FB0" stroke-width="1" x="100" y="4180" width="630.0" height="20" fill="#B9E3FF"/><line stroke="#000000" stroke-width="1.5" x1="569.5" y1="4170" x2="569.5" y2="4180"/><text style="font: 8px sans-serif;" x="564.5" y="4165">S313</text><text style="font: 15px sans-serif;" x="40" y="4255">PSP2</text><rect stroke="#006FB0" stroke-width="1" x="100" y="4240" width="889.5" height="20" fill="#B9E3FF"/><line stroke="#000000" stroke-width="1.5" x1="457.0" y1="4230" x2="457.0" y2="4240"/><text style="font: 8px sans-serif;" x="452.0" y="4225">S238</text><text style="font: 15px sans-serif;" x="40" y="4315">MTC5</text><rect stroke="#006FB0" stroke-width="1" x="100" y="4300" width="1722.0" height="20" fill="#B9E3FF"/><line stroke="#000000" stroke-width="1.5" x1="1492.0" y1="4290" x2="1492.0" y2="4300"/><text style="font: 8px sans-serif;" x="1487.0" y="4285">S928</text><text style="font: 15px sans-serif;" x="40" y="4375">BUD21</text><rect stroke="#006FB0" stroke-width="1" x="100" y="4360" width="321.0" height="20" fill="#B9E3FF"/><line stroke="#000000" stroke-width="1.5" x1="316.0" y1="4350" x2="316.0" y2="4360"/><text style="font: 8px sans-serif;" x="311.0" y="4345">S144</text><text style="font: 15px sans-serif;" x="40" y="4435">MCK1</text><rect stroke="#006FB0" stroke-width="1" x="100" y="4420" width="562.5" height="20" fill="#B9E3FF"/><line stroke="#000000" stroke-width="1.5" x1="403.0" y1="4410" x2="403.0" y2="4420"/><text style="font: 8px sans-serif;" x="398.0" y="4405">S202</text><text style="font: 15px sans-serif;" x="40" y="4495">MCM3</text><rect stroke="#006FB0" stroke-width="1" x="100" y="4480" width="1456.5" height="20" fill="#B9E3FF"/><line stroke="#000000" stroke-width="1.5" x1="1147.0" y1="4470" x2="1147.0" y2="4480"/><text style="font: 8px sans-serif;" x="1142.0" y="4465">T698</text></svg>