<svg xmlns="http://www.w3.org/2000/svg" width="3492.5" height="4160"><text style="font: 15px sans-serif;" x="40" y="175">SPC105</text><rect stroke="#006FB0" stroke-width="1" x="100" y="160" width="1375.5" height="20" fill="#B9E3FF"/><line stroke="#000000" stroke-width="1.5" x1="205.0" y1="150" x2="205.0" y2="160"/><text style="font: 8px sans-serif;" x="200.0" y="145">S70</text><line stroke="#000000" stroke-width="1.5" x1="215.5" y1="150" x2="215.5" y2="160"/><text style="font: 8px sans-serif;" x="210.5" y="145">S77</text><line stroke="#000000" stroke-width="1.5" x1="229.0" y1="150" x2="229.0" y2="160"/><text style="font: 8px sans-serif;" x="224.0" y="145">S86</text><line stroke="#000000" stroke-width="1.5" x1="314.5" y1="150" x2="314.5" y2="160"/><text style="font: 8px sans-serif;" x="309.5" y="145">T143</text><line stroke="#000000" stroke-width="1.5" x1="316.0" y1="150" x2="316.0" y2="160"/><text style="font: 8px sans-serif;" x="311.0" y="145">S144</text><line stroke="#000000" stroke-width="1.5" x1="337.0" y1="150" x2="337.0" y2="160"/><text style="font: 8px sans-serif;" x="332.0" y="145">S158</text><line stroke="#000000" stroke-width="1.5" x1="352.0" y1="150" x2="352.0" y2="160"/><text style="font: 8px sans-serif;" x="347.0" y="145">S168</text><line stroke="#000000" stroke-width="1.5" x1="487.0" y1="150" x2="487.0" y2="160"/><text style="font: 8px sans-serif;" x="482.0" y="145">S258</text><line stroke="#000000" stroke-width="1.5" x1="593.5" y1="150" x2="593.5" y2="160"/><text style="font: 8px sans-serif;" x="588.5" y="145">S329</text><line stroke="#000000" stroke-width="1.5" x1="629.5" y1="150" x2="629.5" y2="160"/><text style="font: 8px sans-serif;" x="624.5" y="145">S353</text><line stroke="#000000" stroke-width="1.5" x1="634.0" y1="150" x2="634.0" y2="160"/><text style="font: 8px sans-serif;" x="629.0" y="145">T356</text><line stroke="#000000" stroke-width="1.5" x1="670.0" y1="150" x2="670.0" y2="160"/><text style="font: 8px sans-serif;" x="665.0" y="145">S380</text><line stroke="#000000" stroke-width="1.5" x1="677.5" y1="150" x2="677.5" y2="160"/><text style="font: 8px sans-serif;" x="672.5" y="145">S385</text><line stroke="#000000" stroke-width="1.5" x1="721.0" y1="150" x2="721.0" y2="160"/><text style="font: 8px sans-serif;" x="716.0" y="145">T414</text><text style="font: 15px sans-serif;" x="40" y="235">NDC80</text><rect stroke="#006FB0" stroke-width="1" x="100" y="220" width="1036.5" height="20" fill="#B9E3FF"/><line stroke="#000000" stroke-width="1.5" x1="155.5" y1="210" x2="155.5" y2="220"/><text style="font: 8px sans-serif;" x="150.5" y="205">S37</text><line stroke="#000000" stroke-width="1.5" x1="245.5" y1="210" x2="245.5" y2="220"/><text style="font: 8px sans-serif;" x="240.5" y="205">S97</text><line stroke="#000000" stroke-width="1.5" x1="830.5" y1="210" x2="830.5" y2="220"/><text style="font: 8px sans-serif;" x="825.5" y="205">S487</text><line stroke="#000000" stroke-width="1.5" x1="1135.0" y1="210" x2="1135.0" y2="220"/><text style="font: 8px sans-serif;" x="1130.0" y="205">T690</text><text style="font: 15px sans-serif;" x="40" y="295">STU2</text><rect stroke="#006FB0" stroke-width="1" x="100" y="280" width="1332.0" height="20" fill="#B9E3FF"/><line stroke="#000000" stroke-width="1.5" x1="515.5" y1="270" x2="515.5" y2="280"/><text style="font: 8px sans-serif;" x="510.5" y="265">S277</text><line stroke="#000000" stroke-width="1.5" x1="1004.5" y1="270" x2="1004.5" y2="280"/><text style="font: 8px sans-serif;" x="999.5" y="265">S603</text><line stroke="#000000" stroke-width="1.5" x1="1319.5" y1="270" x2="1319.5" y2="280"/><text style="font: 8px sans-serif;" x="1314.5" y="265">S813</text><line stroke="#000000" stroke-width="1.5" x1="1322.5" y1="270" x2="1322.5" y2="280"/><text style="font: 8px sans-serif;" x="1317.5" y="265">S815</text><text style="font: 15px sans-serif;" x="40" y="355">DSN1</text><rect stroke="#006FB0" stroke-width="1" x="100" y="340" width="864.0" height="20" fill="#B9E3FF"/><line stroke="#000000" stroke-width="1.5" x1="118.0" y1="330" x2="118.0" y2="340"/><text style="font: 8px sans-serif;" x="113.0" y="325">T12</text><line stroke="#000000" stroke-width="1.5" x1="203.5" y1="330" x2="203.5" y2="340"/><text style="font: 8px sans-serif;" x="198.5" y="325">S69</text><line stroke="#000000" stroke-width="1.5" x1="475.0" y1="330" x2="475.0" y2="340"/><text style="font: 8px sans-serif;" x="470.0" y="325">S250</text><line stroke="#000000" stroke-width="1.5" x1="496.0" y1="330" x2="496.0" y2="340"/><text style="font: 8px sans-serif;" x="491.0" y="325">S264</text><line stroke="#000000" stroke-width="1.5" x1="670.0" y1="330" x2="670.0" y2="340"/><text style="font: 8px sans-serif;" x="665.0" y="325">T380</text><line stroke="#000000" stroke-width="1.5" x1="931.0" y1="330" x2="931.0" y2="340"/><text style="font: 8px sans-serif;" x="926.0" y="325">S554</text><text style="font: 15px sans-serif;" x="40" y="415">MPS1</text><rect stroke="#006FB0" stroke-width="1" x="100" y="400" width="1146.0" height="20" fill="#B9E3FF"/><line stroke="#000000" stroke-width="1.5" x1="107.5" y1="390" x2="107.5" y2="400"/><text style="font: 8px sans-serif;" x="102.5" y="385">S5</text><line stroke="#000000" stroke-width="1.5" x1="127.0" y1="390" x2="127.0" y2="400"/><text style="font: 8px sans-serif;" x="122.0" y="385">T18</text><line stroke="#000000" stroke-width="1.5" x1="133.0" y1="390" x2="133.0" y2="400"/><text style="font: 8px sans-serif;" x="128.0" y="385">S22</text><line stroke="#000000" stroke-width="1.5" x1="172.0" y1="390" x2="172.0" y2="400"/><text style="font: 8px sans-serif;" x="167.0" y="385">S48</text><line stroke="#000000" stroke-width="1.5" x1="181.0" y1="390" x2="181.0" y2="400"/><text style="font: 8px sans-serif;" x="176.0" y="385">S54</text><line stroke="#000000" stroke-width="1.5" x1="206.5" y1="390" x2="206.5" y2="400"/><text style="font: 8px sans-serif;" x="201.5" y="385">S71</text><line stroke="#000000" stroke-width="1.5" x1="238.0" y1="390" x2="238.0" y2="400"/><text style="font: 8px sans-serif;" x="233.0" y="385">S92</text><line stroke="#000000" stroke-width="1.5" x1="293.5" y1="390" x2="293.5" y2="400"/><text style="font: 8px sans-serif;" x="288.5" y="385">S129</text><line stroke="#000000" stroke-width="1.5" x1="559.0" y1="390" x2="559.0" y2="400"/><text style="font: 8px sans-serif;" x="554.0" y="385">S306</text><line stroke="#000000" stroke-width="1.5" x1="571.0" y1="390" x2="571.0" y2="400"/><text style="font: 8px sans-serif;" x="566.0" y="385">S314</text><line stroke="#000000" stroke-width="1.5" x1="598.0" y1="390" x2="598.0" y2="400"/><text style="font: 8px sans-serif;" x="593.0" y="385">S332</text><line stroke="#000000" stroke-width="1.5" x1="604.0" y1="390" x2="604.0" y2="400"/><text style="font: 8px sans-serif;" x="599.0" y="385">S336</text><line stroke="#000000" stroke-width="1.5" x1="644.5" y1="390" x2="644.5" y2="400"/><text style="font: 8px sans-serif;" x="639.5" y="385">S363</text><line stroke="#000000" stroke-width="1.5" x1="674.5" y1="390" x2="674.5" y2="400"/><text style="font: 8px sans-serif;" x="669.5" y="385">S383</text><line stroke="#000000" stroke-width="1.5" x1="1231.0" y1="390" x2="1231.0" y2="400"/><text style="font: 8px sans-serif;" x="1226.0" y="385">T754</text><text style="font: 15px sans-serif;" x="40" y="475">UBR2</text><rect stroke="#006FB0" stroke-width="1" x="100" y="460" width="2808.0" height="20" fill="#B9E3FF"/><line stroke="#000000" stroke-width="1.5" x1="691.0" y1="450" x2="691.0" y2="460"/><text style="font: 8px sans-serif;" x="686.0" y="445">S394</text><line stroke="#000000" stroke-width="1.5" x1="1927.0" y1="450" x2="1927.0" y2="460"/><text style="font: 8px sans-serif;" x="1922.0" y="445">S1218</text><text style="font: 15px sans-serif;" x="40" y="535">NET1</text><rect stroke="#006FB0" stroke-width="1" x="100" y="520" width="1783.5" height="20" fill="#B9E3FF"/><line stroke="#000000" stroke-width="1.5" x1="190.0" y1="510" x2="190.0" y2="520"/><text style="font: 8px sans-serif;" x="185.0" y="505">S60</text><line stroke="#000000" stroke-width="1.5" x1="446.5" y1="510" x2="446.5" y2="520"/><text style="font: 8px sans-serif;" x="441.5" y="505">S231</text><line stroke="#000000" stroke-width="1.5" x1="845.5" y1="510" x2="845.5" y2="520"/><text style="font: 8px sans-serif;" x="840.5" y="505">S497</text><line stroke="#000000" stroke-width="1.5" x1="1360.0" y1="510" x2="1360.0" y2="520"/><text style="font: 8px sans-serif;" x="1355.0" y="505">S840</text><line stroke="#000000" stroke-width="1.5" x1="1648.0" y1="510" x2="1648.0" y2="520"/><text style="font: 8px sans-serif;" x="1643.0" y="505">S1032</text><line stroke="#000000" stroke-width="1.5" x1="1723.0" y1="510" x2="1723.0" y2="520"/><text style="font: 8px sans-serif;" x="1718.0" y="505">S1082</text><line stroke="#000000" stroke-width="1.5" x1="1726.0" y1="510" x2="1726.0" y2="520"/><text style="font: 8px sans-serif;" x="1721.0" y="505">S1084</text><text style="font: 15px sans-serif;" x="40" y="595">YPR137C-B</text><rect stroke="#006FB0" stroke-width="1" x="100" y="580" width="2632.5" height="20" fill="#B9E3FF"/><line stroke="#000000" stroke-width="1.5" x1="1721.5" y1="570" x2="1721.5" y2="580"/><text style="font: 8px sans-serif;" x="1716.5" y="565">S1081</text><line stroke="#000000" stroke-width="1.5" x1="1742.5" y1="570" x2="1742.5" y2="580"/><text style="font: 8px sans-serif;" x="1737.5" y="565">S1095</text><text style="font: 15px sans-serif;" x="40" y="655">YPR158W-B</text><rect stroke="#006FB0" stroke-width="1" x="100" y="640" width="2634.0" height="20" fill="#B9E3FF"/><line stroke="#000000" stroke-width="1.5" x1="1721.5" y1="630" x2="1721.5" y2="640"/><text style="font: 8px sans-serif;" x="1716.5" y="625">I1081</text><line stroke="#000000" stroke-width="1.5" x1="1742.5" y1="630" x2="1742.5" y2="640"/><text style="font: 8px sans-serif;" x="1737.5" y="625">P1095</text><text style="font: 15px sans-serif;" x="40" y="715">YML039W</text><rect stroke="#006FB0" stroke-width="1" x="100" y="700" width="2632.5" height="20" fill="#B9E3FF"/><line stroke="#000000" stroke-width="1.5" x1="1721.5" y1="690" x2="1721.5" y2="700"/><text style="font: 8px sans-serif;" x="1716.5" y="685">S1081</text><line stroke="#000000" stroke-width="1.5" x1="1742.5" y1="690" x2="1742.5" y2="700"/><text style="font: 8px sans-serif;" x="1737.5" y="685">S1095</text><text style="font: 15px sans-serif;" x="40" y="775">MIF2</text><rect stroke="#006FB0" stroke-width="1" x="100" y="760" width="823.5" height="20" fill="#B9E3FF"/><line stroke="#000000" stroke-width="1.5" x1="181.0" y1="750" x2="181.0" y2="760"/><text style="font: 8px sans-serif;" x="176.0" y="745">S54</text><line stroke="#000000" stroke-width="1.5" x1="349.0" y1="750" x2="349.0" y2="760"/><text style="font: 8px sans-serif;" x="344.0" y="745">T166</text><line stroke="#000000" stroke-width="1.5" x1="587.5" y1="750" x2="587.5" y2="760"/><text style="font: 8px sans-serif;" x="582.5" y="745">S325</text><text style="font: 15px sans-serif;" x="40" y="835">FIN1</text><rect stroke="#006FB0" stroke-width="1" x="100" y="820" width="436.5" height="20" fill="#B9E3FF"/><line stroke="#000000" stroke-width="1.5" x1="154.0" y1="810" x2="154.0" y2="820"/><text style="font: 8px sans-serif;" x="149.0" y="805">S36</text><line stroke="#000000" stroke-width="1.5" x1="181.0" y1="810" x2="181.0" y2="820"/><text style="font: 8px sans-serif;" x="176.0" y="805">S54</text><line stroke="#000000" stroke-width="1.5" x1="275.5" y1="810" x2="275.5" y2="820"/><text style="font: 8px sans-serif;" x="270.5" y="805">S117</text><line stroke="#000000" stroke-width="1.5" x1="322.0" y1="810" x2="322.0" y2="820"/><text style="font: 8px sans-serif;" x="317.0" y="805">S148</text><text style="font: 15px sans-serif;" x="40" y="895">SLK19</text><rect stroke="#006FB0" stroke-width="1" x="100" y="880" width="1231.5" height="20" fill="#B9E3FF"/><line stroke="#000000" stroke-width="1.5" x1="497.5" y1="870" x2="497.5" y2="880"/><text style="font: 8px sans-serif;" x="492.5" y="865">T265</text><line stroke="#000000" stroke-width="1.5" x1="509.5" y1="870" x2="509.5" y2="880"/><text style="font: 8px sans-serif;" x="504.5" y="865">T273</text><line stroke="#000000" stroke-width="1.5" x1="524.5" y1="870" x2="524.5" y2="880"/><text style="font: 8px sans-serif;" x="519.5" y="865">S283</text><text style="font: 15px sans-serif;" x="40" y="955">YDR261C-D</text><rect stroke="#006FB0" stroke-width="1" x="100" y="940" width="2406.0" height="20" fill="#B9E3FF"/><line stroke="#000000" stroke-width="1.5" x1="1721.5" y1="930" x2="1721.5" y2="940"/><text style="font: 8px sans-serif;" x="1716.5" y="925">S1081</text><line stroke="#000000" stroke-width="1.5" x1="1742.5" y1="930" x2="1742.5" y2="940"/><text style="font: 8px sans-serif;" x="1737.5" y="925">S1095</text><text style="font: 15px sans-serif;" x="40" y="1015">YPR158C-D</text><rect stroke="#006FB0" stroke-width="1" x="100" y="1000" width="2632.5" height="20" fill="#B9E3FF"/><line stroke="#000000" stroke-width="1.5" x1="1721.5" y1="990" x2="1721.5" y2="1000"/><text style="font: 8px sans-serif;" x="1716.5" y="985">S1081</text><line stroke="#000000" stroke-width="1.5" x1="1742.5" y1="990" x2="1742.5" y2="1000"/><text style="font: 8px sans-serif;" x="1737.5" y="985">S1095</text><text style="font: 15px sans-serif;" x="40" y="1075">YDR210C-D</text><rect stroke="#006FB0" stroke-width="1" x="100" y="1060" width="2632.5" height="20" fill="#B9E3FF"/><line stroke="#000000" stroke-width="1.5" x1="1721.5" y1="1050" x2="1721.5" y2="1060"/><text style="font: 8px sans-serif;" x="1716.5" y="1045">S1081</text><line stroke="#000000" stroke-width="1.5" x1="1742.5" y1="1050" x2="1742.5" y2="1060"/><text style="font: 8px sans-serif;" x="1737.5" y="1045">S1095</text><text style="font: 15px sans-serif;" x="40" y="1135">SPC24</text><rect stroke="#006FB0" stroke-width="1" x="100" y="1120" width="319.5" height="20" fill="#B9E3FF"/><line stroke="#000000" stroke-width="1.5" x1="295.0" y1="1110" x2="295.0" y2="1120"/><text style="font: 8px sans-serif;" x="290.0" y="1105">T130</text><line stroke="#000000" stroke-width="1.5" x1="301.0" y1="1110" x2="301.0" y2="1120"/><text style="font: 8px sans-serif;" x="296.0" y="1105">S134</text><line stroke="#000000" stroke-width="1.5" x1="328.0" y1="1110" x2="328.0" y2="1120"/><text style="font: 8px sans-serif;" x="323.0" y="1105">T152</text><text style="font: 15px sans-serif;" x="40" y="1195">KRE28</text><rect stroke="#006FB0" stroke-width="1" x="100" y="1180" width="577.5" height="20" fill="#B9E3FF"/><line stroke="#000000" stroke-width="1.5" x1="422.5" y1="1170" x2="422.5" y2="1180"/><text style="font: 8px sans-serif;" x="417.5" y="1165">S215</text><text style="font: 15px sans-serif;" x="40" y="1255">OKP1</text><rect stroke="#006FB0" stroke-width="1" x="100" y="1240" width="609.0" height="20" fill="#B9E3FF"/><line stroke="#000000" stroke-width="1.5" x1="205.0" y1="1230" x2="205.0" y2="1240"/><text style="font: 8px sans-serif;" x="200.0" y="1225">S70</text><line stroke="#000000" stroke-width="1.5" x1="280.0" y1="1230" x2="280.0" y2="1240"/><text style="font: 8px sans-serif;" x="275.0" y="1225">S120</text><line stroke="#000000" stroke-width="1.5" x1="701.5" y1="1230" x2="701.5" y2="1240"/><text style="font: 8px sans-serif;" x="696.5" y="1225">T401</text><text style="font: 15px sans-serif;" x="40" y="1315">MUB1</text><rect stroke="#006FB0" stroke-width="1" x="100" y="1300" width="930.0" height="20" fill="#B9E3FF"/><line stroke="#000000" stroke-width="1.5" x1="479.5" y1="1290" x2="479.5" y2="1300"/><text style="font: 8px sans-serif;" x="474.5" y="1285">S253</text><text style="font: 15px sans-serif;" x="40" y="1375">NSL1</text><rect stroke="#006FB0" stroke-width="1" x="100" y="1360" width="324.0" height="20" fill="#B9E3FF"/><line stroke="#000000" stroke-width="1.5" x1="349.0" y1="1350" x2="349.0" y2="1360"/><text style="font: 8px sans-serif;" x="344.0" y="1345">T166</text><text style="font: 15px sans-serif;" x="40" y="1435">RGA1</text><rect stroke="#006FB0" stroke-width="1" x="100" y="1420" width="1510.5" height="20" fill="#B9E3FF"/><line stroke="#000000" stroke-width="1.5" x1="767.5" y1="1410" x2="767.5" y2="1420"/><text style="font: 8px sans-serif;" x="762.5" y="1405">S445</text><line stroke="#000000" stroke-width="1.5" x1="881.5" y1="1410" x2="881.5" y2="1420"/><text style="font: 8px sans-serif;" x="876.5" y="1405">S521</text><text style="font: 15px sans-serif;" x="40" y="1495">BUB1</text><rect stroke="#006FB0" stroke-width="1" x="100" y="1480" width="1531.5" height="20" fill="#B9E3FF"/><line stroke="#000000" stroke-width="1.5" x1="121.0" y1="1470" x2="121.0" y2="1480"/><text style="font: 8px sans-serif;" x="116.0" y="1465">S14</text><line stroke="#000000" stroke-width="1.5" x1="949.0" y1="1470" x2="949.0" y2="1480"/><text style="font: 8px sans-serif;" x="944.0" y="1465">T566</text><text style="font: 15px sans-serif;" x="40" y="1555">SPC25</text><rect stroke="#006FB0" stroke-width="1" x="100" y="1540" width="331.5" height="20" fill="#B9E3FF"/><line stroke="#000000" stroke-width="1.5" x1="250.0" y1="1530" x2="250.0" y2="1540"/><text style="font: 8px sans-serif;" x="245.0" y="1525">S100</text><text style="font: 15px sans-serif;" x="40" y="1615">SLI15</text><rect stroke="#006FB0" stroke-width="1" x="100" y="1600" width="1047.0" height="20" fill="#B9E3FF"/><line stroke="#000000" stroke-width="1.5" x1="205.0" y1="1590" x2="205.0" y2="1600"/><text style="font: 8px sans-serif;" x="200.0" y="1585">S70</text><line stroke="#000000" stroke-width="1.5" x1="520.0" y1="1590" x2="520.0" y2="1600"/><text style="font: 8px sans-serif;" x="515.0" y="1585">S280</text><line stroke="#000000" stroke-width="1.5" x1="731.5" y1="1590" x2="731.5" y2="1600"/><text style="font: 8px sans-serif;" x="726.5" y="1585">S421</text><line stroke="#000000" stroke-width="1.5" x1="758.5" y1="1590" x2="758.5" y2="1600"/><text style="font: 8px sans-serif;" x="753.5" y="1585">S439</text><line stroke="#000000" stroke-width="1.5" x1="947.5" y1="1590" x2="947.5" y2="1600"/><text style="font: 8px sans-serif;" x="942.5" y="1585">S565</text><line stroke="#000000" stroke-width="1.5" x1="1027.0" y1="1590" x2="1027.0" y2="1600"/><text style="font: 8px sans-serif;" x="1022.0" y="1585">T618</text><text style="font: 15px sans-serif;" x="40" y="1675">CBF5</text><rect stroke="#006FB0" stroke-width="1" x="100" y="1660" width="724.5" height="20" fill="#B9E3FF"/><line stroke="#000000" stroke-width="1.5" x1="667.0" y1="1650" x2="667.0" y2="1660"/><text style="font: 8px sans-serif;" x="662.0" y="1645">T378</text><text style="font: 15px sans-serif;" x="40" y="1735">ALK1</text><rect stroke="#006FB0" stroke-width="1" x="100" y="1720" width="1140.0" height="20" fill="#B9E3FF"/><line stroke="#000000" stroke-width="1.5" x1="626.5" y1="1710" x2="626.5" y2="1720"/><text style="font: 8px sans-serif;" x="621.5" y="1705">S351</text><text style="font: 15px sans-serif;" x="40" y="1795">UTP22</text><rect stroke="#006FB0" stroke-width="1" x="100" y="1780" width="1855.5" height="20" fill="#B9E3FF"/><line stroke="#000000" stroke-width="1.5" x1="187.0" y1="1770" x2="187.0" y2="1780"/><text style="font: 8px sans-serif;" x="182.0" y="1765">S58</text><text style="font: 15px sans-serif;" x="40" y="1855">ASK1</text><rect stroke="#006FB0" stroke-width="1" x="100" y="1840" width="438.0" height="20" fill="#B9E3FF"/><line stroke="#000000" stroke-width="1.5" x1="382.0" y1="1830" x2="382.0" y2="1840"/><text style="font: 8px sans-serif;" x="377.0" y="1825">S188</text><line stroke="#000000" stroke-width="1.5" x1="400.0" y1="1830" x2="400.0" y2="1840"/><text style="font: 8px sans-serif;" x="395.0" y="1825">S200</text><line stroke="#000000" stroke-width="1.5" x1="466.0" y1="1830" x2="466.0" y2="1840"/><text style="font: 8px sans-serif;" x="461.0" y="1825">S244</text><text style="font: 15px sans-serif;" x="40" y="1915">RIF1</text><rect stroke="#006FB0" stroke-width="1" x="100" y="1900" width="2874.0" height="20" fill="#B9E3FF"/><line stroke="#000000" stroke-width="1.5" x1="2555.5" y1="1890" x2="2555.5" y2="1900"/><text style="font: 8px sans-serif;" x="2550.5" y="1885">S1637</text><text style="font: 15px sans-serif;" x="40" y="1975">CDC14</text><rect stroke="#006FB0" stroke-width="1" x="100" y="1960" width="826.5" height="20" fill="#B9E3FF"/><line stroke="#000000" stroke-width="1.5" x1="689.5" y1="1950" x2="689.5" y2="1960"/><text style="font: 8px sans-serif;" x="684.5" y="1945">T393</text><line stroke="#000000" stroke-width="1.5" x1="800.5" y1="1950" x2="800.5" y2="1960"/><text style="font: 8px sans-serif;" x="795.5" y="1945">S467</text><line stroke="#000000" stroke-width="1.5" x1="862.0" y1="1950" x2="862.0" y2="1960"/><text style="font: 8px sans-serif;" x="857.0" y="1945">T508</text><text style="font: 15px sans-serif;" x="40" y="2035">MCM21</text><rect stroke="#006FB0" stroke-width="1" x="100" y="2020" width="552.0" height="20" fill="#B9E3FF"/><line stroke="#000000" stroke-width="1.5" x1="307.0" y1="2010" x2="307.0" y2="2020"/><text style="font: 8px sans-serif;" x="302.0" y="2005">T138</text><line stroke="#000000" stroke-width="1.5" x1="308.5" y1="2010" x2="308.5" y2="2020"/><text style="font: 8px sans-serif;" x="303.5" y="2005">S139</text><text style="font: 15px sans-serif;" x="40" y="2095">PRP43</text><rect stroke="#006FB0" stroke-width="1" x="100" y="2080" width="1150.5" height="20" fill="#B9E3FF"/><line stroke="#000000" stroke-width="1.5" x1="112.0" y1="2070" x2="112.0" y2="2080"/><text style="font: 8px sans-serif;" x="107.0" y="2065">S8</text><text style="font: 15px sans-serif;" x="40" y="2155">DAM1</text><rect stroke="#006FB0" stroke-width="1" x="100" y="2140" width="514.5" height="20" fill="#B9E3FF"/><line stroke="#000000" stroke-width="1.5" x1="134.5" y1="2130" x2="134.5" y2="2140"/><text style="font: 8px sans-serif;" x="129.5" y="2125">S23</text><line stroke="#000000" stroke-width="1.5" x1="146.5" y1="2130" x2="146.5" y2="2140"/><text style="font: 8px sans-serif;" x="141.5" y="2125">S31</text><text style="font: 15px sans-serif;" x="40" y="2215">SEC16</text><rect stroke="#006FB0" stroke-width="1" x="100" y="2200" width="3292.5" height="20" fill="#B9E3FF"/><line stroke="#000000" stroke-width="1.5" x1="1111.0" y1="2190" x2="1111.0" y2="2200"/><text style="font: 8px sans-serif;" x="1106.0" y="2185">S674</text><text style="font: 15px sans-serif;" x="40" y="2275">TCO89</text><rect stroke="#006FB0" stroke-width="1" x="100" y="2260" width="1198.5" height="20" fill="#B9E3FF"/><line stroke="#000000" stroke-width="1.5" x1="256.0" y1="2250" x2="256.0" y2="2260"/><text style="font: 8px sans-serif;" x="251.0" y="2245">S104</text><text style="font: 15px sans-serif;" x="40" y="2335">AME1</text><rect stroke="#006FB0" stroke-width="1" x="100" y="2320" width="486.0" height="20" fill="#B9E3FF"/><line stroke="#000000" stroke-width="1.5" x1="161.5" y1="2310" x2="161.5" y2="2320"/><text style="font: 8px sans-serif;" x="156.5" y="2305">S41</text><line stroke="#000000" stroke-width="1.5" x1="167.5" y1="2310" x2="167.5" y2="2320"/><text style="font: 8px sans-serif;" x="162.5" y="2305">S45</text><line stroke="#000000" stroke-width="1.5" x1="179.5" y1="2310" x2="179.5" y2="2320"/><text style="font: 8px sans-serif;" x="174.5" y="2305">S53</text><line stroke="#000000" stroke-width="1.5" x1="188.5" y1="2310" x2="188.5" y2="2320"/><text style="font: 8px sans-serif;" x="183.5" y="2305">S59</text><text style="font: 15px sans-serif;" x="40" y="2395">NOP13</text><rect stroke="#006FB0" stroke-width="1" x="100" y="2380" width="604.5" height="20" fill="#B9E3FF"/><line stroke="#000000" stroke-width="1.5" x1="103.0" y1="2370" x2="103.0" y2="2380"/><text style="font: 8px sans-serif;" x="98.0" y="2365">S2</text><text style="font: 15px sans-serif;" x="40" y="2455">AVO1</text><rect stroke="#006FB0" stroke-width="1" x="100" y="2440" width="1764.0" height="20" fill="#B9E3FF"/><line stroke="#000000" stroke-width="1.5" x1="943.0" y1="2430" x2="943.0" y2="2440"/><text style="font: 8px sans-serif;" x="938.0" y="2425">S562</text><text style="font: 15px sans-serif;" x="40" y="2515">SPC19</text><rect stroke="#006FB0" stroke-width="1" x="100" y="2500" width="247.5" height="20" fill="#B9E3FF"/><line stroke="#000000" stroke-width="1.5" x1="274.0" y1="2490" x2="274.0" y2="2500"/><text style="font: 8px sans-serif;" x="269.0" y="2485">S116</text><text style="font: 15px sans-serif;" x="40" y="2575">EDC3</text><rect stroke="#006FB0" stroke-width="1" x="100" y="2560" width="826.5" height="20" fill="#B9E3FF"/><line stroke="#000000" stroke-width="1.5" x1="491.5" y1="2550" x2="491.5" y2="2560"/><text style="font: 8px sans-serif;" x="486.5" y="2545">S261</text><text style="font: 15px sans-serif;" x="40" y="2635">PWP2</text><rect stroke="#006FB0" stroke-width="1" x="100" y="2620" width="1384.5" height="20" fill="#B9E3FF"/><line stroke="#000000" stroke-width="1.5" x1="448.0" y1="2610" x2="448.0" y2="2620"/><text style="font: 8px sans-serif;" x="443.0" y="2605">S232</text><text style="font: 15px sans-serif;" x="40" y="2695">PSH1</text><rect stroke="#006FB0" stroke-width="1" x="100" y="2680" width="609.0" height="20" fill="#B9E3FF"/><line stroke="#000000" stroke-width="1.5" x1="314.5" y1="2670" x2="314.5" y2="2680"/><text style="font: 8px sans-serif;" x="309.5" y="2665">S143</text><line stroke="#000000" stroke-width="1.5" x1="386.5" y1="2670" x2="386.5" y2="2680"/><text style="font: 8px sans-serif;" x="381.5" y="2665">S191</text><line stroke="#000000" stroke-width="1.5" x1="565.0" y1="2670" x2="565.0" y2="2680"/><text style="font: 8px sans-serif;" x="560.0" y="2665">T310</text><text style="font: 15px sans-serif;" x="40" y="2755">EPO1</text><rect stroke="#006FB0" stroke-width="1" x="100" y="2740" width="1414.5" height="20" fill="#B9E3FF"/><line stroke="#000000" stroke-width="1.5" x1="982.0" y1="2730" x2="982.0" y2="2740"/><text style="font: 8px sans-serif;" x="977.0" y="2725">S588</text><text style="font: 15px sans-serif;" x="40" y="2815">RPC19</text><rect stroke="#006FB0" stroke-width="1" x="100" y="2800" width="213.0" height="20" fill="#B9E3FF"/><line stroke="#000000" stroke-width="1.5" x1="149.5" y1="2790" x2="149.5" y2="2800"/><text style="font: 8px sans-serif;" x="144.5" y="2785">T33</text><text style="font: 15px sans-serif;" x="40" y="2875">GAL11</text><rect stroke="#006FB0" stroke-width="1" x="100" y="2860" width="1621.5" height="20" fill="#B9E3FF"/><line stroke="#000000" stroke-width="1.5" x1="1274.5" y1="2850" x2="1274.5" y2="2860"/><text style="font: 8px sans-serif;" x="1269.5" y="2845">S783</text><text style="font: 15px sans-serif;" x="40" y="2935">SRP40</text><rect stroke="#006FB0" stroke-width="1" x="100" y="2920" width="609.0" height="20" fill="#B9E3FF"/><line stroke="#000000" stroke-width="1.5" x1="299.5" y1="2910" x2="299.5" y2="2920"/><text style="font: 8px sans-serif;" x="294.5" y="2905">S133</text><text style="font: 15px sans-serif;" x="40" y="2995">ACE2</text><rect stroke="#006FB0" stroke-width="1" x="100" y="2980" width="1155.0" height="20" fill="#B9E3FF"/><line stroke="#000000" stroke-width="1.5" x1="220.0" y1="2970" x2="220.0" y2="2980"/><text style="font: 8px sans-serif;" x="215.0" y="2965">S80</text><line stroke="#000000" stroke-width="1.5" x1="1163.5" y1="2970" x2="1163.5" y2="2980"/><text style="font: 8px sans-serif;" x="1158.5" y="2965">S709</text><text style="font: 15px sans-serif;" x="40" y="3055">SIR2</text><rect stroke="#006FB0" stroke-width="1" x="100" y="3040" width="843.0" height="20" fill="#B9E3FF"/><line stroke="#000000" stroke-width="1.5" x1="134.5" y1="3030" x2="134.5" y2="3040"/><text style="font: 8px sans-serif;" x="129.5" y="3025">S23</text><text style="font: 15px sans-serif;" x="40" y="3115">DAD1</text><rect stroke="#006FB0" stroke-width="1" x="100" y="3100" width="141.0" height="20" fill="#B9E3FF"/><line stroke="#000000" stroke-width="1.5" x1="212.5" y1="3090" x2="212.5" y2="3100"/><text style="font: 8px sans-serif;" x="207.5" y="3085">S75</text><text style="font: 15px sans-serif;" x="40" y="3175">SAS10</text><rect stroke="#006FB0" stroke-width="1" x="100" y="3160" width="915.0" height="20" fill="#B9E3FF"/><line stroke="#000000" stroke-width="1.5" x1="824.5" y1="3150" x2="824.5" y2="3160"/><text style="font: 8px sans-serif;" x="819.5" y="3145">S483</text><text style="font: 15px sans-serif;" x="40" y="3235">TSC11</text><rect stroke="#006FB0" stroke-width="1" x="100" y="3220" width="2145.0" height="20" fill="#B9E3FF"/><line stroke="#000000" stroke-width="1.5" x1="230.5" y1="3210" x2="230.5" y2="3220"/><text style="font: 8px sans-serif;" x="225.5" y="3205">S87</text><text style="font: 15px sans-serif;" x="40" y="3295">LEO1</text><rect stroke="#006FB0" stroke-width="1" x="100" y="3280" width="696.0" height="20" fill="#B9E3FF"/><line stroke="#000000" stroke-width="1.5" x1="298.0" y1="3270" x2="298.0" y2="3280"/><text style="font: 8px sans-serif;" x="293.0" y="3265">S132</text><text style="font: 15px sans-serif;" x="40" y="3355">PAF1</text><rect stroke="#006FB0" stroke-width="1" x="100" y="3340" width="667.5" height="20" fill="#B9E3FF"/><line stroke="#000000" stroke-width="1.5" x1="320.5" y1="3330" x2="320.5" y2="3340"/><text style="font: 8px sans-serif;" x="315.5" y="3325">S147</text><text style="font: 15px sans-serif;" x="40" y="3415">IES1</text><rect stroke="#006FB0" stroke-width="1" x="100" y="3400" width="1038.0" height="20" fill="#B9E3FF"/><line stroke="#000000" stroke-width="1.5" x1="950.5" y1="3390" x2="950.5" y2="3400"/><text style="font: 8px sans-serif;" x="945.5" y="3385">T567</text><text style="font: 15px sans-serif;" x="40" y="3475">ASE1</text><rect stroke="#006FB0" stroke-width="1" x="100" y="3460" width="1327.5" height="20" fill="#B9E3FF"/><line stroke="#000000" stroke-width="1.5" x1="397.0" y1="3450" x2="397.0" y2="3460"/><text style="font: 8px sans-serif;" x="392.0" y="3445">S198</text><text style="font: 15px sans-serif;" x="40" y="3535">PAT1</text><rect stroke="#006FB0" stroke-width="1" x="100" y="3520" width="1194.0" height="20" fill="#B9E3FF"/><line stroke="#000000" stroke-width="1.5" x1="785.5" y1="3510" x2="785.5" y2="3520"/><text style="font: 8px sans-serif;" x="780.5" y="3505">S457</text><text style="font: 15px sans-serif;" x="40" y="3595">BUD22</text><rect stroke="#006FB0" stroke-width="1" x="100" y="3580" width="778.5" height="20" fill="#B9E3FF"/><line stroke="#000000" stroke-width="1.5" x1="485.5" y1="3570" x2="485.5" y2="3580"/><text style="font: 8px sans-serif;" x="480.5" y="3565">T257</text><text style="font: 15px sans-serif;" x="40" y="3655">SWI5</text><rect stroke="#006FB0" stroke-width="1" x="100" y="3640" width="1063.5" height="20" fill="#B9E3FF"/><line stroke="#000000" stroke-width="1.5" x1="838.0" y1="3630" x2="838.0" y2="3640"/><text style="font: 8px sans-serif;" x="833.0" y="3625">S492</text><text style="font: 15px sans-serif;" x="40" y="3715">BUD21</text><rect stroke="#006FB0" stroke-width="1" x="100" y="3700" width="321.0" height="20" fill="#B9E3FF"/><line stroke="#000000" stroke-width="1.5" x1="316.0" y1="3690" x2="316.0" y2="3700"/><text style="font: 8px sans-serif;" x="311.0" y="3685">S144</text><text style="font: 15px sans-serif;" x="40" y="3775">LEM3</text><rect stroke="#006FB0" stroke-width="1" x="100" y="3760" width="621.0" height="20" fill="#B9E3FF"/><line stroke="#000000" stroke-width="1.5" x1="154.0" y1="3750" x2="154.0" y2="3760"/><text style="font: 8px sans-serif;" x="149.0" y="3745">S36</text><text style="font: 15px sans-serif;" x="40" y="3835">PDR1</text><rect stroke="#006FB0" stroke-width="1" x="100" y="3820" width="1602.0" height="20" fill="#B9E3FF"/><line stroke="#000000" stroke-width="1.5" x1="1513.0" y1="3810" x2="1513.0" y2="3820"/><text style="font: 8px sans-serif;" x="1508.0" y="3805">S942</text><text style="font: 15px sans-serif;" x="40" y="3895">CSA1</text><rect stroke="#006FB0" stroke-width="1" x="100" y="3880" width="331.5" height="20" fill="#B9E3FF"/><line stroke="#000000" stroke-width="1.5" x1="362.5" y1="3870" x2="362.5" y2="3880"/><text style="font: 8px sans-serif;" x="357.5" y="3865">S175</text><text style="font: 15px sans-serif;" x="40" y="3955">CBC2</text><rect stroke="#006FB0" stroke-width="1" x="100" y="3940" width="312.0" height="20" fill="#B9E3FF"/><line stroke="#000000" stroke-width="1.5" x1="274.0" y1="3930" x2="274.0" y2="3940"/><text style="font: 8px sans-serif;" x="269.0" y="3925">T116</text><text style="font: 15px sans-serif;" x="40" y="4015">HPC2</text><rect stroke="#006FB0" stroke-width="1" x="100" y="4000" width="937.5" height="20" fill="#B9E3FF"/><line stroke="#000000" stroke-width="1.5" x1="752.5" y1="3990" x2="752.5" y2="4000"/><text style="font: 8px sans-serif;" x="747.5" y="3985">S435</text><text style="font: 15px sans-serif;" x="40" y="4075">NIF3</text><rect stroke="#006FB0" stroke-width="1" x="100" y="4060" width="432.0" height="20" fill="#B9E3FF"/><line stroke="#000000" stroke-width="1.5" x1="103.0" y1="4050" x2="103.0" y2="4060"/><text style="font: 8px sans-serif;" x="98.0" y="4045">S2</text></svg>