<svg xmlns="http://www.w3.org/2000/svg" width="2832.5" height="1340"><text style="font: 15px sans-serif;" x="40" y="175">NDC80</text><rect stroke="#006FB0" stroke-width="1" x="100" y="160" width="1036.5" height="20" fill="#B9E3FF"/><line stroke="#000000" stroke-width="1.5" x1="155.5" y1="150" x2="155.5" y2="160"/><text style="font: 8px sans-serif;" x="150.5" y="145">S37</text><line stroke="#000000" stroke-width="1.5" x1="211.0" y1="150" x2="211.0" y2="160"/><text style="font: 8px sans-serif;" x="206.0" y="145">T74</text><line stroke="#000000" stroke-width="1.5" x1="245.5" y1="150" x2="245.5" y2="160"/><text style="font: 8px sans-serif;" x="240.5" y="145">S97</text><line stroke="#000000" stroke-width="1.5" x1="482.5" y1="150" x2="482.5" y2="160"/><text style="font: 8px sans-serif;" x="477.5" y="145">S255</text><text style="font: 15px sans-serif;" x="40" y="235">SPC105</text><rect stroke="#006FB0" stroke-width="1" x="100" y="220" width="1375.5" height="20" fill="#B9E3FF"/><line stroke="#000000" stroke-width="1.5" x1="215.5" y1="210" x2="215.5" y2="220"/><text style="font: 8px sans-serif;" x="210.5" y="205">S77</text><line stroke="#000000" stroke-width="1.5" x1="634.0" y1="210" x2="634.0" y2="220"/><text style="font: 8px sans-serif;" x="629.0" y="205">T356</text><line stroke="#000000" stroke-width="1.5" x1="677.5" y1="210" x2="677.5" y2="220"/><text style="font: 8px sans-serif;" x="672.5" y="205">S385</text><text style="font: 15px sans-serif;" x="40" y="295">DSN1</text><rect stroke="#006FB0" stroke-width="1" x="100" y="280" width="864.0" height="20" fill="#B9E3FF"/><line stroke="#000000" stroke-width="1.5" x1="118.0" y1="270" x2="118.0" y2="280"/><text style="font: 8px sans-serif;" x="113.0" y="265">T12</text><text style="font: 15px sans-serif;" x="40" y="355">NET1</text><rect stroke="#006FB0" stroke-width="1" x="100" y="340" width="1783.5" height="20" fill="#B9E3FF"/><line stroke="#000000" stroke-width="1.5" x1="446.5" y1="330" x2="446.5" y2="340"/><text style="font: 8px sans-serif;" x="441.5" y="325">S231</text><text style="font: 15px sans-serif;" x="40" y="415">MIF2</text><rect stroke="#006FB0" stroke-width="1" x="100" y="400" width="823.5" height="20" fill="#B9E3FF"/><line stroke="#000000" stroke-width="1.5" x1="340.0" y1="390" x2="340.0" y2="400"/><text style="font: 8px sans-serif;" x="335.0" y="385">S160</text><line stroke="#000000" stroke-width="1.5" x1="587.5" y1="390" x2="587.5" y2="400"/><text style="font: 8px sans-serif;" x="582.5" y="385">S325</text><text style="font: 15px sans-serif;" x="40" y="475">SPC24</text><rect stroke="#006FB0" stroke-width="1" x="100" y="460" width="319.5" height="20" fill="#B9E3FF"/><line stroke="#000000" stroke-width="1.5" x1="103.0" y1="450" x2="103.0" y2="460"/><text style="font: 8px sans-serif;" x="98.0" y="445">S2</text><text style="font: 15px sans-serif;" x="40" y="535">CDC14</text><rect stroke="#006FB0" stroke-width="1" x="100" y="520" width="826.5" height="20" fill="#B9E3FF"/><line stroke="#000000" stroke-width="1.5" x1="800.5" y1="510" x2="800.5" y2="520"/><text style="font: 8px sans-serif;" x="795.5" y="505">S467</text><text style="font: 15px sans-serif;" x="40" y="595">YPR137C-B</text><rect stroke="#006FB0" stroke-width="1" x="100" y="580" width="2632.5" height="20" fill="#B9E3FF"/><line stroke="#000000" stroke-width="1.5" x1="1540.0" y1="570" x2="1540.0" y2="580"/><text style="font: 8px sans-serif;" x="1535.0" y="565">S960</text><text style="font: 15px sans-serif;" x="40" y="655">OKP1</text><rect stroke="#006FB0" stroke-width="1" x="100" y="640" width="609.0" height="20" fill="#B9E3FF"/><line stroke="#000000" stroke-width="1.5" x1="205.0" y1="630" x2="205.0" y2="640"/><text style="font: 8px sans-serif;" x="200.0" y="625">S70</text><text style="font: 15px sans-serif;" x="40" y="715">YMR045C</text><rect stroke="#006FB0" stroke-width="1" x="100" y="700" width="2632.5" height="20" fill="#B9E3FF"/><line stroke="#000000" stroke-width="1.5" x1="1540.0" y1="690" x2="1540.0" y2="700"/><text style="font: 8px sans-serif;" x="1535.0" y="685">S960</text><text style="font: 15px sans-serif;" x="40" y="775">DAM1</text><rect stroke="#006FB0" stroke-width="1" x="100" y="760" width="514.5" height="20" fill="#B9E3FF"/><line stroke="#000000" stroke-width="1.5" x1="103.0" y1="750" x2="103.0" y2="760"/><text style="font: 8px sans-serif;" x="98.0" y="745">S2</text><line stroke="#000000" stroke-width="1.5" x1="146.5" y1="750" x2="146.5" y2="760"/><text style="font: 8px sans-serif;" x="141.5" y="745">S31</text><text style="font: 15px sans-serif;" x="40" y="835">CBF5</text><rect stroke="#006FB0" stroke-width="1" x="100" y="820" width="724.5" height="20" fill="#B9E3FF"/><line stroke="#000000" stroke-width="1.5" x1="667.0" y1="810" x2="667.0" y2="820"/><text style="font: 8px sans-serif;" x="662.0" y="805">T378</text><text style="font: 15px sans-serif;" x="40" y="895">YRA1</text><rect stroke="#006FB0" stroke-width="1" x="100" y="880" width="339.0" height="20" fill="#B9E3FF"/><line stroke="#000000" stroke-width="1.5" x1="103.0" y1="870" x2="103.0" y2="880"/><text style="font: 8px sans-serif;" x="98.0" y="865">S2</text><text style="font: 15px sans-serif;" x="40" y="955">SAS10</text><rect stroke="#006FB0" stroke-width="1" x="100" y="940" width="915.0" height="20" fill="#B9E3FF"/><line stroke="#000000" stroke-width="1.5" x1="815.5" y1="930" x2="815.5" y2="940"/><text style="font: 8px sans-serif;" x="810.5" y="925">S477</text><text style="font: 15px sans-serif;" x="40" y="1015">CNN1</text><rect stroke="#006FB0" stroke-width="1" x="100" y="1000" width="541.5" height="20" fill="#B9E3FF"/><line stroke="#000000" stroke-width="1.5" x1="365.5" y1="990" x2="365.5" y2="1000"/><text style="font: 8px sans-serif;" x="360.5" y="985">S177</text><text style="font: 15px sans-serif;" x="40" y="1075">PSH1</text><rect stroke="#006FB0" stroke-width="1" x="100" y="1060" width="609.0" height="20" fill="#B9E3FF"/><line stroke="#000000" stroke-width="1.5" x1="704.5" y1="1050" x2="704.5" y2="1060"/><text style="font: 8px sans-serif;" x="699.5" y="1045">S403</text><text style="font: 15px sans-serif;" x="40" y="1135">SLI15</text><rect stroke="#006FB0" stroke-width="1" x="100" y="1120" width="1047.0" height="20" fill="#B9E3FF"/><line stroke="#000000" stroke-width="1.5" x1="833.5" y1="1110" x2="833.5" y2="1120"/><text style="font: 8px sans-serif;" x="828.5" y="1105">S489</text><text style="font: 15px sans-serif;" x="40" y="1195">RPL7A</text><rect stroke="#006FB0" stroke-width="1" x="100" y="1180" width="366.0" height="20" fill="#B9E3FF"/><line stroke="#000000" stroke-width="1.5" x1="112.0" y1="1170" x2="112.0" y2="1180"/><text style="font: 8px sans-serif;" x="107.0" y="1165">T8</text><text style="font: 15px sans-serif;" x="40" y="1255">TSC11</text><rect stroke="#006FB0" stroke-width="1" x="100" y="1240" width="2145.0" height="20" fill="#B9E3FF"/><line stroke="#000000" stroke-width="1.5" x1="128.5" y1="1230" x2="128.5" y2="1240"/><text style="font: 8px sans-serif;" x="123.5" y="1225">S19</text></svg>