<svg xmlns="http://www.w3.org/2000/svg" width="2200" height="860"><text style="font: 15px sans-serif;" x="40" y="175">NDC80</text><rect stroke="#006FB0" stroke-width="1" x="100" y="160" width="1036.5" height="20" fill="#B9E3FF"/><line stroke="#000000" stroke-width="1.5" x1="155.5" y1="150" x2="155.5" y2="160"/><text style="font: 8px sans-serif;" x="150.5" y="145">S37</text><line stroke="#000000" stroke-width="1.5" x1="157.0" y1="150" x2="157.0" y2="160"/><text style="font: 8px sans-serif;" x="152.0" y="145">T38</text><line stroke="#000000" stroke-width="1.5" x1="245.5" y1="150" x2="245.5" y2="160"/><text style="font: 8px sans-serif;" x="240.5" y="145">S97</text><line stroke="#000000" stroke-width="1.5" x1="472.0" y1="150" x2="472.0" y2="160"/><text style="font: 8px sans-serif;" x="467.0" y="145">T248</text><text style="font: 15px sans-serif;" x="40" y="235">SPC105</text><rect stroke="#006FB0" stroke-width="1" x="100" y="220" width="1375.5" height="20" fill="#B9E3FF"/><line stroke="#000000" stroke-width="1.5" x1="215.5" y1="210" x2="215.5" y2="220"/><text style="font: 8px sans-serif;" x="210.5" y="205">S77</text><line stroke="#000000" stroke-width="1.5" x1="674.5" y1="210" x2="674.5" y2="220"/><text style="font: 8px sans-serif;" x="669.5" y="205">T383</text><text style="font: 15px sans-serif;" x="40" y="295">DSN1</text><rect stroke="#006FB0" stroke-width="1" x="100" y="280" width="864.0" height="20" fill="#B9E3FF"/><line stroke="#000000" stroke-width="1.5" x1="475.0" y1="270" x2="475.0" y2="280"/><text style="font: 8px sans-serif;" x="470.0" y="265">S250</text><line stroke="#000000" stroke-width="1.5" x1="919.0" y1="270" x2="919.0" y2="280"/><text style="font: 8px sans-serif;" x="914.0" y="265">S546</text><text style="font: 15px sans-serif;" x="40" y="355">MPS1</text><rect stroke="#006FB0" stroke-width="1" x="100" y="340" width="1146.0" height="20" fill="#B9E3FF"/><line stroke="#000000" stroke-width="1.5" x1="143.5" y1="330" x2="143.5" y2="340"/><text style="font: 8px sans-serif;" x="138.5" y="325">T29</text><line stroke="#000000" stroke-width="1.5" x1="175.0" y1="330" x2="175.0" y2="340"/><text style="font: 8px sans-serif;" x="170.0" y="325">S50</text><line stroke="#000000" stroke-width="1.5" x1="598.0" y1="330" x2="598.0" y2="340"/><text style="font: 8px sans-serif;" x="593.0" y="325">S332</text><line stroke="#000000" stroke-width="1.5" x1="604.0" y1="330" x2="604.0" y2="340"/><text style="font: 8px sans-serif;" x="599.0" y="325">S336</text><line stroke="#000000" stroke-width="1.5" x1="644.5" y1="330" x2="644.5" y2="340"/><text style="font: 8px sans-serif;" x="639.5" y="325">S363</text><text style="font: 15px sans-serif;" x="40" y="415">SPC24</text><rect stroke="#006FB0" stroke-width="1" x="100" y="400" width="319.5" height="20" fill="#B9E3FF"/><line stroke="#000000" stroke-width="1.5" x1="295.0" y1="390" x2="295.0" y2="400"/><text style="font: 8px sans-serif;" x="290.0" y="385">T130</text><text style="font: 15px sans-serif;" x="40" y="475">FIN1</text><rect stroke="#006FB0" stroke-width="1" x="100" y="460" width="436.5" height="20" fill="#B9E3FF"/><line stroke="#000000" stroke-width="1.5" x1="181.0" y1="450" x2="181.0" y2="460"/><text style="font: 8px sans-serif;" x="176.0" y="445">S54</text><line stroke="#000000" stroke-width="1.5" x1="211.0" y1="450" x2="211.0" y2="460"/><text style="font: 8px sans-serif;" x="206.0" y="445">S74</text><line stroke="#000000" stroke-width="1.5" x1="278.5" y1="450" x2="278.5" y2="460"/><text style="font: 8px sans-serif;" x="273.5" y="445">T119</text><text style="font: 15px sans-serif;" x="40" y="535">RGA1</text><rect stroke="#006FB0" stroke-width="1" x="100" y="520" width="1510.5" height="20" fill="#B9E3FF"/><line stroke="#000000" stroke-width="1.5" x1="767.5" y1="510" x2="767.5" y2="520"/><text style="font: 8px sans-serif;" x="762.5" y="505">S445</text><text style="font: 15px sans-serif;" x="40" y="595">ASK1</text><rect stroke="#006FB0" stroke-width="1" x="100" y="580" width="438.0" height="20" fill="#B9E3FF"/><line stroke="#000000" stroke-width="1.5" x1="277.0" y1="570" x2="277.0" y2="580"/><text style="font: 8px sans-serif;" x="272.0" y="565">S118</text><line stroke="#000000" stroke-width="1.5" x1="512.5" y1="570" x2="512.5" y2="580"/><text style="font: 8px sans-serif;" x="507.5" y="565">S275</text><text style="font: 15px sans-serif;" x="40" y="655">CNN1</text><rect stroke="#006FB0" stroke-width="1" x="100" y="640" width="541.5" height="20" fill="#B9E3FF"/><line stroke="#000000" stroke-width="1.5" x1="377.5" y1="630" x2="377.5" y2="640"/><text style="font: 8px sans-serif;" x="372.5" y="625">S185</text><text style="font: 15px sans-serif;" x="40" y="715">GRR1</text><rect stroke="#006FB0" stroke-width="1" x="100" y="700" width="1726.5" height="20" fill="#B9E3FF"/><line stroke="#000000" stroke-width="1.5" x1="398.5" y1="690" x2="398.5" y2="700"/><text style="font: 8px sans-serif;" x="393.5" y="685">S199</text><text style="font: 15px sans-serif;" x="40" y="775">PSH1</text><rect stroke="#006FB0" stroke-width="1" x="100" y="760" width="609.0" height="20" fill="#B9E3FF"/><line stroke="#000000" stroke-width="1.5" x1="314.5" y1="750" x2="314.5" y2="760"/><text style="font: 8px sans-serif;" x="309.5" y="745">S143</text></svg>