<svg xmlns="http://www.w3.org/2000/svg" width="2832.5" height="1460"><text style="font: 15px sans-serif;" x="40" y="175">NDC80</text><rect stroke="#006FB0" stroke-width="1" x="100" y="160" width="1036.5" height="20" fill="#B9E3FF"/><line stroke="#000000" stroke-width="1.5" x1="155.5" y1="150" x2="155.5" y2="160"/><text style="font: 8px sans-serif;" x="150.5" y="145">S37</text><line stroke="#000000" stroke-width="1.5" x1="181.0" y1="150" x2="181.0" y2="160"/><text style="font: 8px sans-serif;" x="176.0" y="145">T54</text><line stroke="#000000" stroke-width="1.5" x1="472.0" y1="150" x2="472.0" y2="160"/><text style="font: 8px sans-serif;" x="467.0" y="145">T248</text><text style="font: 15px sans-serif;" x="40" y="235">SPC105</text><rect stroke="#006FB0" stroke-width="1" x="100" y="220" width="1375.5" height="20" fill="#B9E3FF"/><line stroke="#000000" stroke-width="1.5" x1="215.5" y1="210" x2="215.5" y2="220"/><text style="font: 8px sans-serif;" x="210.5" y="205">S77</text><line stroke="#000000" stroke-width="1.5" x1="263.5" y1="210" x2="263.5" y2="220"/><text style="font: 8px sans-serif;" x="258.5" y="205">S109</text><line stroke="#000000" stroke-width="1.5" x1="266.5" y1="210" x2="266.5" y2="220"/><text style="font: 8px sans-serif;" x="261.5" y="205">T111</text><line stroke="#000000" stroke-width="1.5" x1="358.0" y1="210" x2="358.0" y2="220"/><text style="font: 8px sans-serif;" x="353.0" y="205">T172</text><line stroke="#000000" stroke-width="1.5" x1="634.0" y1="210" x2="634.0" y2="220"/><text style="font: 8px sans-serif;" x="629.0" y="205">T356</text><line stroke="#000000" stroke-width="1.5" x1="670.0" y1="210" x2="670.0" y2="220"/><text style="font: 8px sans-serif;" x="665.0" y="205">S380</text><text style="font: 15px sans-serif;" x="40" y="295">MPS1</text><rect stroke="#006FB0" stroke-width="1" x="100" y="280" width="1146.0" height="20" fill="#B9E3FF"/><line stroke="#000000" stroke-width="1.5" x1="107.5" y1="270" x2="107.5" y2="280"/><text style="font: 8px sans-serif;" x="102.5" y="265">S5</text><line stroke="#000000" stroke-width="1.5" x1="133.0" y1="270" x2="133.0" y2="280"/><text style="font: 8px sans-serif;" x="128.0" y="265">S22</text><line stroke="#000000" stroke-width="1.5" x1="175.0" y1="270" x2="175.0" y2="280"/><text style="font: 8px sans-serif;" x="170.0" y="265">S50</text><line stroke="#000000" stroke-width="1.5" x1="274.0" y1="270" x2="274.0" y2="280"/><text style="font: 8px sans-serif;" x="269.0" y="265">S116</text><line stroke="#000000" stroke-width="1.5" x1="377.5" y1="270" x2="377.5" y2="280"/><text style="font: 8px sans-serif;" x="372.5" y="265">S185</text><line stroke="#000000" stroke-width="1.5" x1="604.0" y1="270" x2="604.0" y2="280"/><text style="font: 8px sans-serif;" x="599.0" y="265">S336</text><line stroke="#000000" stroke-width="1.5" x1="644.5" y1="270" x2="644.5" y2="280"/><text style="font: 8px sans-serif;" x="639.5" y="265">S363</text><line stroke="#000000" stroke-width="1.5" x1="683.5" y1="270" x2="683.5" y2="280"/><text style="font: 8px sans-serif;" x="678.5" y="265">T389</text><line stroke="#000000" stroke-width="1.5" x1="1231.0" y1="270" x2="1231.0" y2="280"/><text style="font: 8px sans-serif;" x="1226.0" y="265">T754</text><text style="font: 15px sans-serif;" x="40" y="355">DSN1</text><rect stroke="#006FB0" stroke-width="1" x="100" y="340" width="864.0" height="20" fill="#B9E3FF"/><line stroke="#000000" stroke-width="1.5" x1="203.5" y1="330" x2="203.5" y2="340"/><text style="font: 8px sans-serif;" x="198.5" y="325">S69</text><line stroke="#000000" stroke-width="1.5" x1="670.0" y1="330" x2="670.0" y2="340"/><text style="font: 8px sans-serif;" x="665.0" y="325">T380</text><line stroke="#000000" stroke-width="1.5" x1="919.0" y1="330" x2="919.0" y2="340"/><text style="font: 8px sans-serif;" x="914.0" y="325">S546</text><text style="font: 15px sans-serif;" x="40" y="415">SPC24</text><rect stroke="#006FB0" stroke-width="1" x="100" y="400" width="319.5" height="20" fill="#B9E3FF"/><line stroke="#000000" stroke-width="1.5" x1="103.0" y1="390" x2="103.0" y2="400"/><text style="font: 8px sans-serif;" x="98.0" y="385">S2</text><line stroke="#000000" stroke-width="1.5" x1="295.0" y1="390" x2="295.0" y2="400"/><text style="font: 8px sans-serif;" x="290.0" y="385">T130</text><line stroke="#000000" stroke-width="1.5" x1="328.0" y1="390" x2="328.0" y2="400"/><text style="font: 8px sans-serif;" x="323.0" y="385">T152</text><text style="font: 15px sans-serif;" x="40" y="475">NET1</text><rect stroke="#006FB0" stroke-width="1" x="100" y="460" width="1783.5" height="20" fill="#B9E3FF"/><line stroke="#000000" stroke-width="1.5" x1="1663.0" y1="450" x2="1663.0" y2="460"/><text style="font: 8px sans-serif;" x="1658.0" y="445">T1042</text><text style="font: 15px sans-serif;" x="40" y="535">YPR137C-B</text><rect stroke="#006FB0" stroke-width="1" x="100" y="520" width="2632.5" height="20" fill="#B9E3FF"/><line stroke="#000000" stroke-width="1.5" x1="1742.5" y1="510" x2="1742.5" y2="520"/><text style="font: 8px sans-serif;" x="1737.5" y="505">S1095</text><text style="font: 15px sans-serif;" x="40" y="595">ASK1</text><rect stroke="#006FB0" stroke-width="1" x="100" y="580" width="438.0" height="20" fill="#B9E3FF"/><line stroke="#000000" stroke-width="1.5" x1="382.0" y1="570" x2="382.0" y2="580"/><text style="font: 8px sans-serif;" x="377.0" y="565">S188</text><line stroke="#000000" stroke-width="1.5" x1="400.0" y1="570" x2="400.0" y2="580"/><text style="font: 8px sans-serif;" x="395.0" y="565">S200</text><line stroke="#000000" stroke-width="1.5" x1="424.0" y1="570" x2="424.0" y2="580"/><text style="font: 8px sans-serif;" x="419.0" y="565">S216</text><line stroke="#000000" stroke-width="1.5" x1="514.0" y1="570" x2="514.0" y2="580"/><text style="font: 8px sans-serif;" x="509.0" y="565">T276</text><text style="font: 15px sans-serif;" x="40" y="655">YLR227W-B</text><rect stroke="#006FB0" stroke-width="1" x="100" y="640" width="2632.5" height="20" fill="#B9E3FF"/><line stroke="#000000" stroke-width="1.5" x1="1742.5" y1="630" x2="1742.5" y2="640"/><text style="font: 8px sans-serif;" x="1737.5" y="625">S1095</text><text style="font: 15px sans-serif;" x="40" y="715">SPC19</text><rect stroke="#006FB0" stroke-width="1" x="100" y="700" width="247.5" height="20" fill="#B9E3FF"/><line stroke="#000000" stroke-width="1.5" x1="274.0" y1="690" x2="274.0" y2="700"/><text style="font: 8px sans-serif;" x="269.0" y="685">S116</text><text style="font: 15px sans-serif;" x="40" y="775">RGA1</text><rect stroke="#006FB0" stroke-width="1" x="100" y="760" width="1510.5" height="20" fill="#B9E3FF"/><line stroke="#000000" stroke-width="1.5" x1="596.5" y1="750" x2="596.5" y2="760"/><text style="font: 8px sans-serif;" x="591.5" y="745">S331</text><text style="font: 15px sans-serif;" x="40" y="835">FIN1</text><rect stroke="#006FB0" stroke-width="1" x="100" y="820" width="436.5" height="20" fill="#B9E3FF"/><line stroke="#000000" stroke-width="1.5" x1="154.0" y1="810" x2="154.0" y2="820"/><text style="font: 8px sans-serif;" x="149.0" y="805">S36</text><line stroke="#000000" stroke-width="1.5" x1="181.0" y1="810" x2="181.0" y2="820"/><text style="font: 8px sans-serif;" x="176.0" y="805">S54</text><line stroke="#000000" stroke-width="1.5" x1="275.5" y1="810" x2="275.5" y2="820"/><text style="font: 8px sans-serif;" x="270.5" y="805">S117</text><line stroke="#000000" stroke-width="1.5" x1="278.5" y1="810" x2="278.5" y2="820"/><text style="font: 8px sans-serif;" x="273.5" y="805">T119</text><text style="font: 15px sans-serif;" x="40" y="895">MIF2</text><rect stroke="#006FB0" stroke-width="1" x="100" y="880" width="823.5" height="20" fill="#B9E3FF"/><line stroke="#000000" stroke-width="1.5" x1="232.0" y1="870" x2="232.0" y2="880"/><text style="font: 8px sans-serif;" x="227.0" y="865">S88</text><line stroke="#000000" stroke-width="1.5" x1="340.0" y1="870" x2="340.0" y2="880"/><text style="font: 8px sans-serif;" x="335.0" y="865">S160</text><line stroke="#000000" stroke-width="1.5" x1="343.0" y1="870" x2="343.0" y2="880"/><text style="font: 8px sans-serif;" x="338.0" y="865">S162</text><line stroke="#000000" stroke-width="1.5" x1="349.0" y1="870" x2="349.0" y2="880"/><text style="font: 8px sans-serif;" x="344.0" y="865">T166</text><line stroke="#000000" stroke-width="1.5" x1="587.5" y1="870" x2="587.5" y2="880"/><text style="font: 8px sans-serif;" x="582.5" y="865">S325</text><text style="font: 15px sans-serif;" x="40" y="955">AME1</text><rect stroke="#006FB0" stroke-width="1" x="100" y="940" width="486.0" height="20" fill="#B9E3FF"/><line stroke="#000000" stroke-width="1.5" x1="161.5" y1="930" x2="161.5" y2="940"/><text style="font: 8px sans-serif;" x="156.5" y="925">S41</text><line stroke="#000000" stroke-width="1.5" x1="179.5" y1="930" x2="179.5" y2="940"/><text style="font: 8px sans-serif;" x="174.5" y="925">S53</text><line stroke="#000000" stroke-width="1.5" x1="188.5" y1="930" x2="188.5" y2="940"/><text style="font: 8px sans-serif;" x="183.5" y="925">S59</text><text style="font: 15px sans-serif;" x="40" y="1015">DAM1</text><rect stroke="#006FB0" stroke-width="1" x="100" y="1000" width="514.5" height="20" fill="#B9E3FF"/><line stroke="#000000" stroke-width="1.5" x1="538.0" y1="990" x2="538.0" y2="1000"/><text style="font: 8px sans-serif;" x="533.0" y="985">S292</text><text style="font: 15px sans-serif;" x="40" y="1075">NKP1</text><rect stroke="#006FB0" stroke-width="1" x="100" y="1060" width="357.0" height="20" fill="#B9E3FF"/><line stroke="#000000" stroke-width="1.5" x1="214.0" y1="1050" x2="214.0" y2="1060"/><text style="font: 8px sans-serif;" x="209.0" y="1045">S76</text><text style="font: 15px sans-serif;" x="40" y="1135">DAD3</text><rect stroke="#006FB0" stroke-width="1" x="100" y="1120" width="141.0" height="20" fill="#B9E3FF"/><line stroke="#000000" stroke-width="1.5" x1="164.5" y1="1110" x2="164.5" y2="1120"/><text style="font: 8px sans-serif;" x="159.5" y="1105">S43</text><text style="font: 15px sans-serif;" x="40" y="1195">CNN1</text><rect stroke="#006FB0" stroke-width="1" x="100" y="1180" width="541.5" height="20" fill="#B9E3FF"/><line stroke="#000000" stroke-width="1.5" x1="163.0" y1="1170" x2="163.0" y2="1180"/><text style="font: 8px sans-serif;" x="158.0" y="1165">T42</text><text style="font: 15px sans-serif;" x="40" y="1255">DAD1</text><rect stroke="#006FB0" stroke-width="1" x="100" y="1240" width="141.0" height="20" fill="#B9E3FF"/><line stroke="#000000" stroke-width="1.5" x1="236.5" y1="1230" x2="236.5" y2="1240"/><text style="font: 8px sans-serif;" x="231.5" y="1225">S91</text><text style="font: 15px sans-serif;" x="40" y="1315">PSH1</text><rect stroke="#006FB0" stroke-width="1" x="100" y="1300" width="609.0" height="20" fill="#B9E3FF"/><line stroke="#000000" stroke-width="1.5" x1="314.5" y1="1290" x2="314.5" y2="1300"/><text style="font: 8px sans-serif;" x="309.5" y="1285">S143</text><text style="font: 15px sans-serif;" x="40" y="1375">POM152</text><rect stroke="#006FB0" stroke-width="1" x="100" y="1360" width="2005.5" height="20" fill="#B9E3FF"/><line stroke="#000000" stroke-width="1.5" x1="1813.0" y1="1350" x2="1813.0" y2="1360"/><text style="font: 8px sans-serif;" x="1808.0" y="1345">S1142</text></svg>