<svg xmlns="http://www.w3.org/2000/svg" width="2200" height="500"><text style="font: 15px sans-serif;" x="40" y="175">ASK1</text><rect stroke="#006FB0" stroke-width="1" x="100" y="160" width="438.0" height="20" fill="#B9E3FF"/><line stroke="#000000" stroke-width="1.5" x1="139.0" y1="150" x2="139.0" y2="160"/><text style="font: 8px sans-serif;" x="134.0" y="145">S26</text><line stroke="#000000" stroke-width="1.5" x1="400.0" y1="150" x2="400.0" y2="160"/><text style="font: 8px sans-serif;" x="395.0" y="145">S200</text><line stroke="#000000" stroke-width="1.5" x1="424.0" y1="150" x2="424.0" y2="160"/><text style="font: 8px sans-serif;" x="419.0" y="145">S216</text><line stroke="#000000" stroke-width="1.5" x1="514.0" y1="150" x2="514.0" y2="160"/><text style="font: 8px sans-serif;" x="509.0" y="145">T276</text><text style="font: 15px sans-serif;" x="40" y="235">DAM1</text><rect stroke="#006FB0" stroke-width="1" x="100" y="220" width="514.5" height="20" fill="#B9E3FF"/><line stroke="#000000" stroke-width="1.5" x1="146.5" y1="210" x2="146.5" y2="220"/><text style="font: 8px sans-serif;" x="141.5" y="205">S31</text><line stroke="#000000" stroke-width="1.5" x1="502.0" y1="210" x2="502.0" y2="220"/><text style="font: 8px sans-serif;" x="497.0" y="205">S268</text><line stroke="#000000" stroke-width="1.5" x1="538.0" y1="210" x2="538.0" y2="220"/><text style="font: 8px sans-serif;" x="533.0" y="205">S292</text><text style="font: 15px sans-serif;" x="40" y="295">DAD3</text><rect stroke="#006FB0" stroke-width="1" x="100" y="280" width="141.0" height="20" fill="#B9E3FF"/><line stroke="#000000" stroke-width="1.5" x1="164.5" y1="270" x2="164.5" y2="280"/><text style="font: 8px sans-serif;" x="159.5" y="265">S43</text><text style="font: 15px sans-serif;" x="40" y="355">NDC80</text><rect stroke="#006FB0" stroke-width="1" x="100" y="340" width="1036.5" height="20" fill="#B9E3FF"/><line stroke="#000000" stroke-width="1.5" x1="472.0" y1="330" x2="472.0" y2="340"/><text style="font: 8px sans-serif;" x="467.0" y="325">T248</text><text style="font: 15px sans-serif;" x="40" y="415">POM152</text><rect stroke="#006FB0" stroke-width="1" x="100" y="400" width="2005.5" height="20" fill="#B9E3FF"/><line stroke="#000000" stroke-width="1.5" x1="1813.0" y1="390" x2="1813.0" y2="400"/><text style="font: 8px sans-serif;" x="1808.0" y="385">S1142</text></svg>