<svg xmlns="http://www.w3.org/2000/svg" width="2889.5" height="2060"><text style="font: 15px sans-serif;" x="40" y="175">NDC80</text><rect stroke="#006FB0" stroke-width="1" x="100" y="160" width="1036.5" height="20" fill="#B9E3FF"/><line stroke="#000000" stroke-width="1.5" x1="472.0" y1="150" x2="472.0" y2="160"/><text style="font: 8px sans-serif;" x="467.0" y="145">T248</text><text style="font: 15px sans-serif;" x="40" y="235">SPC105</text><rect stroke="#006FB0" stroke-width="1" x="100" y="220" width="1375.5" height="20" fill="#B9E3FF"/><line stroke="#000000" stroke-width="1.5" x1="358.0" y1="210" x2="358.0" y2="220"/><text style="font: 8px sans-serif;" x="353.0" y="205">T172</text><line stroke="#000000" stroke-width="1.5" x1="593.5" y1="210" x2="593.5" y2="220"/><text style="font: 8px sans-serif;" x="588.5" y="205">S329</text><line stroke="#000000" stroke-width="1.5" x1="634.0" y1="210" x2="634.0" y2="220"/><text style="font: 8px sans-serif;" x="629.0" y="205">T356</text><line stroke="#000000" stroke-width="1.5" x1="1429.0" y1="210" x2="1429.0" y2="220"/><text style="font: 8px sans-serif;" x="1424.0" y="205">S886</text><text style="font: 15px sans-serif;" x="40" y="295">BUB1</text><rect stroke="#006FB0" stroke-width="1" x="100" y="280" width="1531.5" height="20" fill="#B9E3FF"/><line stroke="#000000" stroke-width="1.5" x1="121.0" y1="270" x2="121.0" y2="280"/><text style="font: 8px sans-serif;" x="116.0" y="265">S14</text><line stroke="#000000" stroke-width="1.5" x1="863.5" y1="270" x2="863.5" y2="280"/><text style="font: 8px sans-serif;" x="858.5" y="265">T509</text><line stroke="#000000" stroke-width="1.5" x1="905.5" y1="270" x2="905.5" y2="280"/><text style="font: 8px sans-serif;" x="900.5" y="265">S537</text><line stroke="#000000" stroke-width="1.5" x1="934.0" y1="270" x2="934.0" y2="280"/><text style="font: 8px sans-serif;" x="929.0" y="265">T556</text><text style="font: 15px sans-serif;" x="40" y="355">DSN1</text><rect stroke="#006FB0" stroke-width="1" x="100" y="340" width="864.0" height="20" fill="#B9E3FF"/><line stroke="#000000" stroke-width="1.5" x1="109.0" y1="330" x2="109.0" y2="340"/><text style="font: 8px sans-serif;" x="104.0" y="325">T6</text><line stroke="#000000" stroke-width="1.5" x1="475.0" y1="330" x2="475.0" y2="340"/><text style="font: 8px sans-serif;" x="470.0" y="325">S250</text><line stroke="#000000" stroke-width="1.5" x1="496.0" y1="330" x2="496.0" y2="340"/><text style="font: 8px sans-serif;" x="491.0" y="325">S264</text><line stroke="#000000" stroke-width="1.5" x1="679.0" y1="330" x2="679.0" y2="340"/><text style="font: 8px sans-serif;" x="674.0" y="325">T386</text><line stroke="#000000" stroke-width="1.5" x1="931.0" y1="330" x2="931.0" y2="340"/><text style="font: 8px sans-serif;" x="926.0" y="325">S554</text><text style="font: 15px sans-serif;" x="40" y="415">MPS1</text><rect stroke="#006FB0" stroke-width="1" x="100" y="400" width="1146.0" height="20" fill="#B9E3FF"/><line stroke="#000000" stroke-width="1.5" x1="572.5" y1="390" x2="572.5" y2="400"/><text style="font: 8px sans-serif;" x="567.5" y="385">S315</text><line stroke="#000000" stroke-width="1.5" x1="598.0" y1="390" x2="598.0" y2="400"/><text style="font: 8px sans-serif;" x="593.0" y="385">S332</text><line stroke="#000000" stroke-width="1.5" x1="644.5" y1="390" x2="644.5" y2="400"/><text style="font: 8px sans-serif;" x="639.5" y="385">S363</text><text style="font: 15px sans-serif;" x="40" y="475">MUB1</text><rect stroke="#006FB0" stroke-width="1" x="100" y="460" width="930.0" height="20" fill="#B9E3FF"/><line stroke="#000000" stroke-width="1.5" x1="479.5" y1="450" x2="479.5" y2="460"/><text style="font: 8px sans-serif;" x="474.5" y="445">S253</text><text style="font: 15px sans-serif;" x="40" y="535">MAD1</text><rect stroke="#006FB0" stroke-width="1" x="100" y="520" width="1123.5" height="20" fill="#B9E3FF"/><line stroke="#000000" stroke-width="1.5" x1="853.0" y1="510" x2="853.0" y2="520"/><text style="font: 8px sans-serif;" x="848.0" y="505">T502</text><text style="font: 15px sans-serif;" x="40" y="595">OKP1</text><rect stroke="#006FB0" stroke-width="1" x="100" y="580" width="609.0" height="20" fill="#B9E3FF"/><line stroke="#000000" stroke-width="1.5" x1="205.0" y1="570" x2="205.0" y2="580"/><text style="font: 8px sans-serif;" x="200.0" y="565">S70</text><line stroke="#000000" stroke-width="1.5" x1="271.0" y1="570" x2="271.0" y2="580"/><text style="font: 8px sans-serif;" x="266.0" y="565">S114</text><line stroke="#000000" stroke-width="1.5" x1="701.5" y1="570" x2="701.5" y2="580"/><text style="font: 8px sans-serif;" x="696.5" y="565">T401</text><text style="font: 15px sans-serif;" x="40" y="655">YER138C</text><rect stroke="#006FB0" stroke-width="1" x="100" y="640" width="2632.5" height="20" fill="#B9E3FF"/><line stroke="#000000" stroke-width="1.5" x1="1540.0" y1="630" x2="1540.0" y2="640"/><text style="font: 8px sans-serif;" x="1535.0" y="625">S960</text><line stroke="#000000" stroke-width="1.5" x1="1682.5" y1="630" x2="1682.5" y2="640"/><text style="font: 8px sans-serif;" x="1677.5" y="625">S1055</text><line stroke="#000000" stroke-width="1.5" x1="1721.5" y1="630" x2="1721.5" y2="640"/><text style="font: 8px sans-serif;" x="1716.5" y="625">S1081</text><text style="font: 15px sans-serif;" x="40" y="715">YJR027W</text><rect stroke="#006FB0" stroke-width="1" x="100" y="700" width="2632.5" height="20" fill="#B9E3FF"/><line stroke="#000000" stroke-width="1.5" x1="1540.0" y1="690" x2="1540.0" y2="700"/><text style="font: 8px sans-serif;" x="1535.0" y="685">S960</text><line stroke="#000000" stroke-width="1.5" x1="1682.5" y1="690" x2="1682.5" y2="700"/><text style="font: 8px sans-serif;" x="1677.5" y="685">S1055</text><line stroke="#000000" stroke-width="1.5" x1="1721.5" y1="690" x2="1721.5" y2="700"/><text style="font: 8px sans-serif;" x="1716.5" y="685">S1081</text><text style="font: 15px sans-serif;" x="40" y="775">YPR158W-B</text><rect stroke="#006FB0" stroke-width="1" x="100" y="760" width="2634.0" height="20" fill="#B9E3FF"/><line stroke="#000000" stroke-width="1.5" x1="1540.0" y1="750" x2="1540.0" y2="760"/><text style="font: 8px sans-serif;" x="1535.0" y="745">V960</text><line stroke="#000000" stroke-width="1.5" x1="1682.5" y1="750" x2="1682.5" y2="760"/><text style="font: 8px sans-serif;" x="1677.5" y="745">Y1055</text><line stroke="#000000" stroke-width="1.5" x1="1721.5" y1="750" x2="1721.5" y2="760"/><text style="font: 8px sans-serif;" x="1716.5" y="745">I1081</text><text style="font: 15px sans-serif;" x="40" y="835">YDR316W-B</text><rect stroke="#006FB0" stroke-width="1" x="100" y="820" width="2632.5" height="20" fill="#B9E3FF"/><line stroke="#000000" stroke-width="1.5" x1="1540.0" y1="810" x2="1540.0" y2="820"/><text style="font: 8px sans-serif;" x="1535.0" y="805">S960</text><line stroke="#000000" stroke-width="1.5" x1="1682.5" y1="810" x2="1682.5" y2="820"/><text style="font: 8px sans-serif;" x="1677.5" y="805">S1055</text><line stroke="#000000" stroke-width="1.5" x1="1721.5" y1="810" x2="1721.5" y2="820"/><text style="font: 8px sans-serif;" x="1716.5" y="805">S1081</text><text style="font: 15px sans-serif;" x="40" y="895">MIF2</text><rect stroke="#006FB0" stroke-width="1" x="100" y="880" width="823.5" height="20" fill="#B9E3FF"/><line stroke="#000000" stroke-width="1.5" x1="181.0" y1="870" x2="181.0" y2="880"/><text style="font: 8px sans-serif;" x="176.0" y="865">S54</text><line stroke="#000000" stroke-width="1.5" x1="217.0" y1="870" x2="217.0" y2="880"/><text style="font: 8px sans-serif;" x="212.0" y="865">S78</text><text style="font: 15px sans-serif;" x="40" y="955">YGR027W-B</text><rect stroke="#006FB0" stroke-width="1" x="100" y="940" width="2632.5" height="20" fill="#B9E3FF"/><line stroke="#000000" stroke-width="1.5" x1="1540.0" y1="930" x2="1540.0" y2="940"/><text style="font: 8px sans-serif;" x="1535.0" y="925">S960</text><line stroke="#000000" stroke-width="1.5" x1="1682.5" y1="930" x2="1682.5" y2="940"/><text style="font: 8px sans-serif;" x="1677.5" y="925">S1055</text><line stroke="#000000" stroke-width="1.5" x1="1721.5" y1="930" x2="1721.5" y2="940"/><text style="font: 8px sans-serif;" x="1716.5" y="925">S1081</text><text style="font: 15px sans-serif;" x="40" y="1015">YML045W</text><rect stroke="#006FB0" stroke-width="1" x="100" y="1000" width="2632.5" height="20" fill="#B9E3FF"/><line stroke="#000000" stroke-width="1.5" x1="1540.0" y1="990" x2="1540.0" y2="1000"/><text style="font: 8px sans-serif;" x="1535.0" y="985">S960</text><line stroke="#000000" stroke-width="1.5" x1="1682.5" y1="990" x2="1682.5" y2="1000"/><text style="font: 8px sans-serif;" x="1677.5" y="985">S1055</text><line stroke="#000000" stroke-width="1.5" x1="1721.5" y1="990" x2="1721.5" y2="1000"/><text style="font: 8px sans-serif;" x="1716.5" y="985">S1081</text><text style="font: 15px sans-serif;" x="40" y="1075">AME1</text><rect stroke="#006FB0" stroke-width="1" x="100" y="1060" width="486.0" height="20" fill="#B9E3FF"/><line stroke="#000000" stroke-width="1.5" x1="146.5" y1="1050" x2="146.5" y2="1060"/><text style="font: 8px sans-serif;" x="141.5" y="1045">T31</text><line stroke="#000000" stroke-width="1.5" x1="161.5" y1="1050" x2="161.5" y2="1060"/><text style="font: 8px sans-serif;" x="156.5" y="1045">S41</text><line stroke="#000000" stroke-width="1.5" x1="179.5" y1="1050" x2="179.5" y2="1060"/><text style="font: 8px sans-serif;" x="174.5" y="1045">S53</text><line stroke="#000000" stroke-width="1.5" x1="188.5" y1="1050" x2="188.5" y2="1060"/><text style="font: 8px sans-serif;" x="183.5" y="1045">S59</text><text style="font: 15px sans-serif;" x="40" y="1135">YMR050C</text><rect stroke="#006FB0" stroke-width="1" x="100" y="1120" width="2632.5" height="20" fill="#B9E3FF"/><line stroke="#000000" stroke-width="1.5" x1="1540.0" y1="1110" x2="1540.0" y2="1120"/><text style="font: 8px sans-serif;" x="1535.0" y="1105">S960</text><line stroke="#000000" stroke-width="1.5" x1="1682.5" y1="1110" x2="1682.5" y2="1120"/><text style="font: 8px sans-serif;" x="1677.5" y="1105">S1055</text><line stroke="#000000" stroke-width="1.5" x1="1721.5" y1="1110" x2="1721.5" y2="1120"/><text style="font: 8px sans-serif;" x="1716.5" y="1105">S1081</text><text style="font: 15px sans-serif;" x="40" y="1195">YDR098C-B</text><rect stroke="#006FB0" stroke-width="1" x="100" y="1180" width="2632.5" height="20" fill="#B9E3FF"/><line stroke="#000000" stroke-width="1.5" x1="1540.0" y1="1170" x2="1540.0" y2="1180"/><text style="font: 8px sans-serif;" x="1535.0" y="1165">S960</text><line stroke="#000000" stroke-width="1.5" x1="1682.5" y1="1170" x2="1682.5" y2="1180"/><text style="font: 8px sans-serif;" x="1677.5" y="1165">S1055</text><line stroke="#000000" stroke-width="1.5" x1="1721.5" y1="1170" x2="1721.5" y2="1180"/><text style="font: 8px sans-serif;" x="1716.5" y="1165">S1081</text><text style="font: 15px sans-serif;" x="40" y="1255">YDR210C-D</text><rect stroke="#006FB0" stroke-width="1" x="100" y="1240" width="2632.5" height="20" fill="#B9E3FF"/><line stroke="#000000" stroke-width="1.5" x1="1540.0" y1="1230" x2="1540.0" y2="1240"/><text style="font: 8px sans-serif;" x="1535.0" y="1225">S960</text><line stroke="#000000" stroke-width="1.5" x1="1682.5" y1="1230" x2="1682.5" y2="1240"/><text style="font: 8px sans-serif;" x="1677.5" y="1225">S1055</text><line stroke="#000000" stroke-width="1.5" x1="1721.5" y1="1230" x2="1721.5" y2="1240"/><text style="font: 8px sans-serif;" x="1716.5" y="1225">S1081</text><text style="font: 15px sans-serif;" x="40" y="1315">YHR214C-B</text><rect stroke="#006FB0" stroke-width="1" x="100" y="1300" width="2689.5" height="20" fill="#B9E3FF"/><line stroke="#000000" stroke-width="1.5" x1="1540.0" y1="1290" x2="1540.0" y2="1300"/><text style="font: 8px sans-serif;" x="1535.0" y="1285">A960</text><text style="font: 15px sans-serif;" x="40" y="1375">YGR161C-D</text><rect stroke="#006FB0" stroke-width="1" x="100" y="1360" width="2632.5" height="20" fill="#B9E3FF"/><line stroke="#000000" stroke-width="1.5" x1="1540.0" y1="1350" x2="1540.0" y2="1360"/><text style="font: 8px sans-serif;" x="1535.0" y="1345">S960</text><text style="font: 15px sans-serif;" x="40" y="1435">YPR158C-D</text><rect stroke="#006FB0" stroke-width="1" x="100" y="1420" width="2632.5" height="20" fill="#B9E3FF"/><line stroke="#000000" stroke-width="1.5" x1="1721.5" y1="1410" x2="1721.5" y2="1420"/><text style="font: 8px sans-serif;" x="1716.5" y="1405">S1081</text><text style="font: 15px sans-serif;" x="40" y="1495">FIN1</text><rect stroke="#006FB0" stroke-width="1" x="100" y="1480" width="436.5" height="20" fill="#B9E3FF"/><line stroke="#000000" stroke-width="1.5" x1="275.5" y1="1470" x2="275.5" y2="1480"/><text style="font: 8px sans-serif;" x="270.5" y="1465">S117</text><text style="font: 15px sans-serif;" x="40" y="1555">YMR045C</text><rect stroke="#006FB0" stroke-width="1" x="100" y="1540" width="2632.5" height="20" fill="#B9E3FF"/><line stroke="#000000" stroke-width="1.5" x1="1540.0" y1="1530" x2="1540.0" y2="1540"/><text style="font: 8px sans-serif;" x="1535.0" y="1525">S960</text><text style="font: 15px sans-serif;" x="40" y="1615">YNL284C-B</text><rect stroke="#006FB0" stroke-width="1" x="100" y="1600" width="2632.5" height="20" fill="#B9E3FF"/><line stroke="#000000" stroke-width="1.5" x1="1540.0" y1="1590" x2="1540.0" y2="1600"/><text style="font: 8px sans-serif;" x="1535.0" y="1585">S960</text><text style="font: 15px sans-serif;" x="40" y="1675">ASK1</text><rect stroke="#006FB0" stroke-width="1" x="100" y="1660" width="438.0" height="20" fill="#B9E3FF"/><line stroke="#000000" stroke-width="1.5" x1="277.0" y1="1650" x2="277.0" y2="1660"/><text style="font: 8px sans-serif;" x="272.0" y="1645">S118</text><line stroke="#000000" stroke-width="1.5" x1="301.0" y1="1650" x2="301.0" y2="1660"/><text style="font: 8px sans-serif;" x="296.0" y="1645">S134</text><text style="font: 15px sans-serif;" x="40" y="1735">PSH1</text><rect stroke="#006FB0" stroke-width="1" x="100" y="1720" width="609.0" height="20" fill="#B9E3FF"/><line stroke="#000000" stroke-width="1.5" x1="314.5" y1="1710" x2="314.5" y2="1720"/><text style="font: 8px sans-serif;" x="309.5" y="1705">S143</text><line stroke="#000000" stroke-width="1.5" x1="386.5" y1="1710" x2="386.5" y2="1720"/><text style="font: 8px sans-serif;" x="381.5" y="1705">S191</text><line stroke="#000000" stroke-width="1.5" x1="565.0" y1="1710" x2="565.0" y2="1720"/><text style="font: 8px sans-serif;" x="560.0" y="1705">T310</text><text style="font: 15px sans-serif;" x="40" y="1795">DAM1</text><rect stroke="#006FB0" stroke-width="1" x="100" y="1780" width="514.5" height="20" fill="#B9E3FF"/><line stroke="#000000" stroke-width="1.5" x1="146.5" y1="1770" x2="146.5" y2="1780"/><text style="font: 8px sans-serif;" x="141.5" y="1765">S31</text><text style="font: 15px sans-serif;" x="40" y="1855">RSC3</text><rect stroke="#006FB0" stroke-width="1" x="100" y="1840" width="1327.5" height="20" fill="#B9E3FF"/><line stroke="#000000" stroke-width="1.5" x1="454.0" y1="1830" x2="454.0" y2="1840"/><text style="font: 8px sans-serif;" x="449.0" y="1825">S236</text><text style="font: 15px sans-serif;" x="40" y="1915">NCB2</text><rect stroke="#006FB0" stroke-width="1" x="100" y="1900" width="219.0" height="20" fill="#B9E3FF"/><line stroke="#000000" stroke-width="1.5" x1="317.5" y1="1890" x2="317.5" y2="1900"/><text style="font: 8px sans-serif;" x="312.5" y="1885">S145</text><text style="font: 15px sans-serif;" x="40" y="1975">CNN1</text><rect stroke="#006FB0" stroke-width="1" x="100" y="1960" width="541.5" height="20" fill="#B9E3FF"/><line stroke="#000000" stroke-width="1.5" x1="131.5" y1="1950" x2="131.5" y2="1960"/><text style="font: 8px sans-serif;" x="126.5" y="1945">T21</text></svg>