<svg xmlns="http://www.w3.org/2000/svg" width="2200" height="1100"><text style="font: 15px sans-serif;" x="40" y="175">NDC80</text><rect stroke="#006FB0" stroke-width="1" x="100" y="160" width="1036.5" height="20" fill="#B9E3FF"/><line stroke="#000000" stroke-width="1.5" x1="472.0" y1="150" x2="472.0" y2="160"/><text style="font: 8px sans-serif;" x="467.0" y="145">T248</text><text style="font: 15px sans-serif;" x="40" y="235">SPC105</text><rect stroke="#006FB0" stroke-width="1" x="100" y="220" width="1375.5" height="20" fill="#B9E3FF"/><line stroke="#000000" stroke-width="1.5" x1="358.0" y1="210" x2="358.0" y2="220"/><text style="font: 8px sans-serif;" x="353.0" y="205">T172</text><line stroke="#000000" stroke-width="1.5" x1="593.5" y1="210" x2="593.5" y2="220"/><text style="font: 8px sans-serif;" x="588.5" y="205">S329</text><line stroke="#000000" stroke-width="1.5" x1="634.0" y1="210" x2="634.0" y2="220"/><text style="font: 8px sans-serif;" x="629.0" y="205">T356</text><text style="font: 15px sans-serif;" x="40" y="295">BUB1</text><rect stroke="#006FB0" stroke-width="1" x="100" y="280" width="1531.5" height="20" fill="#B9E3FF"/><line stroke="#000000" stroke-width="1.5" x1="121.0" y1="270" x2="121.0" y2="280"/><text style="font: 8px sans-serif;" x="116.0" y="265">S14</text><line stroke="#000000" stroke-width="1.5" x1="142.0" y1="270" x2="142.0" y2="280"/><text style="font: 8px sans-serif;" x="137.0" y="265">S28</text><line stroke="#000000" stroke-width="1.5" x1="908.5" y1="270" x2="908.5" y2="280"/><text style="font: 8px sans-serif;" x="903.5" y="265">S539</text><text style="font: 15px sans-serif;" x="40" y="355">DSN1</text><rect stroke="#006FB0" stroke-width="1" x="100" y="340" width="864.0" height="20" fill="#B9E3FF"/><line stroke="#000000" stroke-width="1.5" x1="109.0" y1="330" x2="109.0" y2="340"/><text style="font: 8px sans-serif;" x="104.0" y="325">T6</text><line stroke="#000000" stroke-width="1.5" x1="475.0" y1="330" x2="475.0" y2="340"/><text style="font: 8px sans-serif;" x="470.0" y="325">S250</text><line stroke="#000000" stroke-width="1.5" x1="496.0" y1="330" x2="496.0" y2="340"/><text style="font: 8px sans-serif;" x="491.0" y="325">S264</text><line stroke="#000000" stroke-width="1.5" x1="931.0" y1="330" x2="931.0" y2="340"/><text style="font: 8px sans-serif;" x="926.0" y="325">S554</text><text style="font: 15px sans-serif;" x="40" y="415">MPS1</text><rect stroke="#006FB0" stroke-width="1" x="100" y="400" width="1146.0" height="20" fill="#B9E3FF"/><line stroke="#000000" stroke-width="1.5" x1="604.0" y1="390" x2="604.0" y2="400"/><text style="font: 8px sans-serif;" x="599.0" y="385">S336</text><text style="font: 15px sans-serif;" x="40" y="475">OKP1</text><rect stroke="#006FB0" stroke-width="1" x="100" y="460" width="609.0" height="20" fill="#B9E3FF"/><line stroke="#000000" stroke-width="1.5" x1="205.0" y1="450" x2="205.0" y2="460"/><text style="font: 8px sans-serif;" x="200.0" y="445">S70</text><line stroke="#000000" stroke-width="1.5" x1="271.0" y1="450" x2="271.0" y2="460"/><text style="font: 8px sans-serif;" x="266.0" y="445">S114</text><text style="font: 15px sans-serif;" x="40" y="535">NSL1</text><rect stroke="#006FB0" stroke-width="1" x="100" y="520" width="324.0" height="20" fill="#B9E3FF"/><line stroke="#000000" stroke-width="1.5" x1="347.5" y1="510" x2="347.5" y2="520"/><text style="font: 8px sans-serif;" x="342.5" y="505">S165</text><text style="font: 15px sans-serif;" x="40" y="595">MIF2</text><rect stroke="#006FB0" stroke-width="1" x="100" y="580" width="823.5" height="20" fill="#B9E3FF"/><line stroke="#000000" stroke-width="1.5" x1="179.5" y1="570" x2="179.5" y2="580"/><text style="font: 8px sans-serif;" x="174.5" y="565">S53</text><line stroke="#000000" stroke-width="1.5" x1="181.0" y1="570" x2="181.0" y2="580"/><text style="font: 8px sans-serif;" x="176.0" y="565">S54</text><line stroke="#000000" stroke-width="1.5" x1="217.0" y1="570" x2="217.0" y2="580"/><text style="font: 8px sans-serif;" x="212.0" y="565">S78</text><text style="font: 15px sans-serif;" x="40" y="655">AME1</text><rect stroke="#006FB0" stroke-width="1" x="100" y="640" width="486.0" height="20" fill="#B9E3FF"/><line stroke="#000000" stroke-width="1.5" x1="146.5" y1="630" x2="146.5" y2="640"/><text style="font: 8px sans-serif;" x="141.5" y="625">T31</text><line stroke="#000000" stroke-width="1.5" x1="161.5" y1="630" x2="161.5" y2="640"/><text style="font: 8px sans-serif;" x="156.5" y="625">S41</text><line stroke="#000000" stroke-width="1.5" x1="167.5" y1="630" x2="167.5" y2="640"/><text style="font: 8px sans-serif;" x="162.5" y="625">S45</text><text style="font: 15px sans-serif;" x="40" y="715">MAD1</text><rect stroke="#006FB0" stroke-width="1" x="100" y="700" width="1123.5" height="20" fill="#B9E3FF"/><line stroke="#000000" stroke-width="1.5" x1="460.0" y1="690" x2="460.0" y2="700"/><text style="font: 8px sans-serif;" x="455.0" y="685">T240</text><line stroke="#000000" stroke-width="1.5" x1="853.0" y1="690" x2="853.0" y2="700"/><text style="font: 8px sans-serif;" x="848.0" y="685">T502</text><text style="font: 15px sans-serif;" x="40" y="775">FIN1</text><rect stroke="#006FB0" stroke-width="1" x="100" y="760" width="436.5" height="20" fill="#B9E3FF"/><line stroke="#000000" stroke-width="1.5" x1="211.0" y1="750" x2="211.0" y2="760"/><text style="font: 8px sans-serif;" x="206.0" y="745">S74</text><line stroke="#000000" stroke-width="1.5" x1="229.0" y1="750" x2="229.0" y2="760"/><text style="font: 8px sans-serif;" x="224.0" y="745">T86</text><line stroke="#000000" stroke-width="1.5" x1="275.5" y1="750" x2="275.5" y2="760"/><text style="font: 8px sans-serif;" x="270.5" y="745">S117</text><text style="font: 15px sans-serif;" x="40" y="835">ASK1</text><rect stroke="#006FB0" stroke-width="1" x="100" y="820" width="438.0" height="20" fill="#B9E3FF"/><line stroke="#000000" stroke-width="1.5" x1="301.0" y1="810" x2="301.0" y2="820"/><text style="font: 8px sans-serif;" x="296.0" y="805">S134</text><text style="font: 15px sans-serif;" x="40" y="895">PSH1</text><rect stroke="#006FB0" stroke-width="1" x="100" y="880" width="609.0" height="20" fill="#B9E3FF"/><line stroke="#000000" stroke-width="1.5" x1="565.0" y1="870" x2="565.0" y2="880"/><text style="font: 8px sans-serif;" x="560.0" y="865">T310</text><text style="font: 15px sans-serif;" x="40" y="955">DAM1</text><rect stroke="#006FB0" stroke-width="1" x="100" y="940" width="514.5" height="20" fill="#B9E3FF"/><line stroke="#000000" stroke-width="1.5" x1="146.5" y1="930" x2="146.5" y2="940"/><text style="font: 8px sans-serif;" x="141.5" y="925">S31</text><text style="font: 15px sans-serif;" x="40" y="1015">MCM2</text><rect stroke="#006FB0" stroke-width="1" x="100" y="1000" width="1302.0" height="20" fill="#B9E3FF"/><line stroke="#000000" stroke-width="1.5" x1="920.5" y1="990" x2="920.5" y2="1000"/><text style="font: 8px sans-serif;" x="915.5" y="985">T547</text></svg>