<svg xmlns="http://www.w3.org/2000/svg" width="2200" height="380"><text style="font: 15px sans-serif;" x="40" y="175">MPS1</text><rect stroke="#006FB0" stroke-width="1" x="100" y="160" width="1146.0" height="20" fill="#B9E3FF"/><line stroke="#000000" stroke-width="1.5" x1="521.5" y1="150" x2="521.5" y2="160"/><text style="font: 8px sans-serif;" x="516.5" y="145">S281</text><line stroke="#000000" stroke-width="1.5" x1="548.5" y1="150" x2="548.5" y2="160"/><text style="font: 8px sans-serif;" x="543.5" y="145">S299</text><line stroke="#000000" stroke-width="1.5" x1="568.0" y1="150" x2="568.0" y2="160"/><text style="font: 8px sans-serif;" x="563.0" y="145">S312</text><line stroke="#000000" stroke-width="1.5" x1="598.0" y1="150" x2="598.0" y2="160"/><text style="font: 8px sans-serif;" x="593.0" y="145">S332</text><text style="font: 15px sans-serif;" x="40" y="235">SPC105</text><rect stroke="#006FB0" stroke-width="1" x="100" y="220" width="1375.5" height="20" fill="#B9E3FF"/><line stroke="#000000" stroke-width="1.5" x1="475.0" y1="210" x2="475.0" y2="220"/><text style="font: 8px sans-serif;" x="470.0" y="205">S250</text><line stroke="#000000" stroke-width="1.5" x1="634.0" y1="210" x2="634.0" y2="220"/><text style="font: 8px sans-serif;" x="629.0" y="205">T356</text><text style="font: 15px sans-serif;" x="40" y="295">SPC24</text><rect stroke="#006FB0" stroke-width="1" x="100" y="280" width="319.5" height="20" fill="#B9E3FF"/><line stroke="#000000" stroke-width="1.5" x1="295.0" y1="270" x2="295.0" y2="280"/><text style="font: 8px sans-serif;" x="290.0" y="265">T130</text><line stroke="#000000" stroke-width="1.5" x1="301.0" y1="270" x2="301.0" y2="280"/><text style="font: 8px sans-serif;" x="296.0" y="265">S134</text></svg>