<svg xmlns="http://www.w3.org/2000/svg" width="2200" height="1220"><text style="font: 15px sans-serif;" x="40" y="175">NDC80</text><rect stroke="#006FB0" stroke-width="1" x="100" y="160" width="1036.5" height="20" fill="#B9E3FF"/><line stroke="#000000" stroke-width="1.5" x1="830.5" y1="150" x2="830.5" y2="160"/><text style="font: 8px sans-serif;" x="825.5" y="145">S487</text><text style="font: 15px sans-serif;" x="40" y="235">MPS1</text><rect stroke="#006FB0" stroke-width="1" x="100" y="220" width="1146.0" height="20" fill="#B9E3FF"/><line stroke="#000000" stroke-width="1.5" x1="107.5" y1="210" x2="107.5" y2="220"/><text style="font: 8px sans-serif;" x="102.5" y="205">S5</text><line stroke="#000000" stroke-width="1.5" x1="133.0" y1="210" x2="133.0" y2="220"/><text style="font: 8px sans-serif;" x="128.0" y="205">S22</text><line stroke="#000000" stroke-width="1.5" x1="175.0" y1="210" x2="175.0" y2="220"/><text style="font: 8px sans-serif;" x="170.0" y="205">S50</text><line stroke="#000000" stroke-width="1.5" x1="571.0" y1="210" x2="571.0" y2="220"/><text style="font: 8px sans-serif;" x="566.0" y="205">S314</text><line stroke="#000000" stroke-width="1.5" x1="598.0" y1="210" x2="598.0" y2="220"/><text style="font: 8px sans-serif;" x="593.0" y="205">S332</text><line stroke="#000000" stroke-width="1.5" x1="604.0" y1="210" x2="604.0" y2="220"/><text style="font: 8px sans-serif;" x="599.0" y="205">S336</text><line stroke="#000000" stroke-width="1.5" x1="644.5" y1="210" x2="644.5" y2="220"/><text style="font: 8px sans-serif;" x="639.5" y="205">S363</text><line stroke="#000000" stroke-width="1.5" x1="674.5" y1="210" x2="674.5" y2="220"/><text style="font: 8px sans-serif;" x="669.5" y="205">S383</text><line stroke="#000000" stroke-width="1.5" x1="737.5" y1="210" x2="737.5" y2="220"/><text style="font: 8px sans-serif;" x="732.5" y="205">S425</text><text style="font: 15px sans-serif;" x="40" y="295">SPC25</text><rect stroke="#006FB0" stroke-width="1" x="100" y="280" width="331.5" height="20" fill="#B9E3FF"/><line stroke="#000000" stroke-width="1.5" x1="250.0" y1="270" x2="250.0" y2="280"/><text style="font: 8px sans-serif;" x="245.0" y="265">S100</text><text style="font: 15px sans-serif;" x="40" y="355">FIN1</text><rect stroke="#006FB0" stroke-width="1" x="100" y="340" width="436.5" height="20" fill="#B9E3FF"/><line stroke="#000000" stroke-width="1.5" x1="154.0" y1="330" x2="154.0" y2="340"/><text style="font: 8px sans-serif;" x="149.0" y="325">S36</text><text style="font: 15px sans-serif;" x="40" y="415">SPC24</text><rect stroke="#006FB0" stroke-width="1" x="100" y="400" width="319.5" height="20" fill="#B9E3FF"/><line stroke="#000000" stroke-width="1.5" x1="103.0" y1="390" x2="103.0" y2="400"/><text style="font: 8px sans-serif;" x="98.0" y="385">S2</text><line stroke="#000000" stroke-width="1.5" x1="293.5" y1="390" x2="293.5" y2="400"/><text style="font: 8px sans-serif;" x="288.5" y="385">S129</text><line stroke="#000000" stroke-width="1.5" x1="295.0" y1="390" x2="295.0" y2="400"/><text style="font: 8px sans-serif;" x="290.0" y="385">T130</text><line stroke="#000000" stroke-width="1.5" x1="301.0" y1="390" x2="301.0" y2="400"/><text style="font: 8px sans-serif;" x="296.0" y="385">S134</text><text style="font: 15px sans-serif;" x="40" y="475">CNN1</text><rect stroke="#006FB0" stroke-width="1" x="100" y="460" width="541.5" height="20" fill="#B9E3FF"/><line stroke="#000000" stroke-width="1.5" x1="131.5" y1="450" x2="131.5" y2="460"/><text style="font: 8px sans-serif;" x="126.5" y="445">T21</text><line stroke="#000000" stroke-width="1.5" x1="163.0" y1="450" x2="163.0" y2="460"/><text style="font: 8px sans-serif;" x="158.0" y="445">T42</text><text style="font: 15px sans-serif;" x="40" y="535">DSN1</text><rect stroke="#006FB0" stroke-width="1" x="100" y="520" width="864.0" height="20" fill="#B9E3FF"/><line stroke="#000000" stroke-width="1.5" x1="931.0" y1="510" x2="931.0" y2="520"/><text style="font: 8px sans-serif;" x="926.0" y="505">S554</text><text style="font: 15px sans-serif;" x="40" y="595">PHO84</text><rect stroke="#006FB0" stroke-width="1" x="100" y="580" width="880.5" height="20" fill="#B9E3FF"/><line stroke="#000000" stroke-width="1.5" x1="554.5" y1="570" x2="554.5" y2="580"/><text style="font: 8px sans-serif;" x="549.5" y="565">S303</text><line stroke="#000000" stroke-width="1.5" x1="968.5" y1="570" x2="968.5" y2="580"/><text style="font: 8px sans-serif;" x="963.5" y="565">S579</text><text style="font: 15px sans-serif;" x="40" y="655">MYO5</text><rect stroke="#006FB0" stroke-width="1" x="100" y="640" width="1828.5" height="20" fill="#B9E3FF"/><line stroke="#000000" stroke-width="1.5" x1="1264.0" y1="630" x2="1264.0" y2="640"/><text style="font: 8px sans-serif;" x="1259.0" y="625">M776</text><text style="font: 15px sans-serif;" x="40" y="715">ASK1</text><rect stroke="#006FB0" stroke-width="1" x="100" y="700" width="438.0" height="20" fill="#B9E3FF"/><line stroke="#000000" stroke-width="1.5" x1="277.0" y1="690" x2="277.0" y2="700"/><text style="font: 8px sans-serif;" x="272.0" y="685">S118</text><text style="font: 15px sans-serif;" x="40" y="775">MYO3</text><rect stroke="#006FB0" stroke-width="1" x="100" y="760" width="1908.0" height="20" fill="#B9E3FF"/><line stroke="#000000" stroke-width="1.5" x1="1264.0" y1="750" x2="1264.0" y2="760"/><text style="font: 8px sans-serif;" x="1259.0" y="745">M776</text><text style="font: 15px sans-serif;" x="40" y="835">MIF2</text><rect stroke="#006FB0" stroke-width="1" x="100" y="820" width="823.5" height="20" fill="#B9E3FF"/><line stroke="#000000" stroke-width="1.5" x1="181.0" y1="810" x2="181.0" y2="820"/><text style="font: 8px sans-serif;" x="176.0" y="805">S54</text><text style="font: 15px sans-serif;" x="40" y="895">PDA1</text><rect stroke="#006FB0" stroke-width="1" x="100" y="880" width="630.0" height="20" fill="#B9E3FF"/><line stroke="#000000" stroke-width="1.5" x1="569.5" y1="870" x2="569.5" y2="880"/><text style="font: 8px sans-serif;" x="564.5" y="865">S313</text><text style="font: 15px sans-serif;" x="40" y="955">TAT1</text><rect stroke="#006FB0" stroke-width="1" x="100" y="940" width="928.5" height="20" fill="#B9E3FF"/><line stroke="#000000" stroke-width="1.5" x1="130.0" y1="930" x2="130.0" y2="940"/><text style="font: 8px sans-serif;" x="125.0" y="925">S20</text><text style="font: 15px sans-serif;" x="40" y="1015">GLK1</text><rect stroke="#006FB0" stroke-width="1" x="100" y="1000" width="750.0" height="20" fill="#B9E3FF"/><line stroke="#000000" stroke-width="1.5" x1="103.0" y1="990" x2="103.0" y2="1000"/><text style="font: 8px sans-serif;" x="98.0" y="985">S2</text><text style="font: 15px sans-serif;" x="40" y="1075">KIN4</text><rect stroke="#006FB0" stroke-width="1" x="100" y="1060" width="1200.0" height="20" fill="#B9E3FF"/><line stroke="#000000" stroke-width="1.5" x1="682.0" y1="1050" x2="682.0" y2="1060"/><text style="font: 8px sans-serif;" x="677.0" y="1045">S388</text><text style="font: 15px sans-serif;" x="40" y="1135">MED4</text><rect stroke="#006FB0" stroke-width="1" x="100" y="1120" width="426.0" height="20" fill="#B9E3FF"/><line stroke="#000000" stroke-width="1.5" x1="455.5" y1="1110" x2="455.5" y2="1120"/><text style="font: 8px sans-serif;" x="450.5" y="1105">T237</text></svg>