<svg xmlns="http://www.w3.org/2000/svg" width="2200" height="1040"><text style="font: 15px sans-serif;" x="40" y="175">CNN1</text><rect stroke="#006FB0" stroke-width="1" x="100" y="160" width="541.5" height="20" fill="#B9E3FF"/><line stroke="#000000" stroke-width="1.5" x1="131.5" y1="150" x2="131.5" y2="160"/><text style="font: 8px sans-serif;" x="126.5" y="145">T21</text><line stroke="#000000" stroke-width="1.5" x1="163.0" y1="150" x2="163.0" y2="160"/><text style="font: 8px sans-serif;" x="158.0" y="145">T42</text><text style="font: 15px sans-serif;" x="40" y="235">MPS1</text><rect stroke="#006FB0" stroke-width="1" x="100" y="220" width="1146.0" height="20" fill="#B9E3FF"/><line stroke="#000000" stroke-width="1.5" x1="107.5" y1="210" x2="107.5" y2="220"/><text style="font: 8px sans-serif;" x="102.5" y="205">S5</text><line stroke="#000000" stroke-width="1.5" x1="133.0" y1="210" x2="133.0" y2="220"/><text style="font: 8px sans-serif;" x="128.0" y="205">S22</text><line stroke="#000000" stroke-width="1.5" x1="181.0" y1="210" x2="181.0" y2="220"/><text style="font: 8px sans-serif;" x="176.0" y="205">S54</text><line stroke="#000000" stroke-width="1.5" x1="604.0" y1="210" x2="604.0" y2="220"/><text style="font: 8px sans-serif;" x="599.0" y="205">S336</text><line stroke="#000000" stroke-width="1.5" x1="683.5" y1="210" x2="683.5" y2="220"/><text style="font: 8px sans-serif;" x="678.5" y="205">T389</text><text style="font: 15px sans-serif;" x="40" y="295">SPC25</text><rect stroke="#006FB0" stroke-width="1" x="100" y="280" width="331.5" height="20" fill="#B9E3FF"/><line stroke="#000000" stroke-width="1.5" x1="250.0" y1="270" x2="250.0" y2="280"/><text style="font: 8px sans-serif;" x="245.0" y="265">S100</text><text style="font: 15px sans-serif;" x="40" y="355">PHO84</text><rect stroke="#006FB0" stroke-width="1" x="100" y="340" width="880.5" height="20" fill="#B9E3FF"/><line stroke="#000000" stroke-width="1.5" x1="553.0" y1="330" x2="553.0" y2="340"/><text style="font: 8px sans-serif;" x="548.0" y="325">T302</text><line stroke="#000000" stroke-width="1.5" x1="554.5" y1="330" x2="554.5" y2="340"/><text style="font: 8px sans-serif;" x="549.5" y="325">S303</text><line stroke="#000000" stroke-width="1.5" x1="581.5" y1="330" x2="581.5" y2="340"/><text style="font: 8px sans-serif;" x="576.5" y="325">S321</text><text style="font: 15px sans-serif;" x="40" y="415">SKG6</text><rect stroke="#006FB0" stroke-width="1" x="100" y="400" width="1101.0" height="20" fill="#B9E3FF"/><line stroke="#000000" stroke-width="1.5" x1="353.5" y1="390" x2="353.5" y2="400"/><text style="font: 8px sans-serif;" x="348.5" y="385">T169</text><text style="font: 15px sans-serif;" x="40" y="475">SPC105</text><rect stroke="#006FB0" stroke-width="1" x="100" y="460" width="1375.5" height="20" fill="#B9E3FF"/><line stroke="#000000" stroke-width="1.5" x1="634.0" y1="450" x2="634.0" y2="460"/><text style="font: 8px sans-serif;" x="629.0" y="445">T356</text><text style="font: 15px sans-serif;" x="40" y="535">MYO3</text><rect stroke="#006FB0" stroke-width="1" x="100" y="520" width="1908.0" height="20" fill="#B9E3FF"/><line stroke="#000000" stroke-width="1.5" x1="1264.0" y1="510" x2="1264.0" y2="520"/><text style="font: 8px sans-serif;" x="1259.0" y="505">M776</text><text style="font: 15px sans-serif;" x="40" y="595">MYO5</text><rect stroke="#006FB0" stroke-width="1" x="100" y="580" width="1828.5" height="20" fill="#B9E3FF"/><line stroke="#000000" stroke-width="1.5" x1="1264.0" y1="570" x2="1264.0" y2="580"/><text style="font: 8px sans-serif;" x="1259.0" y="565">M776</text><text style="font: 15px sans-serif;" x="40" y="655">PAF1</text><rect stroke="#006FB0" stroke-width="1" x="100" y="640" width="667.5" height="20" fill="#B9E3FF"/><line stroke="#000000" stroke-width="1.5" x1="320.5" y1="630" x2="320.5" y2="640"/><text style="font: 8px sans-serif;" x="315.5" y="625">S147</text><text style="font: 15px sans-serif;" x="40" y="715">TAT1</text><rect stroke="#006FB0" stroke-width="1" x="100" y="700" width="928.5" height="20" fill="#B9E3FF"/><line stroke="#000000" stroke-width="1.5" x1="127.0" y1="690" x2="127.0" y2="700"/><text style="font: 8px sans-serif;" x="122.0" y="685">S18</text><text style="font: 15px sans-serif;" x="40" y="775">SLG1</text><rect stroke="#006FB0" stroke-width="1" x="100" y="760" width="567.0" height="20" fill="#B9E3FF"/><line stroke="#000000" stroke-width="1.5" x1="629.5" y1="750" x2="629.5" y2="760"/><text style="font: 8px sans-serif;" x="624.5" y="745">S353</text><text style="font: 15px sans-serif;" x="40" y="835">ACE2</text><rect stroke="#006FB0" stroke-width="1" x="100" y="820" width="1155.0" height="20" fill="#B9E3FF"/><line stroke="#000000" stroke-width="1.5" x1="220.0" y1="810" x2="220.0" y2="820"/><text style="font: 8px sans-serif;" x="215.0" y="805">S80</text><text style="font: 15px sans-serif;" x="40" y="895">CSA1</text><rect stroke="#006FB0" stroke-width="1" x="100" y="880" width="331.5" height="20" fill="#B9E3FF"/><line stroke="#000000" stroke-width="1.5" x1="368.5" y1="870" x2="368.5" y2="880"/><text style="font: 8px sans-serif;" x="363.5" y="865">S179</text><text style="font: 15px sans-serif;" x="40" y="955">PSH1</text><rect stroke="#006FB0" stroke-width="1" x="100" y="940" width="609.0" height="20" fill="#B9E3FF"/><line stroke="#000000" stroke-width="1.5" x1="314.5" y1="930" x2="314.5" y2="940"/><text style="font: 8px sans-serif;" x="309.5" y="925">S143</text></svg>