<svg xmlns="http://www.w3.org/2000/svg" width="3492.5" height="3320"><text style="font: 15px sans-serif;" x="40" y="175">NDC80</text><rect stroke="#006FB0" stroke-width="1" x="100" y="160" width="1036.5" height="20" fill="#B9E3FF"/><line stroke="#000000" stroke-width="1.5" x1="155.5" y1="150" x2="155.5" y2="160"/><text style="font: 8px sans-serif;" x="150.5" y="145">S37</text><line stroke="#000000" stroke-width="1.5" x1="157.0" y1="150" x2="157.0" y2="160"/><text style="font: 8px sans-serif;" x="152.0" y="145">T38</text><line stroke="#000000" stroke-width="1.5" x1="181.0" y1="150" x2="181.0" y2="160"/><text style="font: 8px sans-serif;" x="176.0" y="145">T54</text><line stroke="#000000" stroke-width="1.5" x1="211.0" y1="150" x2="211.0" y2="160"/><text style="font: 8px sans-serif;" x="206.0" y="145">T74</text><line stroke="#000000" stroke-width="1.5" x1="242.5" y1="150" x2="242.5" y2="160"/><text style="font: 8px sans-serif;" x="237.5" y="145">S95</text><line stroke="#000000" stroke-width="1.5" x1="472.0" y1="150" x2="472.0" y2="160"/><text style="font: 8px sans-serif;" x="467.0" y="145">T248</text><line stroke="#000000" stroke-width="1.5" x1="482.5" y1="150" x2="482.5" y2="160"/><text style="font: 8px sans-serif;" x="477.5" y="145">S255</text><line stroke="#000000" stroke-width="1.5" x1="830.5" y1="150" x2="830.5" y2="160"/><text style="font: 8px sans-serif;" x="825.5" y="145">S487</text><line stroke="#000000" stroke-width="1.5" x1="1135.0" y1="150" x2="1135.0" y2="160"/><text style="font: 8px sans-serif;" x="1130.0" y="145">T690</text><text style="font: 15px sans-serif;" x="40" y="235">SPC105</text><rect stroke="#006FB0" stroke-width="1" x="100" y="220" width="1375.5" height="20" fill="#B9E3FF"/><line stroke="#000000" stroke-width="1.5" x1="199.0" y1="210" x2="199.0" y2="220"/><text style="font: 8px sans-serif;" x="194.0" y="205">S66</text><line stroke="#000000" stroke-width="1.5" x1="215.5" y1="210" x2="215.5" y2="220"/><text style="font: 8px sans-serif;" x="210.5" y="205">S77</text><line stroke="#000000" stroke-width="1.5" x1="229.0" y1="210" x2="229.0" y2="220"/><text style="font: 8px sans-serif;" x="224.0" y="205">S86</text><line stroke="#000000" stroke-width="1.5" x1="266.5" y1="210" x2="266.5" y2="220"/><text style="font: 8px sans-serif;" x="261.5" y="205">T111</text><line stroke="#000000" stroke-width="1.5" x1="316.0" y1="210" x2="316.0" y2="220"/><text style="font: 8px sans-serif;" x="311.0" y="205">S144</text><line stroke="#000000" stroke-width="1.5" x1="593.5" y1="210" x2="593.5" y2="220"/><text style="font: 8px sans-serif;" x="588.5" y="205">S329</text><line stroke="#000000" stroke-width="1.5" x1="634.0" y1="210" x2="634.0" y2="220"/><text style="font: 8px sans-serif;" x="629.0" y="205">T356</text><line stroke="#000000" stroke-width="1.5" x1="646.0" y1="210" x2="646.0" y2="220"/><text style="font: 8px sans-serif;" x="641.0" y="205">T364</text><line stroke="#000000" stroke-width="1.5" x1="670.0" y1="210" x2="670.0" y2="220"/><text style="font: 8px sans-serif;" x="665.0" y="205">S380</text><line stroke="#000000" stroke-width="1.5" x1="677.5" y1="210" x2="677.5" y2="220"/><text style="font: 8px sans-serif;" x="672.5" y="205">S385</text><line stroke="#000000" stroke-width="1.5" x1="721.0" y1="210" x2="721.0" y2="220"/><text style="font: 8px sans-serif;" x="716.0" y="205">T414</text><line stroke="#000000" stroke-width="1.5" x1="767.5" y1="210" x2="767.5" y2="220"/><text style="font: 8px sans-serif;" x="762.5" y="205">S445</text><text style="font: 15px sans-serif;" x="40" y="295">DSN1</text><rect stroke="#006FB0" stroke-width="1" x="100" y="280" width="864.0" height="20" fill="#B9E3FF"/><line stroke="#000000" stroke-width="1.5" x1="115.0" y1="270" x2="115.0" y2="280"/><text style="font: 8px sans-serif;" x="110.0" y="265">S10</text><line stroke="#000000" stroke-width="1.5" x1="118.0" y1="270" x2="118.0" y2="280"/><text style="font: 8px sans-serif;" x="113.0" y="265">T12</text><line stroke="#000000" stroke-width="1.5" x1="203.5" y1="270" x2="203.5" y2="280"/><text style="font: 8px sans-serif;" x="198.5" y="265">S69</text><line stroke="#000000" stroke-width="1.5" x1="475.0" y1="270" x2="475.0" y2="280"/><text style="font: 8px sans-serif;" x="470.0" y="265">S250</text><line stroke="#000000" stroke-width="1.5" x1="496.0" y1="270" x2="496.0" y2="280"/><text style="font: 8px sans-serif;" x="491.0" y="265">S264</text><line stroke="#000000" stroke-width="1.5" x1="920.5" y1="270" x2="920.5" y2="280"/><text style="font: 8px sans-serif;" x="915.5" y="265">S547</text><line stroke="#000000" stroke-width="1.5" x1="931.0" y1="270" x2="931.0" y2="280"/><text style="font: 8px sans-serif;" x="926.0" y="265">S554</text><text style="font: 15px sans-serif;" x="40" y="355">STU2</text><rect stroke="#006FB0" stroke-width="1" x="100" y="340" width="1332.0" height="20" fill="#B9E3FF"/><line stroke="#000000" stroke-width="1.5" x1="1004.5" y1="330" x2="1004.5" y2="340"/><text style="font: 8px sans-serif;" x="999.5" y="325">S603</text><line stroke="#000000" stroke-width="1.5" x1="1319.5" y1="330" x2="1319.5" y2="340"/><text style="font: 8px sans-serif;" x="1314.5" y="325">S813</text><text style="font: 15px sans-serif;" x="40" y="415">MPS1</text><rect stroke="#006FB0" stroke-width="1" x="100" y="400" width="1146.0" height="20" fill="#B9E3FF"/><line stroke="#000000" stroke-width="1.5" x1="107.5" y1="390" x2="107.5" y2="400"/><text style="font: 8px sans-serif;" x="102.5" y="385">S5</text><line stroke="#000000" stroke-width="1.5" x1="133.0" y1="390" x2="133.0" y2="400"/><text style="font: 8px sans-serif;" x="128.0" y="385">S22</text><line stroke="#000000" stroke-width="1.5" x1="142.0" y1="390" x2="142.0" y2="400"/><text style="font: 8px sans-serif;" x="137.0" y="385">T28</text><line stroke="#000000" stroke-width="1.5" x1="172.0" y1="390" x2="172.0" y2="400"/><text style="font: 8px sans-serif;" x="167.0" y="385">S48</text><line stroke="#000000" stroke-width="1.5" x1="244.0" y1="390" x2="244.0" y2="400"/><text style="font: 8px sans-serif;" x="239.0" y="385">T96</text><line stroke="#000000" stroke-width="1.5" x1="593.5" y1="390" x2="593.5" y2="400"/><text style="font: 8px sans-serif;" x="588.5" y="385">S329</text><line stroke="#000000" stroke-width="1.5" x1="604.0" y1="390" x2="604.0" y2="400"/><text style="font: 8px sans-serif;" x="599.0" y="385">S336</text><line stroke="#000000" stroke-width="1.5" x1="674.5" y1="390" x2="674.5" y2="400"/><text style="font: 8px sans-serif;" x="669.5" y="385">S383</text><line stroke="#000000" stroke-width="1.5" x1="737.5" y1="390" x2="737.5" y2="400"/><text style="font: 8px sans-serif;" x="732.5" y="385">S425</text><line stroke="#000000" stroke-width="1.5" x1="1231.0" y1="390" x2="1231.0" y2="400"/><text style="font: 8px sans-serif;" x="1226.0" y="385">T754</text><text style="font: 15px sans-serif;" x="40" y="475">NET1</text><rect stroke="#006FB0" stroke-width="1" x="100" y="460" width="1783.5" height="20" fill="#B9E3FF"/><line stroke="#000000" stroke-width="1.5" x1="446.5" y1="450" x2="446.5" y2="460"/><text style="font: 8px sans-serif;" x="441.5" y="445">S231</text><line stroke="#000000" stroke-width="1.5" x1="778.0" y1="450" x2="778.0" y2="460"/><text style="font: 8px sans-serif;" x="773.0" y="445">S452</text><line stroke="#000000" stroke-width="1.5" x1="844.0" y1="450" x2="844.0" y2="460"/><text style="font: 8px sans-serif;" x="839.0" y="445">S496</text><line stroke="#000000" stroke-width="1.5" x1="1360.0" y1="450" x2="1360.0" y2="460"/><text style="font: 8px sans-serif;" x="1355.0" y="445">S840</text><line stroke="#000000" stroke-width="1.5" x1="1648.0" y1="450" x2="1648.0" y2="460"/><text style="font: 8px sans-serif;" x="1643.0" y="445">S1032</text><line stroke="#000000" stroke-width="1.5" x1="1688.5" y1="450" x2="1688.5" y2="460"/><text style="font: 8px sans-serif;" x="1683.5" y="445">S1059</text><line stroke="#000000" stroke-width="1.5" x1="1723.0" y1="450" x2="1723.0" y2="460"/><text style="font: 8px sans-serif;" x="1718.0" y="445">S1082</text><line stroke="#000000" stroke-width="1.5" x1="1727.5" y1="450" x2="1727.5" y2="460"/><text style="font: 8px sans-serif;" x="1722.5" y="445">S1085</text><text style="font: 15px sans-serif;" x="40" y="535">FIN1</text><rect stroke="#006FB0" stroke-width="1" x="100" y="520" width="436.5" height="20" fill="#B9E3FF"/><line stroke="#000000" stroke-width="1.5" x1="154.0" y1="510" x2="154.0" y2="520"/><text style="font: 8px sans-serif;" x="149.0" y="505">S36</text><line stroke="#000000" stroke-width="1.5" x1="160.0" y1="510" x2="160.0" y2="520"/><text style="font: 8px sans-serif;" x="155.0" y="505">T40</text><line stroke="#000000" stroke-width="1.5" x1="181.0" y1="510" x2="181.0" y2="520"/><text style="font: 8px sans-serif;" x="176.0" y="505">S54</text><line stroke="#000000" stroke-width="1.5" x1="211.0" y1="510" x2="211.0" y2="520"/><text style="font: 8px sans-serif;" x="206.0" y="505">S74</text><line stroke="#000000" stroke-width="1.5" x1="232.0" y1="510" x2="232.0" y2="520"/><text style="font: 8px sans-serif;" x="227.0" y="505">S88</text><line stroke="#000000" stroke-width="1.5" x1="322.0" y1="510" x2="322.0" y2="520"/><text style="font: 8px sans-serif;" x="317.0" y="505">S148</text><text style="font: 15px sans-serif;" x="40" y="595">SPC24</text><rect stroke="#006FB0" stroke-width="1" x="100" y="580" width="319.5" height="20" fill="#B9E3FF"/><line stroke="#000000" stroke-width="1.5" x1="103.0" y1="570" x2="103.0" y2="580"/><text style="font: 8px sans-serif;" x="98.0" y="565">S2</text><line stroke="#000000" stroke-width="1.5" x1="295.0" y1="570" x2="295.0" y2="580"/><text style="font: 8px sans-serif;" x="290.0" y="565">T130</text><line stroke="#000000" stroke-width="1.5" x1="301.0" y1="570" x2="301.0" y2="580"/><text style="font: 8px sans-serif;" x="296.0" y="565">S134</text><line stroke="#000000" stroke-width="1.5" x1="323.5" y1="570" x2="323.5" y2="580"/><text style="font: 8px sans-serif;" x="318.5" y="565">S149</text><text style="font: 15px sans-serif;" x="40" y="655">MIF2</text><rect stroke="#006FB0" stroke-width="1" x="100" y="640" width="823.5" height="20" fill="#B9E3FF"/><line stroke="#000000" stroke-width="1.5" x1="181.0" y1="630" x2="181.0" y2="640"/><text style="font: 8px sans-serif;" x="176.0" y="625">S54</text><line stroke="#000000" stroke-width="1.5" x1="232.0" y1="630" x2="232.0" y2="640"/><text style="font: 8px sans-serif;" x="227.0" y="625">S88</text><line stroke="#000000" stroke-width="1.5" x1="340.0" y1="630" x2="340.0" y2="640"/><text style="font: 8px sans-serif;" x="335.0" y="625">S160</text><line stroke="#000000" stroke-width="1.5" x1="349.0" y1="630" x2="349.0" y2="640"/><text style="font: 8px sans-serif;" x="344.0" y="625">T166</text><line stroke="#000000" stroke-width="1.5" x1="587.5" y1="630" x2="587.5" y2="640"/><text style="font: 8px sans-serif;" x="582.5" y="625">S325</text><text style="font: 15px sans-serif;" x="40" y="715">YPR137C-B</text><rect stroke="#006FB0" stroke-width="1" x="100" y="700" width="2632.5" height="20" fill="#B9E3FF"/><line stroke="#000000" stroke-width="1.5" x1="1721.5" y1="690" x2="1721.5" y2="700"/><text style="font: 8px sans-serif;" x="1716.5" y="685">S1081</text><text style="font: 15px sans-serif;" x="40" y="775">BUB1</text><rect stroke="#006FB0" stroke-width="1" x="100" y="760" width="1531.5" height="20" fill="#B9E3FF"/><line stroke="#000000" stroke-width="1.5" x1="121.0" y1="750" x2="121.0" y2="760"/><text style="font: 8px sans-serif;" x="116.0" y="745">S14</text><text style="font: 15px sans-serif;" x="40" y="835">YML045W</text><rect stroke="#006FB0" stroke-width="1" x="100" y="820" width="2632.5" height="20" fill="#B9E3FF"/><line stroke="#000000" stroke-width="1.5" x1="1721.5" y1="810" x2="1721.5" y2="820"/><text style="font: 8px sans-serif;" x="1716.5" y="805">S1081</text><text style="font: 15px sans-serif;" x="40" y="895">YML039W</text><rect stroke="#006FB0" stroke-width="1" x="100" y="880" width="2632.5" height="20" fill="#B9E3FF"/><line stroke="#000000" stroke-width="1.5" x1="1721.5" y1="870" x2="1721.5" y2="880"/><text style="font: 8px sans-serif;" x="1716.5" y="865">S1081</text><text style="font: 15px sans-serif;" x="40" y="955">OKP1</text><rect stroke="#006FB0" stroke-width="1" x="100" y="940" width="609.0" height="20" fill="#B9E3FF"/><line stroke="#000000" stroke-width="1.5" x1="205.0" y1="930" x2="205.0" y2="940"/><text style="font: 8px sans-serif;" x="200.0" y="925">S70</text><line stroke="#000000" stroke-width="1.5" x1="275.5" y1="930" x2="275.5" y2="940"/><text style="font: 8px sans-serif;" x="270.5" y="925">S117</text><line stroke="#000000" stroke-width="1.5" x1="280.0" y1="930" x2="280.0" y2="940"/><text style="font: 8px sans-serif;" x="275.0" y="925">S120</text><text style="font: 15px sans-serif;" x="40" y="1015">NSL1</text><rect stroke="#006FB0" stroke-width="1" x="100" y="1000" width="324.0" height="20" fill="#B9E3FF"/><line stroke="#000000" stroke-width="1.5" x1="103.0" y1="990" x2="103.0" y2="1000"/><text style="font: 8px sans-serif;" x="98.0" y="985">S2</text><line stroke="#000000" stroke-width="1.5" x1="347.5" y1="990" x2="347.5" y2="1000"/><text style="font: 8px sans-serif;" x="342.5" y="985">S165</text><text style="font: 15px sans-serif;" x="40" y="1075">YDR261C-D</text><rect stroke="#006FB0" stroke-width="1" x="100" y="1060" width="2406.0" height="20" fill="#B9E3FF"/><line stroke="#000000" stroke-width="1.5" x1="1721.5" y1="1050" x2="1721.5" y2="1060"/><text style="font: 8px sans-serif;" x="1716.5" y="1045">S1081</text><text style="font: 15px sans-serif;" x="40" y="1135">YDR210C-D</text><rect stroke="#006FB0" stroke-width="1" x="100" y="1120" width="2632.5" height="20" fill="#B9E3FF"/><line stroke="#000000" stroke-width="1.5" x1="1721.5" y1="1110" x2="1721.5" y2="1120"/><text style="font: 8px sans-serif;" x="1716.5" y="1105">S1081</text><text style="font: 15px sans-serif;" x="40" y="1195">YPR158C-D</text><rect stroke="#006FB0" stroke-width="1" x="100" y="1180" width="2632.5" height="20" fill="#B9E3FF"/><line stroke="#000000" stroke-width="1.5" x1="1721.5" y1="1170" x2="1721.5" y2="1180"/><text style="font: 8px sans-serif;" x="1716.5" y="1165">S1081</text><text style="font: 15px sans-serif;" x="40" y="1255">RGA1</text><rect stroke="#006FB0" stroke-width="1" x="100" y="1240" width="1510.5" height="20" fill="#B9E3FF"/><line stroke="#000000" stroke-width="1.5" x1="517.0" y1="1230" x2="517.0" y2="1240"/><text style="font: 8px sans-serif;" x="512.0" y="1225">T278</text><line stroke="#000000" stroke-width="1.5" x1="767.5" y1="1230" x2="767.5" y2="1240"/><text style="font: 8px sans-serif;" x="762.5" y="1225">S445</text><line stroke="#000000" stroke-width="1.5" x1="881.5" y1="1230" x2="881.5" y2="1240"/><text style="font: 8px sans-serif;" x="876.5" y="1225">S521</text><text style="font: 15px sans-serif;" x="40" y="1315">ASK10</text><rect stroke="#006FB0" stroke-width="1" x="100" y="1300" width="1719.0" height="20" fill="#B9E3FF"/><line stroke="#000000" stroke-width="1.5" x1="146.5" y1="1290" x2="146.5" y2="1300"/><text style="font: 8px sans-serif;" x="141.5" y="1285">S31</text><line stroke="#000000" stroke-width="1.5" x1="1577.5" y1="1290" x2="1577.5" y2="1300"/><text style="font: 8px sans-serif;" x="1572.5" y="1285">S985</text><text style="font: 15px sans-serif;" x="40" y="1375">SPC25</text><rect stroke="#006FB0" stroke-width="1" x="100" y="1360" width="331.5" height="20" fill="#B9E3FF"/><line stroke="#000000" stroke-width="1.5" x1="250.0" y1="1350" x2="250.0" y2="1360"/><text style="font: 8px sans-serif;" x="245.0" y="1345">S100</text><text style="font: 15px sans-serif;" x="40" y="1435">ASK1</text><rect stroke="#006FB0" stroke-width="1" x="100" y="1420" width="438.0" height="20" fill="#B9E3FF"/><line stroke="#000000" stroke-width="1.5" x1="301.0" y1="1410" x2="301.0" y2="1420"/><text style="font: 8px sans-serif;" x="296.0" y="1405">S134</text><line stroke="#000000" stroke-width="1.5" x1="382.0" y1="1410" x2="382.0" y2="1420"/><text style="font: 8px sans-serif;" x="377.0" y="1405">S188</text><line stroke="#000000" stroke-width="1.5" x1="466.0" y1="1410" x2="466.0" y2="1420"/><text style="font: 8px sans-serif;" x="461.0" y="1405">S244</text><line stroke="#000000" stroke-width="1.5" x1="514.0" y1="1410" x2="514.0" y2="1420"/><text style="font: 8px sans-serif;" x="509.0" y="1405">T276</text><text style="font: 15px sans-serif;" x="40" y="1495">CDC14</text><rect stroke="#006FB0" stroke-width="1" x="100" y="1480" width="826.5" height="20" fill="#B9E3FF"/><line stroke="#000000" stroke-width="1.5" x1="800.5" y1="1470" x2="800.5" y2="1480"/><text style="font: 8px sans-serif;" x="795.5" y="1465">S467</text><text style="font: 15px sans-serif;" x="40" y="1555">ALK1</text><rect stroke="#006FB0" stroke-width="1" x="100" y="1540" width="1140.0" height="20" fill="#B9E3FF"/><line stroke="#000000" stroke-width="1.5" x1="626.5" y1="1530" x2="626.5" y2="1540"/><text style="font: 8px sans-serif;" x="621.5" y="1525">S351</text><text style="font: 15px sans-serif;" x="40" y="1615">DAM1</text><rect stroke="#006FB0" stroke-width="1" x="100" y="1600" width="514.5" height="20" fill="#B9E3FF"/><line stroke="#000000" stroke-width="1.5" x1="140.5" y1="1590" x2="140.5" y2="1600"/><text style="font: 8px sans-serif;" x="135.5" y="1585">S27</text><line stroke="#000000" stroke-width="1.5" x1="146.5" y1="1590" x2="146.5" y2="1600"/><text style="font: 8px sans-serif;" x="141.5" y="1585">S31</text><text style="font: 15px sans-serif;" x="40" y="1675">AVO1</text><rect stroke="#006FB0" stroke-width="1" x="100" y="1660" width="1764.0" height="20" fill="#B9E3FF"/><line stroke="#000000" stroke-width="1.5" x1="575.5" y1="1650" x2="575.5" y2="1660"/><text style="font: 8px sans-serif;" x="570.5" y="1645">S317</text><line stroke="#000000" stroke-width="1.5" x1="617.5" y1="1650" x2="617.5" y2="1660"/><text style="font: 8px sans-serif;" x="612.5" y="1645">S345</text><text style="font: 15px sans-serif;" x="40" y="1735">AME1</text><rect stroke="#006FB0" stroke-width="1" x="100" y="1720" width="486.0" height="20" fill="#B9E3FF"/><line stroke="#000000" stroke-width="1.5" x1="161.5" y1="1710" x2="161.5" y2="1720"/><text style="font: 8px sans-serif;" x="156.5" y="1705">S41</text><line stroke="#000000" stroke-width="1.5" x1="167.5" y1="1710" x2="167.5" y2="1720"/><text style="font: 8px sans-serif;" x="162.5" y="1705">S45</text><text style="font: 15px sans-serif;" x="40" y="1795">BIR1</text><rect stroke="#006FB0" stroke-width="1" x="100" y="1780" width="1431.0" height="20" fill="#B9E3FF"/><line stroke="#000000" stroke-width="1.5" x1="1060.0" y1="1770" x2="1060.0" y2="1780"/><text style="font: 8px sans-serif;" x="1055.0" y="1765">S640</text><text style="font: 15px sans-serif;" x="40" y="1855">CBF5</text><rect stroke="#006FB0" stroke-width="1" x="100" y="1840" width="724.5" height="20" fill="#B9E3FF"/><line stroke="#000000" stroke-width="1.5" x1="667.0" y1="1830" x2="667.0" y2="1840"/><text style="font: 8px sans-serif;" x="662.0" y="1825">T378</text><text style="font: 15px sans-serif;" x="40" y="1915">TCO89</text><rect stroke="#006FB0" stroke-width="1" x="100" y="1900" width="1198.5" height="20" fill="#B9E3FF"/><line stroke="#000000" stroke-width="1.5" x1="260.5" y1="1890" x2="260.5" y2="1900"/><text style="font: 8px sans-serif;" x="255.5" y="1885">S107</text><text style="font: 15px sans-serif;" x="40" y="1975">SEC16</text><rect stroke="#006FB0" stroke-width="1" x="100" y="1960" width="3292.5" height="20" fill="#B9E3FF"/><line stroke="#000000" stroke-width="1.5" x1="1111.0" y1="1950" x2="1111.0" y2="1960"/><text style="font: 8px sans-serif;" x="1106.0" y="1945">S674</text><text style="font: 15px sans-serif;" x="40" y="2035">SLA2</text><rect stroke="#006FB0" stroke-width="1" x="100" y="2020" width="1452.0" height="20" fill="#B9E3FF"/><line stroke="#000000" stroke-width="1.5" x1="562.0" y1="2010" x2="562.0" y2="2020"/><text style="font: 8px sans-serif;" x="557.0" y="2005">S308</text><text style="font: 15px sans-serif;" x="40" y="2095">MCM21</text><rect stroke="#006FB0" stroke-width="1" x="100" y="2080" width="552.0" height="20" fill="#B9E3FF"/><line stroke="#000000" stroke-width="1.5" x1="232.0" y1="2070" x2="232.0" y2="2080"/><text style="font: 8px sans-serif;" x="227.0" y="2065">T88</text><line stroke="#000000" stroke-width="1.5" x1="307.0" y1="2070" x2="307.0" y2="2080"/><text style="font: 8px sans-serif;" x="302.0" y="2065">T138</text><line stroke="#000000" stroke-width="1.5" x1="308.5" y1="2070" x2="308.5" y2="2080"/><text style="font: 8px sans-serif;" x="303.5" y="2065">S139</text><text style="font: 15px sans-serif;" x="40" y="2155">RIF1</text><rect stroke="#006FB0" stroke-width="1" x="100" y="2140" width="2874.0" height="20" fill="#B9E3FF"/><line stroke="#000000" stroke-width="1.5" x1="2555.5" y1="2130" x2="2555.5" y2="2140"/><text style="font: 8px sans-serif;" x="2550.5" y="2125">S1637</text><text style="font: 15px sans-serif;" x="40" y="2215">MYO5</text><rect stroke="#006FB0" stroke-width="1" x="100" y="2200" width="1828.5" height="20" fill="#B9E3FF"/><line stroke="#000000" stroke-width="1.5" x1="1264.0" y1="2190" x2="1264.0" y2="2200"/><text style="font: 8px sans-serif;" x="1259.0" y="2185">M776</text><text style="font: 15px sans-serif;" x="40" y="2275">TSC11</text><rect stroke="#006FB0" stroke-width="1" x="100" y="2260" width="2145.0" height="20" fill="#B9E3FF"/><line stroke="#000000" stroke-width="1.5" x1="230.5" y1="2250" x2="230.5" y2="2260"/><text style="font: 8px sans-serif;" x="225.5" y="2245">S87</text><text style="font: 15px sans-serif;" x="40" y="2335">RPC19</text><rect stroke="#006FB0" stroke-width="1" x="100" y="2320" width="213.0" height="20" fill="#B9E3FF"/><line stroke="#000000" stroke-width="1.5" x1="149.5" y1="2310" x2="149.5" y2="2320"/><text style="font: 8px sans-serif;" x="144.5" y="2305">T33</text><text style="font: 15px sans-serif;" x="40" y="2395">ACE2</text><rect stroke="#006FB0" stroke-width="1" x="100" y="2380" width="1155.0" height="20" fill="#B9E3FF"/><line stroke="#000000" stroke-width="1.5" x1="220.0" y1="2370" x2="220.0" y2="2380"/><text style="font: 8px sans-serif;" x="215.0" y="2365">S80</text><text style="font: 15px sans-serif;" x="40" y="2455">RFC1</text><rect stroke="#006FB0" stroke-width="1" x="100" y="2440" width="1291.5" height="20" fill="#B9E3FF"/><line stroke="#000000" stroke-width="1.5" x1="160.0" y1="2430" x2="160.0" y2="2440"/><text style="font: 8px sans-serif;" x="155.0" y="2425">S40</text><text style="font: 15px sans-serif;" x="40" y="2515">SWI5</text><rect stroke="#006FB0" stroke-width="1" x="100" y="2500" width="1063.5" height="20" fill="#B9E3FF"/><line stroke="#000000" stroke-width="1.5" x1="838.0" y1="2490" x2="838.0" y2="2500"/><text style="font: 8px sans-serif;" x="833.0" y="2485">S492</text><text style="font: 15px sans-serif;" x="40" y="2575">PSH1</text><rect stroke="#006FB0" stroke-width="1" x="100" y="2560" width="609.0" height="20" fill="#B9E3FF"/><line stroke="#000000" stroke-width="1.5" x1="314.5" y1="2550" x2="314.5" y2="2560"/><text style="font: 8px sans-serif;" x="309.5" y="2545">S143</text><line stroke="#000000" stroke-width="1.5" x1="386.5" y1="2550" x2="386.5" y2="2560"/><text style="font: 8px sans-serif;" x="381.5" y="2545">S191</text><line stroke="#000000" stroke-width="1.5" x1="565.0" y1="2550" x2="565.0" y2="2560"/><text style="font: 8px sans-serif;" x="560.0" y="2545">T310</text><text style="font: 15px sans-serif;" x="40" y="2635">FRK1</text><rect stroke="#006FB0" stroke-width="1" x="100" y="2620" width="1297.5" height="20" fill="#B9E3FF"/><line stroke="#000000" stroke-width="1.5" x1="413.5" y1="2610" x2="413.5" y2="2620"/><text style="font: 8px sans-serif;" x="408.5" y="2605">T209</text><text style="font: 15px sans-serif;" x="40" y="2695">PHO84</text><rect stroke="#006FB0" stroke-width="1" x="100" y="2680" width="880.5" height="20" fill="#B9E3FF"/><line stroke="#000000" stroke-width="1.5" x1="971.5" y1="2670" x2="971.5" y2="2680"/><text style="font: 8px sans-serif;" x="966.5" y="2665">S581</text><text style="font: 15px sans-serif;" x="40" y="2755">RPG1</text><rect stroke="#006FB0" stroke-width="1" x="100" y="2740" width="1446.0" height="20" fill="#B9E3FF"/><line stroke="#000000" stroke-width="1.5" x1="1439.5" y1="2730" x2="1439.5" y2="2740"/><text style="font: 8px sans-serif;" x="1434.5" y="2725">S893</text><text style="font: 15px sans-serif;" x="40" y="2815">SRP40</text><rect stroke="#006FB0" stroke-width="1" x="100" y="2800" width="609.0" height="20" fill="#B9E3FF"/><line stroke="#000000" stroke-width="1.5" x1="299.5" y1="2790" x2="299.5" y2="2800"/><text style="font: 8px sans-serif;" x="294.5" y="2785">S133</text><text style="font: 15px sans-serif;" x="40" y="2875">MYO3</text><rect stroke="#006FB0" stroke-width="1" x="100" y="2860" width="1908.0" height="20" fill="#B9E3FF"/><line stroke="#000000" stroke-width="1.5" x1="1264.0" y1="2850" x2="1264.0" y2="2860"/><text style="font: 8px sans-serif;" x="1259.0" y="2845">M776</text><text style="font: 15px sans-serif;" x="40" y="2935">PDA1</text><rect stroke="#006FB0" stroke-width="1" x="100" y="2920" width="630.0" height="20" fill="#B9E3FF"/><line stroke="#000000" stroke-width="1.5" x1="569.5" y1="2910" x2="569.5" y2="2920"/><text style="font: 8px sans-serif;" x="564.5" y="2905">S313</text><text style="font: 15px sans-serif;" x="40" y="2995">BUD22</text><rect stroke="#006FB0" stroke-width="1" x="100" y="2980" width="778.5" height="20" fill="#B9E3FF"/><line stroke="#000000" stroke-width="1.5" x1="485.5" y1="2970" x2="485.5" y2="2980"/><text style="font: 8px sans-serif;" x="480.5" y="2965">T257</text><text style="font: 15px sans-serif;" x="40" y="3055">LEM3</text><rect stroke="#006FB0" stroke-width="1" x="100" y="3040" width="621.0" height="20" fill="#B9E3FF"/><line stroke="#000000" stroke-width="1.5" x1="154.0" y1="3030" x2="154.0" y2="3040"/><text style="font: 8px sans-serif;" x="149.0" y="3025">S36</text><text style="font: 15px sans-serif;" x="40" y="3115">BUD21</text><rect stroke="#006FB0" stroke-width="1" x="100" y="3100" width="321.0" height="20" fill="#B9E3FF"/><line stroke="#000000" stroke-width="1.5" x1="316.0" y1="3090" x2="316.0" y2="3100"/><text style="font: 8px sans-serif;" x="311.0" y="3085">S144</text><text style="font: 15px sans-serif;" x="40" y="3175">HRB1</text><rect stroke="#006FB0" stroke-width="1" x="100" y="3160" width="681.0" height="20" fill="#B9E3FF"/><line stroke="#000000" stroke-width="1.5" x1="140.5" y1="3150" x2="140.5" y2="3160"/><text style="font: 8px sans-serif;" x="135.5" y="3145">S27</text><text style="font: 15px sans-serif;" x="40" y="3235">CSA1</text><rect stroke="#006FB0" stroke-width="1" x="100" y="3220" width="331.5" height="20" fill="#B9E3FF"/><line stroke="#000000" stroke-width="1.5" x1="355.0" y1="3210" x2="355.0" y2="3220"/><text style="font: 8px sans-serif;" x="350.0" y="3205">S170</text></svg>