<svg xmlns="http://www.w3.org/2000/svg" width="3008.0" height="1580"><text style="font: 15px sans-serif;" x="40" y="175">NDC80</text><rect stroke="#006FB0" stroke-width="1" x="100" y="160" width="1036.5" height="20" fill="#B9E3FF"/><line stroke="#000000" stroke-width="1.5" x1="155.5" y1="150" x2="155.5" y2="160"/><text style="font: 8px sans-serif;" x="150.5" y="145">S37</text><line stroke="#000000" stroke-width="1.5" x1="157.0" y1="150" x2="157.0" y2="160"/><text style="font: 8px sans-serif;" x="152.0" y="145">T38</text><line stroke="#000000" stroke-width="1.5" x1="245.5" y1="150" x2="245.5" y2="160"/><text style="font: 8px sans-serif;" x="240.5" y="145">S97</text><line stroke="#000000" stroke-width="1.5" x1="472.0" y1="150" x2="472.0" y2="160"/><text style="font: 8px sans-serif;" x="467.0" y="145">T248</text><line stroke="#000000" stroke-width="1.5" x1="478.0" y1="150" x2="478.0" y2="160"/><text style="font: 8px sans-serif;" x="473.0" y="145">T252</text><text style="font: 15px sans-serif;" x="40" y="235">NET1</text><rect stroke="#006FB0" stroke-width="1" x="100" y="220" width="1783.5" height="20" fill="#B9E3FF"/><line stroke="#000000" stroke-width="1.5" x1="446.5" y1="210" x2="446.5" y2="220"/><text style="font: 8px sans-serif;" x="441.5" y="205">S231</text><line stroke="#000000" stroke-width="1.5" x1="643.0" y1="210" x2="643.0" y2="220"/><text style="font: 8px sans-serif;" x="638.0" y="205">S362</text><line stroke="#000000" stroke-width="1.5" x1="1723.0" y1="210" x2="1723.0" y2="220"/><text style="font: 8px sans-serif;" x="1718.0" y="205">S1082</text><line stroke="#000000" stroke-width="1.5" x1="1727.5" y1="210" x2="1727.5" y2="220"/><text style="font: 8px sans-serif;" x="1722.5" y="205">S1085</text><text style="font: 15px sans-serif;" x="40" y="295">MPS1</text><rect stroke="#006FB0" stroke-width="1" x="100" y="280" width="1146.0" height="20" fill="#B9E3FF"/><line stroke="#000000" stroke-width="1.5" x1="104.5" y1="270" x2="104.5" y2="280"/><text style="font: 8px sans-serif;" x="99.5" y="265">T3</text><line stroke="#000000" stroke-width="1.5" x1="127.0" y1="270" x2="127.0" y2="280"/><text style="font: 8px sans-serif;" x="122.0" y="265">T18</text><line stroke="#000000" stroke-width="1.5" x1="143.5" y1="270" x2="143.5" y2="280"/><text style="font: 8px sans-serif;" x="138.5" y="265">T29</text><line stroke="#000000" stroke-width="1.5" x1="175.0" y1="270" x2="175.0" y2="280"/><text style="font: 8px sans-serif;" x="170.0" y="265">S50</text><line stroke="#000000" stroke-width="1.5" x1="377.5" y1="270" x2="377.5" y2="280"/><text style="font: 8px sans-serif;" x="372.5" y="265">S185</text><line stroke="#000000" stroke-width="1.5" x1="571.0" y1="270" x2="571.0" y2="280"/><text style="font: 8px sans-serif;" x="566.0" y="265">S314</text><line stroke="#000000" stroke-width="1.5" x1="572.5" y1="270" x2="572.5" y2="280"/><text style="font: 8px sans-serif;" x="567.5" y="265">S315</text><line stroke="#000000" stroke-width="1.5" x1="598.0" y1="270" x2="598.0" y2="280"/><text style="font: 8px sans-serif;" x="593.0" y="265">S332</text><line stroke="#000000" stroke-width="1.5" x1="604.0" y1="270" x2="604.0" y2="280"/><text style="font: 8px sans-serif;" x="599.0" y="265">S336</text><line stroke="#000000" stroke-width="1.5" x1="683.5" y1="270" x2="683.5" y2="280"/><text style="font: 8px sans-serif;" x="678.5" y="265">T389</text><text style="font: 15px sans-serif;" x="40" y="355">SPC105</text><rect stroke="#006FB0" stroke-width="1" x="100" y="340" width="1375.5" height="20" fill="#B9E3FF"/><line stroke="#000000" stroke-width="1.5" x1="260.5" y1="330" x2="260.5" y2="340"/><text style="font: 8px sans-serif;" x="255.5" y="325">T107</text><line stroke="#000000" stroke-width="1.5" x1="475.0" y1="330" x2="475.0" y2="340"/><text style="font: 8px sans-serif;" x="470.0" y="325">S250</text><line stroke="#000000" stroke-width="1.5" x1="634.0" y1="330" x2="634.0" y2="340"/><text style="font: 8px sans-serif;" x="629.0" y="325">T356</text><line stroke="#000000" stroke-width="1.5" x1="677.5" y1="330" x2="677.5" y2="340"/><text style="font: 8px sans-serif;" x="672.5" y="325">S385</text><line stroke="#000000" stroke-width="1.5" x1="721.0" y1="330" x2="721.0" y2="340"/><text style="font: 8px sans-serif;" x="716.0" y="325">T414</text><text style="font: 15px sans-serif;" x="40" y="415">DSN1</text><rect stroke="#006FB0" stroke-width="1" x="100" y="400" width="864.0" height="20" fill="#B9E3FF"/><line stroke="#000000" stroke-width="1.5" x1="203.5" y1="390" x2="203.5" y2="400"/><text style="font: 8px sans-serif;" x="198.5" y="385">S69</text><line stroke="#000000" stroke-width="1.5" x1="496.0" y1="390" x2="496.0" y2="400"/><text style="font: 8px sans-serif;" x="491.0" y="385">S264</text><text style="font: 15px sans-serif;" x="40" y="475">MIF2</text><rect stroke="#006FB0" stroke-width="1" x="100" y="460" width="823.5" height="20" fill="#B9E3FF"/><line stroke="#000000" stroke-width="1.5" x1="181.0" y1="450" x2="181.0" y2="460"/><text style="font: 8px sans-serif;" x="176.0" y="445">S54</text><line stroke="#000000" stroke-width="1.5" x1="217.0" y1="450" x2="217.0" y2="460"/><text style="font: 8px sans-serif;" x="212.0" y="445">S78</text><line stroke="#000000" stroke-width="1.5" x1="340.0" y1="450" x2="340.0" y2="460"/><text style="font: 8px sans-serif;" x="335.0" y="445">S160</text><line stroke="#000000" stroke-width="1.5" x1="343.0" y1="450" x2="343.0" y2="460"/><text style="font: 8px sans-serif;" x="338.0" y="445">S162</text><line stroke="#000000" stroke-width="1.5" x1="349.0" y1="450" x2="349.0" y2="460"/><text style="font: 8px sans-serif;" x="344.0" y="445">T166</text><line stroke="#000000" stroke-width="1.5" x1="581.5" y1="450" x2="581.5" y2="460"/><text style="font: 8px sans-serif;" x="576.5" y="445">T321</text><line stroke="#000000" stroke-width="1.5" x1="587.5" y1="450" x2="587.5" y2="460"/><text style="font: 8px sans-serif;" x="582.5" y="445">S325</text><text style="font: 15px sans-serif;" x="40" y="535">SPC24</text><rect stroke="#006FB0" stroke-width="1" x="100" y="520" width="319.5" height="20" fill="#B9E3FF"/><line stroke="#000000" stroke-width="1.5" x1="103.0" y1="510" x2="103.0" y2="520"/><text style="font: 8px sans-serif;" x="98.0" y="505">S2</text><text style="font: 15px sans-serif;" x="40" y="595">UBR2</text><rect stroke="#006FB0" stroke-width="1" x="100" y="580" width="2808.0" height="20" fill="#B9E3FF"/><line stroke="#000000" stroke-width="1.5" x1="1175.5" y1="570" x2="1175.5" y2="580"/><text style="font: 8px sans-serif;" x="1170.5" y="565">S717</text><text style="font: 15px sans-serif;" x="40" y="655">YPR137C-B</text><rect stroke="#006FB0" stroke-width="1" x="100" y="640" width="2632.5" height="20" fill="#B9E3FF"/><line stroke="#000000" stroke-width="1.5" x1="1540.0" y1="630" x2="1540.0" y2="640"/><text style="font: 8px sans-serif;" x="1535.0" y="625">S960</text><text style="font: 15px sans-serif;" x="40" y="715">YHR214C-B</text><rect stroke="#006FB0" stroke-width="1" x="100" y="700" width="2689.5" height="20" fill="#B9E3FF"/><line stroke="#000000" stroke-width="1.5" x1="1540.0" y1="690" x2="1540.0" y2="700"/><text style="font: 8px sans-serif;" x="1535.0" y="685">A960</text><text style="font: 15px sans-serif;" x="40" y="775">CDC14</text><rect stroke="#006FB0" stroke-width="1" x="100" y="760" width="826.5" height="20" fill="#B9E3FF"/><line stroke="#000000" stroke-width="1.5" x1="689.5" y1="750" x2="689.5" y2="760"/><text style="font: 8px sans-serif;" x="684.5" y="745">T393</text><line stroke="#000000" stroke-width="1.5" x1="728.5" y1="750" x2="728.5" y2="760"/><text style="font: 8px sans-serif;" x="723.5" y="745">S419</text><line stroke="#000000" stroke-width="1.5" x1="800.5" y1="750" x2="800.5" y2="760"/><text style="font: 8px sans-serif;" x="795.5" y="745">S467</text><text style="font: 15px sans-serif;" x="40" y="835">RPA190</text><rect stroke="#006FB0" stroke-width="1" x="100" y="820" width="2496.0" height="20" fill="#B9E3FF"/><line stroke="#000000" stroke-width="1.5" x1="545.5" y1="810" x2="545.5" y2="820"/><text style="font: 8px sans-serif;" x="540.5" y="805">S297</text><text style="font: 15px sans-serif;" x="40" y="895">STU2</text><rect stroke="#006FB0" stroke-width="1" x="100" y="880" width="1332.0" height="20" fill="#B9E3FF"/><line stroke="#000000" stroke-width="1.5" x1="1319.5" y1="870" x2="1319.5" y2="880"/><text style="font: 8px sans-serif;" x="1314.5" y="865">S813</text><text style="font: 15px sans-serif;" x="40" y="955">OKP1</text><rect stroke="#006FB0" stroke-width="1" x="100" y="940" width="609.0" height="20" fill="#B9E3FF"/><line stroke="#000000" stroke-width="1.5" x1="205.0" y1="930" x2="205.0" y2="940"/><text style="font: 8px sans-serif;" x="200.0" y="925">S70</text><text style="font: 15px sans-serif;" x="40" y="1015">DAM1</text><rect stroke="#006FB0" stroke-width="1" x="100" y="1000" width="514.5" height="20" fill="#B9E3FF"/><line stroke="#000000" stroke-width="1.5" x1="538.0" y1="990" x2="538.0" y2="1000"/><text style="font: 8px sans-serif;" x="533.0" y="985">S292</text><text style="font: 15px sans-serif;" x="40" y="1075">SIR2</text><rect stroke="#006FB0" stroke-width="1" x="100" y="1060" width="843.0" height="20" fill="#B9E3FF"/><line stroke="#000000" stroke-width="1.5" x1="137.5" y1="1050" x2="137.5" y2="1060"/><text style="font: 8px sans-serif;" x="132.5" y="1045">T25</text><text style="font: 15px sans-serif;" x="40" y="1135">YRA1</text><rect stroke="#006FB0" stroke-width="1" x="100" y="1120" width="339.0" height="20" fill="#B9E3FF"/><line stroke="#000000" stroke-width="1.5" x1="103.0" y1="1110" x2="103.0" y2="1120"/><text style="font: 8px sans-serif;" x="98.0" y="1105">S2</text><text style="font: 15px sans-serif;" x="40" y="1195">CBF5</text><rect stroke="#006FB0" stroke-width="1" x="100" y="1180" width="724.5" height="20" fill="#B9E3FF"/><line stroke="#000000" stroke-width="1.5" x1="667.0" y1="1170" x2="667.0" y2="1180"/><text style="font: 8px sans-serif;" x="662.0" y="1165">T378</text><text style="font: 15px sans-serif;" x="40" y="1255">CNN1</text><rect stroke="#006FB0" stroke-width="1" x="100" y="1240" width="541.5" height="20" fill="#B9E3FF"/><line stroke="#000000" stroke-width="1.5" x1="257.5" y1="1230" x2="257.5" y2="1240"/><text style="font: 8px sans-serif;" x="252.5" y="1225">S105</text><text style="font: 15px sans-serif;" x="40" y="1315">DUO1</text><rect stroke="#006FB0" stroke-width="1" x="100" y="1300" width="370.5" height="20" fill="#B9E3FF"/><line stroke="#000000" stroke-width="1.5" x1="145.0" y1="1290" x2="145.0" y2="1300"/><text style="font: 8px sans-serif;" x="140.0" y="1285">T30</text><text style="font: 15px sans-serif;" x="40" y="1375">TCO89</text><rect stroke="#006FB0" stroke-width="1" x="100" y="1360" width="1198.5" height="20" fill="#B9E3FF"/><line stroke="#000000" stroke-width="1.5" x1="278.5" y1="1350" x2="278.5" y2="1360"/><text style="font: 8px sans-serif;" x="273.5" y="1345">S119</text><text style="font: 15px sans-serif;" x="40" y="1435">DAD1</text><rect stroke="#006FB0" stroke-width="1" x="100" y="1420" width="141.0" height="20" fill="#B9E3FF"/><line stroke="#000000" stroke-width="1.5" x1="215.5" y1="1410" x2="215.5" y2="1420"/><text style="font: 8px sans-serif;" x="210.5" y="1405">S77</text><text style="font: 15px sans-serif;" x="40" y="1495">PSH1</text><rect stroke="#006FB0" stroke-width="1" x="100" y="1480" width="609.0" height="20" fill="#B9E3FF"/><line stroke="#000000" stroke-width="1.5" x1="314.5" y1="1470" x2="314.5" y2="1480"/><text style="font: 8px sans-serif;" x="309.5" y="1465">S143</text><line stroke="#000000" stroke-width="1.5" x1="704.5" y1="1470" x2="704.5" y2="1480"/><text style="font: 8px sans-serif;" x="699.5" y="1465">S403</text></svg>