<svg xmlns="http://www.w3.org/2000/svg" width="2200" height="740"><text style="font: 15px sans-serif;" x="40" y="175">MPS1</text><rect stroke="#006FB0" stroke-width="1" x="100" y="160" width="1146.0" height="20" fill="#B9E3FF"/><line stroke="#000000" stroke-width="1.5" x1="172.0" y1="150" x2="172.0" y2="160"/><text style="font: 8px sans-serif;" x="167.0" y="145">S48</text><line stroke="#000000" stroke-width="1.5" x1="175.0" y1="150" x2="175.0" y2="160"/><text style="font: 8px sans-serif;" x="170.0" y="145">S50</text><line stroke="#000000" stroke-width="1.5" x1="229.0" y1="150" x2="229.0" y2="160"/><text style="font: 8px sans-serif;" x="224.0" y="145">S86</text><line stroke="#000000" stroke-width="1.5" x1="377.5" y1="150" x2="377.5" y2="160"/><text style="font: 8px sans-serif;" x="372.5" y="145">S185</text><line stroke="#000000" stroke-width="1.5" x1="568.0" y1="150" x2="568.0" y2="160"/><text style="font: 8px sans-serif;" x="563.0" y="145">S312</text><line stroke="#000000" stroke-width="1.5" x1="598.0" y1="150" x2="598.0" y2="160"/><text style="font: 8px sans-serif;" x="593.0" y="145">S332</text><line stroke="#000000" stroke-width="1.5" x1="604.0" y1="150" x2="604.0" y2="160"/><text style="font: 8px sans-serif;" x="599.0" y="145">S336</text><line stroke="#000000" stroke-width="1.5" x1="644.5" y1="150" x2="644.5" y2="160"/><text style="font: 8px sans-serif;" x="639.5" y="145">S363</text><line stroke="#000000" stroke-width="1.5" x1="692.5" y1="150" x2="692.5" y2="160"/><text style="font: 8px sans-serif;" x="687.5" y="145">S395</text><line stroke="#000000" stroke-width="1.5" x1="986.5" y1="150" x2="986.5" y2="160"/><text style="font: 8px sans-serif;" x="981.5" y="145">T591</text><text style="font: 15px sans-serif;" x="40" y="235">NDC80</text><rect stroke="#006FB0" stroke-width="1" x="100" y="220" width="1036.5" height="20" fill="#B9E3FF"/><line stroke="#000000" stroke-width="1.5" x1="155.5" y1="210" x2="155.5" y2="220"/><text style="font: 8px sans-serif;" x="150.5" y="205">S37</text><line stroke="#000000" stroke-width="1.5" x1="157.0" y1="210" x2="157.0" y2="220"/><text style="font: 8px sans-serif;" x="152.0" y="205">T38</text><line stroke="#000000" stroke-width="1.5" x1="245.5" y1="210" x2="245.5" y2="220"/><text style="font: 8px sans-serif;" x="240.5" y="205">S97</text><line stroke="#000000" stroke-width="1.5" x1="478.0" y1="210" x2="478.0" y2="220"/><text style="font: 8px sans-serif;" x="473.0" y="205">T252</text><text style="font: 15px sans-serif;" x="40" y="295">SPC24</text><rect stroke="#006FB0" stroke-width="1" x="100" y="280" width="319.5" height="20" fill="#B9E3FF"/><line stroke="#000000" stroke-width="1.5" x1="293.5" y1="270" x2="293.5" y2="280"/><text style="font: 8px sans-serif;" x="288.5" y="265">S129</text><line stroke="#000000" stroke-width="1.5" x1="295.0" y1="270" x2="295.0" y2="280"/><text style="font: 8px sans-serif;" x="290.0" y="265">T130</text><text style="font: 15px sans-serif;" x="40" y="355">SPC105</text><rect stroke="#006FB0" stroke-width="1" x="100" y="340" width="1375.5" height="20" fill="#B9E3FF"/><line stroke="#000000" stroke-width="1.5" x1="634.0" y1="330" x2="634.0" y2="340"/><text style="font: 8px sans-serif;" x="629.0" y="325">T356</text><text style="font: 15px sans-serif;" x="40" y="415">DSN1</text><rect stroke="#006FB0" stroke-width="1" x="100" y="400" width="864.0" height="20" fill="#B9E3FF"/><line stroke="#000000" stroke-width="1.5" x1="931.0" y1="390" x2="931.0" y2="400"/><text style="font: 8px sans-serif;" x="926.0" y="385">S554</text><text style="font: 15px sans-serif;" x="40" y="475">TSC11</text><rect stroke="#006FB0" stroke-width="1" x="100" y="460" width="2145.0" height="20" fill="#B9E3FF"/><line stroke="#000000" stroke-width="1.5" x1="142.0" y1="450" x2="142.0" y2="460"/><text style="font: 8px sans-serif;" x="137.0" y="445">T28</text><text style="font: 15px sans-serif;" x="40" y="535">KIN4</text><rect stroke="#006FB0" stroke-width="1" x="100" y="520" width="1200.0" height="20" fill="#B9E3FF"/><line stroke="#000000" stroke-width="1.5" x1="790.0" y1="510" x2="790.0" y2="520"/><text style="font: 8px sans-serif;" x="785.0" y="505">S460</text><text style="font: 15px sans-serif;" x="40" y="595">DUO1</text><rect stroke="#006FB0" stroke-width="1" x="100" y="580" width="370.5" height="20" fill="#B9E3FF"/><line stroke="#000000" stroke-width="1.5" x1="170.5" y1="570" x2="170.5" y2="580"/><text style="font: 8px sans-serif;" x="165.5" y="565">S47</text><text style="font: 15px sans-serif;" x="40" y="655">SAM35</text><rect stroke="#006FB0" stroke-width="1" x="100" y="640" width="493.5" height="20" fill="#B9E3FF"/><line stroke="#000000" stroke-width="1.5" x1="302.5" y1="630" x2="302.5" y2="640"/><text style="font: 8px sans-serif;" x="297.5" y="625">Y135</text></svg>