<svg xmlns="http://www.w3.org/2000/svg" width="2556.5" height="1940"><text style="font: 15px sans-serif;" x="40" y="175">MPS1</text><rect stroke="#006FB0" stroke-width="1" x="100" y="160" width="1146.0" height="20" fill="#B9E3FF"/><line stroke="#000000" stroke-width="1.5" x1="133.0" y1="150" x2="133.0" y2="160"/><text style="font: 8px sans-serif;" x="128.0" y="145">S22</text><line stroke="#000000" stroke-width="1.5" x1="143.5" y1="150" x2="143.5" y2="160"/><text style="font: 8px sans-serif;" x="138.5" y="145">T29</text><line stroke="#000000" stroke-width="1.5" x1="175.0" y1="150" x2="175.0" y2="160"/><text style="font: 8px sans-serif;" x="170.0" y="145">S50</text><line stroke="#000000" stroke-width="1.5" x1="220.0" y1="150" x2="220.0" y2="160"/><text style="font: 8px sans-serif;" x="215.0" y="145">S80</text><line stroke="#000000" stroke-width="1.5" x1="274.0" y1="150" x2="274.0" y2="160"/><text style="font: 8px sans-serif;" x="269.0" y="145">S116</text><line stroke="#000000" stroke-width="1.5" x1="293.5" y1="150" x2="293.5" y2="160"/><text style="font: 8px sans-serif;" x="288.5" y="145">S129</text><line stroke="#000000" stroke-width="1.5" x1="377.5" y1="150" x2="377.5" y2="160"/><text style="font: 8px sans-serif;" x="372.5" y="145">S185</text><line stroke="#000000" stroke-width="1.5" x1="572.5" y1="150" x2="572.5" y2="160"/><text style="font: 8px sans-serif;" x="567.5" y="145">S315</text><line stroke="#000000" stroke-width="1.5" x1="604.0" y1="150" x2="604.0" y2="160"/><text style="font: 8px sans-serif;" x="599.0" y="145">S336</text><line stroke="#000000" stroke-width="1.5" x1="644.5" y1="150" x2="644.5" y2="160"/><text style="font: 8px sans-serif;" x="639.5" y="145">S363</text><line stroke="#000000" stroke-width="1.5" x1="674.5" y1="150" x2="674.5" y2="160"/><text style="font: 8px sans-serif;" x="669.5" y="145">S383</text><line stroke="#000000" stroke-width="1.5" x1="1231.0" y1="150" x2="1231.0" y2="160"/><text style="font: 8px sans-serif;" x="1226.0" y="145">T754</text><text style="font: 15px sans-serif;" x="40" y="235">SLA1</text><rect stroke="#006FB0" stroke-width="1" x="100" y="220" width="1866.0" height="20" fill="#B9E3FF"/><line stroke="#000000" stroke-width="1.5" x1="425.5" y1="210" x2="425.5" y2="220"/><text style="font: 8px sans-serif;" x="420.5" y="205">S217</text><line stroke="#000000" stroke-width="1.5" x1="781.0" y1="210" x2="781.0" y2="220"/><text style="font: 8px sans-serif;" x="776.0" y="205">S454</text><line stroke="#000000" stroke-width="1.5" x1="1298.5" y1="210" x2="1298.5" y2="220"/><text style="font: 8px sans-serif;" x="1293.5" y="205">S799</text><line stroke="#000000" stroke-width="1.5" x1="1327.0" y1="210" x2="1327.0" y2="220"/><text style="font: 8px sans-serif;" x="1322.0" y="205">T818</text><line stroke="#000000" stroke-width="1.5" x1="1456.0" y1="210" x2="1456.0" y2="220"/><text style="font: 8px sans-serif;" x="1451.0" y="205">T904</text><line stroke="#000000" stroke-width="1.5" x1="1517.5" y1="210" x2="1517.5" y2="220"/><text style="font: 8px sans-serif;" x="1512.5" y="205">T945</text><line stroke="#000000" stroke-width="1.5" x1="1712.5" y1="210" x2="1712.5" y2="220"/><text style="font: 8px sans-serif;" x="1707.5" y="205">T1075</text><text style="font: 15px sans-serif;" x="40" y="295">AKL1</text><rect stroke="#006FB0" stroke-width="1" x="100" y="280" width="1662.0" height="20" fill="#B9E3FF"/><line stroke="#000000" stroke-width="1.5" x1="655.0" y1="270" x2="655.0" y2="280"/><text style="font: 8px sans-serif;" x="650.0" y="265">S370</text><line stroke="#000000" stroke-width="1.5" x1="658.0" y1="270" x2="658.0" y2="280"/><text style="font: 8px sans-serif;" x="653.0" y="265">S372</text><line stroke="#000000" stroke-width="1.5" x1="710.5" y1="270" x2="710.5" y2="280"/><text style="font: 8px sans-serif;" x="705.5" y="265">S407</text><line stroke="#000000" stroke-width="1.5" x1="787.0" y1="270" x2="787.0" y2="280"/><text style="font: 8px sans-serif;" x="782.0" y="265">S458</text><line stroke="#000000" stroke-width="1.5" x1="806.5" y1="270" x2="806.5" y2="280"/><text style="font: 8px sans-serif;" x="801.5" y="265">T471</text><line stroke="#000000" stroke-width="1.5" x1="856.0" y1="270" x2="856.0" y2="280"/><text style="font: 8px sans-serif;" x="851.0" y="265">S504</text><line stroke="#000000" stroke-width="1.5" x1="911.5" y1="270" x2="911.5" y2="280"/><text style="font: 8px sans-serif;" x="906.5" y="265">S541</text><line stroke="#000000" stroke-width="1.5" x1="1301.5" y1="270" x2="1301.5" y2="280"/><text style="font: 8px sans-serif;" x="1296.5" y="265">S801</text><line stroke="#000000" stroke-width="1.5" x1="1540.0" y1="270" x2="1540.0" y2="280"/><text style="font: 8px sans-serif;" x="1535.0" y="265">S960</text><line stroke="#000000" stroke-width="1.5" x1="1558.0" y1="270" x2="1558.0" y2="280"/><text style="font: 8px sans-serif;" x="1553.0" y="265">S972</text><line stroke="#000000" stroke-width="1.5" x1="1672.0" y1="270" x2="1672.0" y2="280"/><text style="font: 8px sans-serif;" x="1667.0" y="265">S1048</text><text style="font: 15px sans-serif;" x="40" y="355">PAN1</text><rect stroke="#006FB0" stroke-width="1" x="100" y="340" width="2220.0" height="20" fill="#B9E3FF"/><line stroke="#000000" stroke-width="1.5" x1="1451.5" y1="330" x2="1451.5" y2="340"/><text style="font: 8px sans-serif;" x="1446.5" y="325">S901</text><line stroke="#000000" stroke-width="1.5" x1="2081.5" y1="330" x2="2081.5" y2="340"/><text style="font: 8px sans-serif;" x="2076.5" y="325">T1321</text><text style="font: 15px sans-serif;" x="40" y="415">MYO5</text><rect stroke="#006FB0" stroke-width="1" x="100" y="400" width="1828.5" height="20" fill="#B9E3FF"/><line stroke="#000000" stroke-width="1.5" x1="635.5" y1="390" x2="635.5" y2="400"/><text style="font: 8px sans-serif;" x="630.5" y="385">S357</text><line stroke="#000000" stroke-width="1.5" x1="1265.5" y1="390" x2="1265.5" y2="400"/><text style="font: 8px sans-serif;" x="1260.5" y="385">S777</text><line stroke="#000000" stroke-width="1.5" x1="1588.0" y1="390" x2="1588.0" y2="400"/><text style="font: 8px sans-serif;" x="1583.0" y="385">S992</text><line stroke="#000000" stroke-width="1.5" x1="1657.0" y1="390" x2="1657.0" y2="400"/><text style="font: 8px sans-serif;" x="1652.0" y="385">S1038</text><text style="font: 15px sans-serif;" x="40" y="475">SLA2</text><rect stroke="#006FB0" stroke-width="1" x="100" y="460" width="1452.0" height="20" fill="#B9E3FF"/><line stroke="#000000" stroke-width="1.5" x1="535.0" y1="450" x2="535.0" y2="460"/><text style="font: 8px sans-serif;" x="530.0" y="445">T290</text><line stroke="#000000" stroke-width="1.5" x1="562.0" y1="450" x2="562.0" y2="460"/><text style="font: 8px sans-serif;" x="557.0" y="445">S308</text><text style="font: 15px sans-serif;" x="40" y="535">MYO3</text><rect stroke="#006FB0" stroke-width="1" x="100" y="520" width="1908.0" height="20" fill="#B9E3FF"/><line stroke="#000000" stroke-width="1.5" x1="635.5" y1="510" x2="635.5" y2="520"/><text style="font: 8px sans-serif;" x="630.5" y="505">S357</text><line stroke="#000000" stroke-width="1.5" x1="1265.5" y1="510" x2="1265.5" y2="520"/><text style="font: 8px sans-serif;" x="1260.5" y="505">S777</text><text style="font: 15px sans-serif;" x="40" y="595">NDC80</text><rect stroke="#006FB0" stroke-width="1" x="100" y="580" width="1036.5" height="20" fill="#B9E3FF"/><line stroke="#000000" stroke-width="1.5" x1="478.0" y1="570" x2="478.0" y2="580"/><text style="font: 8px sans-serif;" x="473.0" y="565">T252</text><text style="font: 15px sans-serif;" x="40" y="655">VRP1</text><rect stroke="#006FB0" stroke-width="1" x="100" y="640" width="1225.5" height="20" fill="#B9E3FF"/><line stroke="#000000" stroke-width="1.5" x1="485.5" y1="630" x2="485.5" y2="640"/><text style="font: 8px sans-serif;" x="480.5" y="625">T257</text><line stroke="#000000" stroke-width="1.5" x1="548.5" y1="630" x2="548.5" y2="640"/><text style="font: 8px sans-serif;" x="543.5" y="625">T299</text><line stroke="#000000" stroke-width="1.5" x1="793.0" y1="630" x2="793.0" y2="640"/><text style="font: 8px sans-serif;" x="788.0" y="625">S462</text><line stroke="#000000" stroke-width="1.5" x1="883.0" y1="630" x2="883.0" y2="640"/><text style="font: 8px sans-serif;" x="878.0" y="625">S522</text><line stroke="#000000" stroke-width="1.5" x1="1154.5" y1="630" x2="1154.5" y2="640"/><text style="font: 8px sans-serif;" x="1149.5" y="625">S703</text><line stroke="#000000" stroke-width="1.5" x1="1163.5" y1="630" x2="1163.5" y2="640"/><text style="font: 8px sans-serif;" x="1158.5" y="625">S709</text><line stroke="#000000" stroke-width="1.5" x1="1166.5" y1="630" x2="1166.5" y2="640"/><text style="font: 8px sans-serif;" x="1161.5" y="625">S711</text><line stroke="#000000" stroke-width="1.5" x1="1172.5" y1="630" x2="1172.5" y2="640"/><text style="font: 8px sans-serif;" x="1167.5" y="625">T715</text><line stroke="#000000" stroke-width="1.5" x1="1183.0" y1="630" x2="1183.0" y2="640"/><text style="font: 8px sans-serif;" x="1178.0" y="625">S722</text><text style="font: 15px sans-serif;" x="40" y="715">SPC105</text><rect stroke="#006FB0" stroke-width="1" x="100" y="700" width="1375.5" height="20" fill="#B9E3FF"/><line stroke="#000000" stroke-width="1.5" x1="314.5" y1="690" x2="314.5" y2="700"/><text style="font: 8px sans-serif;" x="309.5" y="685">T143</text><line stroke="#000000" stroke-width="1.5" x1="634.0" y1="690" x2="634.0" y2="700"/><text style="font: 8px sans-serif;" x="629.0" y="685">T356</text><line stroke="#000000" stroke-width="1.5" x1="670.0" y1="690" x2="670.0" y2="700"/><text style="font: 8px sans-serif;" x="665.0" y="685">S380</text><line stroke="#000000" stroke-width="1.5" x1="1112.5" y1="690" x2="1112.5" y2="700"/><text style="font: 8px sans-serif;" x="1107.5" y="685">T675</text><text style="font: 15px sans-serif;" x="40" y="775">NUF2</text><rect stroke="#006FB0" stroke-width="1" x="100" y="760" width="676.5" height="20" fill="#B9E3FF"/><line stroke="#000000" stroke-width="1.5" x1="472.0" y1="750" x2="472.0" y2="760"/><text style="font: 8px sans-serif;" x="467.0" y="745">S248</text><line stroke="#000000" stroke-width="1.5" x1="661.0" y1="750" x2="661.0" y2="760"/><text style="font: 8px sans-serif;" x="656.0" y="745">T374</text><text style="font: 15px sans-serif;" x="40" y="835">BBC1</text><rect stroke="#006FB0" stroke-width="1" x="100" y="820" width="1735.5" height="20" fill="#B9E3FF"/><line stroke="#000000" stroke-width="1.5" x1="337.0" y1="810" x2="337.0" y2="820"/><text style="font: 8px sans-serif;" x="332.0" y="805">S158</text><line stroke="#000000" stroke-width="1.5" x1="349.0" y1="810" x2="349.0" y2="820"/><text style="font: 8px sans-serif;" x="344.0" y="805">S166</text><line stroke="#000000" stroke-width="1.5" x1="947.5" y1="810" x2="947.5" y2="820"/><text style="font: 8px sans-serif;" x="942.5" y="805">S565</text><line stroke="#000000" stroke-width="1.5" x1="1036.0" y1="810" x2="1036.0" y2="820"/><text style="font: 8px sans-serif;" x="1031.0" y="805">T624</text><line stroke="#000000" stroke-width="1.5" x1="1070.5" y1="810" x2="1070.5" y2="820"/><text style="font: 8px sans-serif;" x="1065.5" y="805">S647</text><text style="font: 15px sans-serif;" x="40" y="895">LSB3</text><rect stroke="#006FB0" stroke-width="1" x="100" y="880" width="688.5" height="20" fill="#B9E3FF"/><line stroke="#000000" stroke-width="1.5" x1="554.5" y1="870" x2="554.5" y2="880"/><text style="font: 8px sans-serif;" x="549.5" y="865">S303</text><line stroke="#000000" stroke-width="1.5" x1="578.5" y1="870" x2="578.5" y2="880"/><text style="font: 8px sans-serif;" x="573.5" y="865">S319</text><line stroke="#000000" stroke-width="1.5" x1="689.5" y1="870" x2="689.5" y2="880"/><text style="font: 8px sans-serif;" x="684.5" y="865">T393</text><line stroke="#000000" stroke-width="1.5" x1="695.5" y1="870" x2="695.5" y2="880"/><text style="font: 8px sans-serif;" x="690.5" y="865">S397</text><text style="font: 15px sans-serif;" x="40" y="955">DSN1</text><rect stroke="#006FB0" stroke-width="1" x="100" y="940" width="864.0" height="20" fill="#B9E3FF"/><line stroke="#000000" stroke-width="1.5" x1="203.5" y1="930" x2="203.5" y2="940"/><text style="font: 8px sans-serif;" x="198.5" y="925">S69</text><line stroke="#000000" stroke-width="1.5" x1="923.5" y1="930" x2="923.5" y2="940"/><text style="font: 8px sans-serif;" x="918.5" y="925">T549</text><line stroke="#000000" stroke-width="1.5" x1="931.0" y1="930" x2="931.0" y2="940"/><text style="font: 8px sans-serif;" x="926.0" y="925">S554</text><text style="font: 15px sans-serif;" x="40" y="1015">DNF1</text><rect stroke="#006FB0" stroke-width="1" x="100" y="1000" width="2356.5" height="20" fill="#B9E3FF"/><line stroke="#000000" stroke-width="1.5" x1="2417.5" y1="990" x2="2417.5" y2="1000"/><text style="font: 8px sans-serif;" x="2412.5" y="985">S1545</text><line stroke="#000000" stroke-width="1.5" x1="2428.0" y1="990" x2="2428.0" y2="1000"/><text style="font: 8px sans-serif;" x="2423.0" y="985">S1552</text><text style="font: 15px sans-serif;" x="40" y="1075">END3</text><rect stroke="#006FB0" stroke-width="1" x="100" y="1060" width="523.5" height="20" fill="#B9E3FF"/><line stroke="#000000" stroke-width="1.5" x1="514.0" y1="1050" x2="514.0" y2="1060"/><text style="font: 8px sans-serif;" x="509.0" y="1045">S276</text><text style="font: 15px sans-serif;" x="40" y="1135">SPC24</text><rect stroke="#006FB0" stroke-width="1" x="100" y="1120" width="319.5" height="20" fill="#B9E3FF"/><line stroke="#000000" stroke-width="1.5" x1="103.0" y1="1110" x2="103.0" y2="1120"/><text style="font: 8px sans-serif;" x="98.0" y="1105">S2</text><line stroke="#000000" stroke-width="1.5" x1="295.0" y1="1110" x2="295.0" y2="1120"/><text style="font: 8px sans-serif;" x="290.0" y="1105">T130</text><line stroke="#000000" stroke-width="1.5" x1="328.0" y1="1110" x2="328.0" y2="1120"/><text style="font: 8px sans-serif;" x="323.0" y="1105">T152</text><text style="font: 15px sans-serif;" x="40" y="1195">UBP7</text><rect stroke="#006FB0" stroke-width="1" x="100" y="1180" width="1606.5" height="20" fill="#B9E3FF"/><line stroke="#000000" stroke-width="1.5" x1="332.5" y1="1170" x2="332.5" y2="1180"/><text style="font: 8px sans-serif;" x="327.5" y="1165">S155</text><text style="font: 15px sans-serif;" x="40" y="1255">LAS17</text><rect stroke="#006FB0" stroke-width="1" x="100" y="1240" width="949.5" height="20" fill="#B9E3FF"/><line stroke="#000000" stroke-width="1.5" x1="437.5" y1="1230" x2="437.5" y2="1240"/><text style="font: 8px sans-serif;" x="432.5" y="1225">S225</text><line stroke="#000000" stroke-width="1.5" x1="979.0" y1="1230" x2="979.0" y2="1240"/><text style="font: 8px sans-serif;" x="974.0" y="1225">S586</text><text style="font: 15px sans-serif;" x="40" y="1315">GTS1</text><rect stroke="#006FB0" stroke-width="1" x="100" y="1300" width="594.0" height="20" fill="#B9E3FF"/><line stroke="#000000" stroke-width="1.5" x1="473.5" y1="1290" x2="473.5" y2="1300"/><text style="font: 8px sans-serif;" x="468.5" y="1285">T249</text><text style="font: 15px sans-serif;" x="40" y="1375">RGA1</text><rect stroke="#006FB0" stroke-width="1" x="100" y="1360" width="1510.5" height="20" fill="#B9E3FF"/><line stroke="#000000" stroke-width="1.5" x1="596.5" y1="1350" x2="596.5" y2="1360"/><text style="font: 8px sans-serif;" x="591.5" y="1345">S331</text><text style="font: 15px sans-serif;" x="40" y="1435">BSP1</text><rect stroke="#006FB0" stroke-width="1" x="100" y="1420" width="864.0" height="20" fill="#B9E3FF"/><line stroke="#000000" stroke-width="1.5" x1="377.5" y1="1410" x2="377.5" y2="1420"/><text style="font: 8px sans-serif;" x="372.5" y="1405">S185</text><line stroke="#000000" stroke-width="1.5" x1="539.5" y1="1410" x2="539.5" y2="1420"/><text style="font: 8px sans-serif;" x="534.5" y="1405">T293</text><line stroke="#000000" stroke-width="1.5" x1="563.5" y1="1410" x2="563.5" y2="1420"/><text style="font: 8px sans-serif;" x="558.5" y="1405">S309</text><text style="font: 15px sans-serif;" x="40" y="1495">PRK1</text><rect stroke="#006FB0" stroke-width="1" x="100" y="1480" width="1215.0" height="20" fill="#B9E3FF"/><line stroke="#000000" stroke-width="1.5" x1="826.0" y1="1470" x2="826.0" y2="1480"/><text style="font: 8px sans-serif;" x="821.0" y="1465">S484</text><text style="font: 15px sans-serif;" x="40" y="1555">MIF2</text><rect stroke="#006FB0" stroke-width="1" x="100" y="1540" width="823.5" height="20" fill="#B9E3FF"/><line stroke="#000000" stroke-width="1.5" x1="587.5" y1="1530" x2="587.5" y2="1540"/><text style="font: 8px sans-serif;" x="582.5" y="1525">S325</text><text style="font: 15px sans-serif;" x="40" y="1615">AME1</text><rect stroke="#006FB0" stroke-width="1" x="100" y="1600" width="486.0" height="20" fill="#B9E3FF"/><line stroke="#000000" stroke-width="1.5" x1="179.5" y1="1590" x2="179.5" y2="1600"/><text style="font: 8px sans-serif;" x="174.5" y="1585">S53</text><text style="font: 15px sans-serif;" x="40" y="1675">CNN1</text><rect stroke="#006FB0" stroke-width="1" x="100" y="1660" width="541.5" height="20" fill="#B9E3FF"/><line stroke="#000000" stroke-width="1.5" x1="365.5" y1="1650" x2="365.5" y2="1660"/><text style="font: 8px sans-serif;" x="360.5" y="1645">S177</text><text style="font: 15px sans-serif;" x="40" y="1735">ASK1</text><rect stroke="#006FB0" stroke-width="1" x="100" y="1720" width="438.0" height="20" fill="#B9E3FF"/><line stroke="#000000" stroke-width="1.5" x1="514.0" y1="1710" x2="514.0" y2="1720"/><text style="font: 8px sans-serif;" x="509.0" y="1705">T276</text><text style="font: 15px sans-serif;" x="40" y="1795">SPO20</text><rect stroke="#006FB0" stroke-width="1" x="100" y="1780" width="595.5" height="20" fill="#B9E3FF"/><line stroke="#000000" stroke-width="1.5" x1="265.0" y1="1770" x2="265.0" y2="1780"/><text style="font: 8px sans-serif;" x="260.0" y="1765">S110</text><text style="font: 15px sans-serif;" x="40" y="1855">CSE1</text><rect stroke="#006FB0" stroke-width="1" x="100" y="1840" width="1440.0" height="20" fill="#B9E3FF"/><line stroke="#000000" stroke-width="1.5" x1="397.0" y1="1830" x2="397.0" y2="1840"/><text style="font: 8px sans-serif;" x="392.0" y="1825">S198</text></svg>