<svg xmlns="http://www.w3.org/2000/svg" width="3492.5" height="740"><text style="font: 15px sans-serif;" x="40" y="175">ASK1</text><rect stroke="#006FB0" stroke-width="1" x="100" y="160" width="438.0" height="20" fill="#B9E3FF"/><line stroke="#000000" stroke-width="1.5" x1="139.0" y1="150" x2="139.0" y2="160"/><text style="font: 8px sans-serif;" x="134.0" y="145">S26</text><line stroke="#000000" stroke-width="1.5" x1="248.5" y1="150" x2="248.5" y2="160"/><text style="font: 8px sans-serif;" x="243.5" y="145">S99</text><line stroke="#000000" stroke-width="1.5" x1="292.0" y1="150" x2="292.0" y2="160"/><text style="font: 8px sans-serif;" x="287.0" y="145">S128</text><line stroke="#000000" stroke-width="1.5" x1="400.0" y1="150" x2="400.0" y2="160"/><text style="font: 8px sans-serif;" x="395.0" y="145">S200</text><line stroke="#000000" stroke-width="1.5" x1="424.0" y1="150" x2="424.0" y2="160"/><text style="font: 8px sans-serif;" x="419.0" y="145">S216</text><text style="font: 15px sans-serif;" x="40" y="235">SPC34</text><rect stroke="#006FB0" stroke-width="1" x="100" y="220" width="442.5" height="20" fill="#B9E3FF"/><line stroke="#000000" stroke-width="1.5" x1="388.0" y1="210" x2="388.0" y2="220"/><text style="font: 8px sans-serif;" x="383.0" y="205">S192</text><text style="font: 15px sans-serif;" x="40" y="295">DAM1</text><rect stroke="#006FB0" stroke-width="1" x="100" y="280" width="514.5" height="20" fill="#B9E3FF"/><line stroke="#000000" stroke-width="1.5" x1="130.0" y1="270" x2="130.0" y2="280"/><text style="font: 8px sans-serif;" x="125.0" y="265">S20</text><line stroke="#000000" stroke-width="1.5" x1="134.5" y1="270" x2="134.5" y2="280"/><text style="font: 8px sans-serif;" x="129.5" y="265">S23</text><line stroke="#000000" stroke-width="1.5" x1="146.5" y1="270" x2="146.5" y2="280"/><text style="font: 8px sans-serif;" x="141.5" y="265">S31</text><line stroke="#000000" stroke-width="1.5" x1="172.0" y1="270" x2="172.0" y2="280"/><text style="font: 8px sans-serif;" x="167.0" y="265">T48</text><text style="font: 15px sans-serif;" x="40" y="355">DUO1</text><rect stroke="#006FB0" stroke-width="1" x="100" y="340" width="370.5" height="20" fill="#B9E3FF"/><line stroke="#000000" stroke-width="1.5" x1="107.5" y1="330" x2="107.5" y2="340"/><text style="font: 8px sans-serif;" x="102.5" y="325">S5</text><line stroke="#000000" stroke-width="1.5" x1="145.0" y1="330" x2="145.0" y2="340"/><text style="font: 8px sans-serif;" x="140.0" y="325">T30</text><line stroke="#000000" stroke-width="1.5" x1="326.5" y1="330" x2="326.5" y2="340"/><text style="font: 8px sans-serif;" x="321.5" y="325">T151</text><text style="font: 15px sans-serif;" x="40" y="415">DAD3</text><rect stroke="#006FB0" stroke-width="1" x="100" y="400" width="141.0" height="20" fill="#B9E3FF"/><line stroke="#000000" stroke-width="1.5" x1="170.5" y1="390" x2="170.5" y2="400"/><text style="font: 8px sans-serif;" x="165.5" y="385">T47</text><text style="font: 15px sans-serif;" x="40" y="475">DAD1</text><rect stroke="#006FB0" stroke-width="1" x="100" y="460" width="141.0" height="20" fill="#B9E3FF"/><line stroke="#000000" stroke-width="1.5" x1="230.5" y1="450" x2="230.5" y2="460"/><text style="font: 8px sans-serif;" x="225.5" y="445">T87</text><text style="font: 15px sans-serif;" x="40" y="535">SEC16</text><rect stroke="#006FB0" stroke-width="1" x="100" y="520" width="3292.5" height="20" fill="#B9E3FF"/><line stroke="#000000" stroke-width="1.5" x1="1010.5" y1="510" x2="1010.5" y2="520"/><text style="font: 8px sans-serif;" x="1005.5" y="505">S607</text><text style="font: 15px sans-serif;" x="40" y="595">NDC80</text><rect stroke="#006FB0" stroke-width="1" x="100" y="580" width="1036.5" height="20" fill="#B9E3FF"/><line stroke="#000000" stroke-width="1.5" x1="472.0" y1="570" x2="472.0" y2="580"/><text style="font: 8px sans-serif;" x="467.0" y="565">T248</text><text style="font: 15px sans-serif;" x="40" y="655">POM152</text><rect stroke="#006FB0" stroke-width="1" x="100" y="640" width="2005.5" height="20" fill="#B9E3FF"/><line stroke="#000000" stroke-width="1.5" x1="1813.0" y1="630" x2="1813.0" y2="640"/><text style="font: 8px sans-serif;" x="1808.0" y="625">S1142</text></svg>