<svg xmlns="http://www.w3.org/2000/svg" width="2834.0" height="1460"><text style="font: 15px sans-serif;" x="40" y="175">NDC80</text><rect stroke="#006FB0" stroke-width="1" x="100" y="160" width="1036.5" height="20" fill="#B9E3FF"/><line stroke="#000000" stroke-width="1.5" x1="155.5" y1="150" x2="155.5" y2="160"/><text style="font: 8px sans-serif;" x="150.5" y="145">S37</text><line stroke="#000000" stroke-width="1.5" x1="478.0" y1="150" x2="478.0" y2="160"/><text style="font: 8px sans-serif;" x="473.0" y="145">T252</text><line stroke="#000000" stroke-width="1.5" x1="830.5" y1="150" x2="830.5" y2="160"/><text style="font: 8px sans-serif;" x="825.5" y="145">S487</text><line stroke="#000000" stroke-width="1.5" x1="1135.0" y1="150" x2="1135.0" y2="160"/><text style="font: 8px sans-serif;" x="1130.0" y="145">T690</text><text style="font: 15px sans-serif;" x="40" y="235">SPC105</text><rect stroke="#006FB0" stroke-width="1" x="100" y="220" width="1375.5" height="20" fill="#B9E3FF"/><line stroke="#000000" stroke-width="1.5" x1="224.5" y1="210" x2="224.5" y2="220"/><text style="font: 8px sans-serif;" x="219.5" y="205">T83</text><line stroke="#000000" stroke-width="1.5" x1="358.0" y1="210" x2="358.0" y2="220"/><text style="font: 8px sans-serif;" x="353.0" y="205">T172</text><line stroke="#000000" stroke-width="1.5" x1="452.5" y1="210" x2="452.5" y2="220"/><text style="font: 8px sans-serif;" x="447.5" y="205">T235</text><line stroke="#000000" stroke-width="1.5" x1="593.5" y1="210" x2="593.5" y2="220"/><text style="font: 8px sans-serif;" x="588.5" y="205">S329</text><line stroke="#000000" stroke-width="1.5" x1="634.0" y1="210" x2="634.0" y2="220"/><text style="font: 8px sans-serif;" x="629.0" y="205">T356</text><line stroke="#000000" stroke-width="1.5" x1="677.5" y1="210" x2="677.5" y2="220"/><text style="font: 8px sans-serif;" x="672.5" y="205">S385</text><text style="font: 15px sans-serif;" x="40" y="295">BUB1</text><rect stroke="#006FB0" stroke-width="1" x="100" y="280" width="1531.5" height="20" fill="#B9E3FF"/><line stroke="#000000" stroke-width="1.5" x1="121.0" y1="270" x2="121.0" y2="280"/><text style="font: 8px sans-serif;" x="116.0" y="265">S14</text><line stroke="#000000" stroke-width="1.5" x1="142.0" y1="270" x2="142.0" y2="280"/><text style="font: 8px sans-serif;" x="137.0" y="265">S28</text><line stroke="#000000" stroke-width="1.5" x1="863.5" y1="270" x2="863.5" y2="280"/><text style="font: 8px sans-serif;" x="858.5" y="265">T509</text><line stroke="#000000" stroke-width="1.5" x1="905.5" y1="270" x2="905.5" y2="280"/><text style="font: 8px sans-serif;" x="900.5" y="265">S537</text><text style="font: 15px sans-serif;" x="40" y="355">DSN1</text><rect stroke="#006FB0" stroke-width="1" x="100" y="340" width="864.0" height="20" fill="#B9E3FF"/><line stroke="#000000" stroke-width="1.5" x1="109.0" y1="330" x2="109.0" y2="340"/><text style="font: 8px sans-serif;" x="104.0" y="325">T6</text><line stroke="#000000" stroke-width="1.5" x1="184.0" y1="330" x2="184.0" y2="340"/><text style="font: 8px sans-serif;" x="179.0" y="325">T56</text><line stroke="#000000" stroke-width="1.5" x1="203.5" y1="330" x2="203.5" y2="340"/><text style="font: 8px sans-serif;" x="198.5" y="325">S69</text><line stroke="#000000" stroke-width="1.5" x1="523.0" y1="330" x2="523.0" y2="340"/><text style="font: 8px sans-serif;" x="518.0" y="325">S282</text><line stroke="#000000" stroke-width="1.5" x1="670.0" y1="330" x2="670.0" y2="340"/><text style="font: 8px sans-serif;" x="665.0" y="325">T380</text><line stroke="#000000" stroke-width="1.5" x1="931.0" y1="330" x2="931.0" y2="340"/><text style="font: 8px sans-serif;" x="926.0" y="325">S554</text><text style="font: 15px sans-serif;" x="40" y="415">MPS1</text><rect stroke="#006FB0" stroke-width="1" x="100" y="400" width="1146.0" height="20" fill="#B9E3FF"/><line stroke="#000000" stroke-width="1.5" x1="175.0" y1="390" x2="175.0" y2="400"/><text style="font: 8px sans-serif;" x="170.0" y="385">S50</text><line stroke="#000000" stroke-width="1.5" x1="206.5" y1="390" x2="206.5" y2="400"/><text style="font: 8px sans-serif;" x="201.5" y="385">S71</text><line stroke="#000000" stroke-width="1.5" x1="377.5" y1="390" x2="377.5" y2="400"/><text style="font: 8px sans-serif;" x="372.5" y="385">S185</text><line stroke="#000000" stroke-width="1.5" x1="572.5" y1="390" x2="572.5" y2="400"/><text style="font: 8px sans-serif;" x="567.5" y="385">S315</text><line stroke="#000000" stroke-width="1.5" x1="604.0" y1="390" x2="604.0" y2="400"/><text style="font: 8px sans-serif;" x="599.0" y="385">S336</text><line stroke="#000000" stroke-width="1.5" x1="644.5" y1="390" x2="644.5" y2="400"/><text style="font: 8px sans-serif;" x="639.5" y="385">S363</text><text style="font: 15px sans-serif;" x="40" y="475">MIF2</text><rect stroke="#006FB0" stroke-width="1" x="100" y="460" width="823.5" height="20" fill="#B9E3FF"/><line stroke="#000000" stroke-width="1.5" x1="140.5" y1="450" x2="140.5" y2="460"/><text style="font: 8px sans-serif;" x="135.5" y="445">S27</text><line stroke="#000000" stroke-width="1.5" x1="340.0" y1="450" x2="340.0" y2="460"/><text style="font: 8px sans-serif;" x="335.0" y="445">S160</text><line stroke="#000000" stroke-width="1.5" x1="349.0" y1="450" x2="349.0" y2="460"/><text style="font: 8px sans-serif;" x="344.0" y="445">T166</text><line stroke="#000000" stroke-width="1.5" x1="587.5" y1="450" x2="587.5" y2="460"/><text style="font: 8px sans-serif;" x="582.5" y="445">S325</text><text style="font: 15px sans-serif;" x="40" y="535">OKP1</text><rect stroke="#006FB0" stroke-width="1" x="100" y="520" width="609.0" height="20" fill="#B9E3FF"/><line stroke="#000000" stroke-width="1.5" x1="205.0" y1="510" x2="205.0" y2="520"/><text style="font: 8px sans-serif;" x="200.0" y="505">S70</text><text style="font: 15px sans-serif;" x="40" y="595">MAD1</text><rect stroke="#006FB0" stroke-width="1" x="100" y="580" width="1123.5" height="20" fill="#B9E3FF"/><line stroke="#000000" stroke-width="1.5" x1="853.0" y1="570" x2="853.0" y2="580"/><text style="font: 8px sans-serif;" x="848.0" y="565">T502</text><text style="font: 15px sans-serif;" x="40" y="655">AME1</text><rect stroke="#006FB0" stroke-width="1" x="100" y="640" width="486.0" height="20" fill="#B9E3FF"/><line stroke="#000000" stroke-width="1.5" x1="161.5" y1="630" x2="161.5" y2="640"/><text style="font: 8px sans-serif;" x="156.5" y="625">S41</text><line stroke="#000000" stroke-width="1.5" x1="188.5" y1="630" x2="188.5" y2="640"/><text style="font: 8px sans-serif;" x="183.5" y="625">S59</text><text style="font: 15px sans-serif;" x="40" y="715">SPC24</text><rect stroke="#006FB0" stroke-width="1" x="100" y="700" width="319.5" height="20" fill="#B9E3FF"/><line stroke="#000000" stroke-width="1.5" x1="103.0" y1="690" x2="103.0" y2="700"/><text style="font: 8px sans-serif;" x="98.0" y="685">S2</text><line stroke="#000000" stroke-width="1.5" x1="295.0" y1="690" x2="295.0" y2="700"/><text style="font: 8px sans-serif;" x="290.0" y="685">T130</text><text style="font: 15px sans-serif;" x="40" y="775">YER138C</text><rect stroke="#006FB0" stroke-width="1" x="100" y="760" width="2632.5" height="20" fill="#B9E3FF"/><line stroke="#000000" stroke-width="1.5" x1="1541.5" y1="750" x2="1541.5" y2="760"/><text style="font: 8px sans-serif;" x="1536.5" y="745">P961</text><line stroke="#000000" stroke-width="1.5" x1="1684.0" y1="750" x2="1684.0" y2="760"/><text style="font: 8px sans-serif;" x="1679.0" y="745">E1056</text><line stroke="#000000" stroke-width="1.5" x1="1723.0" y1="750" x2="1723.0" y2="760"/><text style="font: 8px sans-serif;" x="1718.0" y="745">D1082</text><text style="font: 15px sans-serif;" x="40" y="835">YPR158W-B</text><rect stroke="#006FB0" stroke-width="1" x="100" y="820" width="2634.0" height="20" fill="#B9E3FF"/><line stroke="#000000" stroke-width="1.5" x1="1541.5" y1="810" x2="1541.5" y2="820"/><text style="font: 8px sans-serif;" x="1536.5" y="805">S961</text><line stroke="#000000" stroke-width="1.5" x1="1684.0" y1="810" x2="1684.0" y2="820"/><text style="font: 8px sans-serif;" x="1679.0" y="805">S1056</text><line stroke="#000000" stroke-width="1.5" x1="1723.0" y1="810" x2="1723.0" y2="820"/><text style="font: 8px sans-serif;" x="1718.0" y="805">S1082</text><text style="font: 15px sans-serif;" x="40" y="895">NKP1</text><rect stroke="#006FB0" stroke-width="1" x="100" y="880" width="357.0" height="20" fill="#B9E3FF"/><line stroke="#000000" stroke-width="1.5" x1="217.0" y1="870" x2="217.0" y2="880"/><text style="font: 8px sans-serif;" x="212.0" y="865">S78</text><text style="font: 15px sans-serif;" x="40" y="955">PSH1</text><rect stroke="#006FB0" stroke-width="1" x="100" y="940" width="609.0" height="20" fill="#B9E3FF"/><line stroke="#000000" stroke-width="1.5" x1="386.5" y1="930" x2="386.5" y2="940"/><text style="font: 8px sans-serif;" x="381.5" y="925">S191</text><line stroke="#000000" stroke-width="1.5" x1="565.0" y1="930" x2="565.0" y2="940"/><text style="font: 8px sans-serif;" x="560.0" y="925">T310</text><text style="font: 15px sans-serif;" x="40" y="1015">ASK1</text><rect stroke="#006FB0" stroke-width="1" x="100" y="1000" width="438.0" height="20" fill="#B9E3FF"/><line stroke="#000000" stroke-width="1.5" x1="277.0" y1="990" x2="277.0" y2="1000"/><text style="font: 8px sans-serif;" x="272.0" y="985">S118</text><line stroke="#000000" stroke-width="1.5" x1="301.0" y1="990" x2="301.0" y2="1000"/><text style="font: 8px sans-serif;" x="296.0" y="985">S134</text><text style="font: 15px sans-serif;" x="40" y="1075">DAM1</text><rect stroke="#006FB0" stroke-width="1" x="100" y="1060" width="514.5" height="20" fill="#B9E3FF"/><line stroke="#000000" stroke-width="1.5" x1="146.5" y1="1050" x2="146.5" y2="1060"/><text style="font: 8px sans-serif;" x="141.5" y="1045">S31</text><text style="font: 15px sans-serif;" x="40" y="1135">YMR045C</text><rect stroke="#006FB0" stroke-width="1" x="100" y="1120" width="2632.5" height="20" fill="#B9E3FF"/><line stroke="#000000" stroke-width="1.5" x1="1541.5" y1="1110" x2="1541.5" y2="1120"/><text style="font: 8px sans-serif;" x="1536.5" y="1105">P961</text><text style="font: 15px sans-serif;" x="40" y="1195">RPC82</text><rect stroke="#006FB0" stroke-width="1" x="100" y="1180" width="981.0" height="20" fill="#B9E3FF"/><line stroke="#000000" stroke-width="1.5" x1="691.0" y1="1170" x2="691.0" y2="1180"/><text style="font: 8px sans-serif;" x="686.0" y="1165">S394</text><text style="font: 15px sans-serif;" x="40" y="1255">XRN1</text><rect stroke="#006FB0" stroke-width="1" x="100" y="1240" width="2292.0" height="20" fill="#B9E3FF"/><line stroke="#000000" stroke-width="1.5" x1="2365.0" y1="1230" x2="2365.0" y2="1240"/><text style="font: 8px sans-serif;" x="2360.0" y="1225">S1510</text><text style="font: 15px sans-serif;" x="40" y="1315">CMR1</text><rect stroke="#006FB0" stroke-width="1" x="100" y="1300" width="783.0" height="20" fill="#B9E3FF"/><line stroke="#000000" stroke-width="1.5" x1="868.0" y1="1290" x2="868.0" y2="1300"/><text style="font: 8px sans-serif;" x="863.0" y="1285">T512</text><text style="font: 15px sans-serif;" x="40" y="1375">STU1</text><rect stroke="#006FB0" stroke-width="1" x="100" y="1360" width="2269.5" height="20" fill="#B9E3FF"/><line stroke="#000000" stroke-width="1.5" x1="1627.0" y1="1350" x2="1627.0" y2="1360"/><text style="font: 8px sans-serif;" x="1622.0" y="1345">S1018</text></svg>