<svg xmlns="http://www.w3.org/2000/svg" width="2834.0" height="1340"><text style="font: 15px sans-serif;" x="40" y="175">NDC80</text><rect stroke="#006FB0" stroke-width="1" x="100" y="160" width="1036.5" height="20" fill="#B9E3FF"/><line stroke="#000000" stroke-width="1.5" x1="472.0" y1="150" x2="472.0" y2="160"/><text style="font: 8px sans-serif;" x="467.0" y="145">T248</text><line stroke="#000000" stroke-width="1.5" x1="478.0" y1="150" x2="478.0" y2="160"/><text style="font: 8px sans-serif;" x="473.0" y="145">T252</text><line stroke="#000000" stroke-width="1.5" x1="830.5" y1="150" x2="830.5" y2="160"/><text style="font: 8px sans-serif;" x="825.5" y="145">S487</text><line stroke="#000000" stroke-width="1.5" x1="1135.0" y1="150" x2="1135.0" y2="160"/><text style="font: 8px sans-serif;" x="1130.0" y="145">T690</text><text style="font: 15px sans-serif;" x="40" y="235">SPC105</text><rect stroke="#006FB0" stroke-width="1" x="100" y="220" width="1375.5" height="20" fill="#B9E3FF"/><line stroke="#000000" stroke-width="1.5" x1="452.5" y1="210" x2="452.5" y2="220"/><text style="font: 8px sans-serif;" x="447.5" y="205">T235</text><line stroke="#000000" stroke-width="1.5" x1="593.5" y1="210" x2="593.5" y2="220"/><text style="font: 8px sans-serif;" x="588.5" y="205">S329</text><line stroke="#000000" stroke-width="1.5" x1="634.0" y1="210" x2="634.0" y2="220"/><text style="font: 8px sans-serif;" x="629.0" y="205">T356</text><text style="font: 15px sans-serif;" x="40" y="295">DSN1</text><rect stroke="#006FB0" stroke-width="1" x="100" y="280" width="864.0" height="20" fill="#B9E3FF"/><line stroke="#000000" stroke-width="1.5" x1="109.0" y1="270" x2="109.0" y2="280"/><text style="font: 8px sans-serif;" x="104.0" y="265">T6</text><line stroke="#000000" stroke-width="1.5" x1="184.0" y1="270" x2="184.0" y2="280"/><text style="font: 8px sans-serif;" x="179.0" y="265">T56</text><line stroke="#000000" stroke-width="1.5" x1="475.0" y1="270" x2="475.0" y2="280"/><text style="font: 8px sans-serif;" x="470.0" y="265">S250</text><line stroke="#000000" stroke-width="1.5" x1="523.0" y1="270" x2="523.0" y2="280"/><text style="font: 8px sans-serif;" x="518.0" y="265">S282</text><line stroke="#000000" stroke-width="1.5" x1="670.0" y1="270" x2="670.0" y2="280"/><text style="font: 8px sans-serif;" x="665.0" y="265">T380</text><line stroke="#000000" stroke-width="1.5" x1="679.0" y1="270" x2="679.0" y2="280"/><text style="font: 8px sans-serif;" x="674.0" y="265">T386</text><line stroke="#000000" stroke-width="1.5" x1="931.0" y1="270" x2="931.0" y2="280"/><text style="font: 8px sans-serif;" x="926.0" y="265">S554</text><text style="font: 15px sans-serif;" x="40" y="355">BUB1</text><rect stroke="#006FB0" stroke-width="1" x="100" y="340" width="1531.5" height="20" fill="#B9E3FF"/><line stroke="#000000" stroke-width="1.5" x1="121.0" y1="330" x2="121.0" y2="340"/><text style="font: 8px sans-serif;" x="116.0" y="325">S14</text><line stroke="#000000" stroke-width="1.5" x1="140.5" y1="330" x2="140.5" y2="340"/><text style="font: 8px sans-serif;" x="135.5" y="325">S27</text><line stroke="#000000" stroke-width="1.5" x1="863.5" y1="330" x2="863.5" y2="340"/><text style="font: 8px sans-serif;" x="858.5" y="325">T509</text><line stroke="#000000" stroke-width="1.5" x1="911.5" y1="330" x2="911.5" y2="340"/><text style="font: 8px sans-serif;" x="906.5" y="325">T541</text><line stroke="#000000" stroke-width="1.5" x1="925.0" y1="330" x2="925.0" y2="340"/><text style="font: 8px sans-serif;" x="920.0" y="325">T550</text><text style="font: 15px sans-serif;" x="40" y="415">MUB1</text><rect stroke="#006FB0" stroke-width="1" x="100" y="400" width="930.0" height="20" fill="#B9E3FF"/><line stroke="#000000" stroke-width="1.5" x1="479.5" y1="390" x2="479.5" y2="400"/><text style="font: 8px sans-serif;" x="474.5" y="385">S253</text><text style="font: 15px sans-serif;" x="40" y="475">OKP1</text><rect stroke="#006FB0" stroke-width="1" x="100" y="460" width="609.0" height="20" fill="#B9E3FF"/><line stroke="#000000" stroke-width="1.5" x1="205.0" y1="450" x2="205.0" y2="460"/><text style="font: 8px sans-serif;" x="200.0" y="445">S70</text><line stroke="#000000" stroke-width="1.5" x1="280.0" y1="450" x2="280.0" y2="460"/><text style="font: 8px sans-serif;" x="275.0" y="445">S120</text><line stroke="#000000" stroke-width="1.5" x1="593.5" y1="450" x2="593.5" y2="460"/><text style="font: 8px sans-serif;" x="588.5" y="445">S329</text><text style="font: 15px sans-serif;" x="40" y="535">MPS1</text><rect stroke="#006FB0" stroke-width="1" x="100" y="520" width="1146.0" height="20" fill="#B9E3FF"/><line stroke="#000000" stroke-width="1.5" x1="175.0" y1="510" x2="175.0" y2="520"/><text style="font: 8px sans-serif;" x="170.0" y="505">S50</text><line stroke="#000000" stroke-width="1.5" x1="604.0" y1="510" x2="604.0" y2="520"/><text style="font: 8px sans-serif;" x="599.0" y="505">S336</text><text style="font: 15px sans-serif;" x="40" y="595">MIF2</text><rect stroke="#006FB0" stroke-width="1" x="100" y="580" width="823.5" height="20" fill="#B9E3FF"/><line stroke="#000000" stroke-width="1.5" x1="181.0" y1="570" x2="181.0" y2="580"/><text style="font: 8px sans-serif;" x="176.0" y="565">S54</text><line stroke="#000000" stroke-width="1.5" x1="349.0" y1="570" x2="349.0" y2="580"/><text style="font: 8px sans-serif;" x="344.0" y="565">T166</text><line stroke="#000000" stroke-width="1.5" x1="587.5" y1="570" x2="587.5" y2="580"/><text style="font: 8px sans-serif;" x="582.5" y="565">S325</text><text style="font: 15px sans-serif;" x="40" y="655">AME1</text><rect stroke="#006FB0" stroke-width="1" x="100" y="640" width="486.0" height="20" fill="#B9E3FF"/><line stroke="#000000" stroke-width="1.5" x1="146.5" y1="630" x2="146.5" y2="640"/><text style="font: 8px sans-serif;" x="141.5" y="625">T31</text><line stroke="#000000" stroke-width="1.5" x1="161.5" y1="630" x2="161.5" y2="640"/><text style="font: 8px sans-serif;" x="156.5" y="625">S41</text><line stroke="#000000" stroke-width="1.5" x1="167.5" y1="630" x2="167.5" y2="640"/><text style="font: 8px sans-serif;" x="162.5" y="625">S45</text><line stroke="#000000" stroke-width="1.5" x1="188.5" y1="630" x2="188.5" y2="640"/><text style="font: 8px sans-serif;" x="183.5" y="625">S59</text><text style="font: 15px sans-serif;" x="40" y="715">MAD1</text><rect stroke="#006FB0" stroke-width="1" x="100" y="700" width="1123.5" height="20" fill="#B9E3FF"/><line stroke="#000000" stroke-width="1.5" x1="853.0" y1="690" x2="853.0" y2="700"/><text style="font: 8px sans-serif;" x="848.0" y="685">T502</text><text style="font: 15px sans-serif;" x="40" y="775">NSL1</text><rect stroke="#006FB0" stroke-width="1" x="100" y="760" width="324.0" height="20" fill="#B9E3FF"/><line stroke="#000000" stroke-width="1.5" x1="349.0" y1="750" x2="349.0" y2="760"/><text style="font: 8px sans-serif;" x="344.0" y="745">T166</text><text style="font: 15px sans-serif;" x="40" y="835">MCM21</text><rect stroke="#006FB0" stroke-width="1" x="100" y="820" width="552.0" height="20" fill="#B9E3FF"/><line stroke="#000000" stroke-width="1.5" x1="308.5" y1="810" x2="308.5" y2="820"/><text style="font: 8px sans-serif;" x="303.5" y="805">S139</text><text style="font: 15px sans-serif;" x="40" y="895">SPC24</text><rect stroke="#006FB0" stroke-width="1" x="100" y="880" width="319.5" height="20" fill="#B9E3FF"/><line stroke="#000000" stroke-width="1.5" x1="295.0" y1="870" x2="295.0" y2="880"/><text style="font: 8px sans-serif;" x="290.0" y="865">T130</text><text style="font: 15px sans-serif;" x="40" y="955">YER138C</text><rect stroke="#006FB0" stroke-width="1" x="100" y="940" width="2632.5" height="20" fill="#B9E3FF"/><line stroke="#000000" stroke-width="1.5" x1="1690.0" y1="930" x2="1690.0" y2="940"/><text style="font: 8px sans-serif;" x="1685.0" y="925">N1060</text><text style="font: 15px sans-serif;" x="40" y="1015">YPR158W-B</text><rect stroke="#006FB0" stroke-width="1" x="100" y="1000" width="2634.0" height="20" fill="#B9E3FF"/><line stroke="#000000" stroke-width="1.5" x1="1690.0" y1="990" x2="1690.0" y2="1000"/><text style="font: 8px sans-serif;" x="1685.0" y="985">T1060</text><text style="font: 15px sans-serif;" x="40" y="1075">ASK1</text><rect stroke="#006FB0" stroke-width="1" x="100" y="1060" width="438.0" height="20" fill="#B9E3FF"/><line stroke="#000000" stroke-width="1.5" x1="301.0" y1="1050" x2="301.0" y2="1060"/><text style="font: 8px sans-serif;" x="296.0" y="1045">S134</text><line stroke="#000000" stroke-width="1.5" x1="334.0" y1="1050" x2="334.0" y2="1060"/><text style="font: 8px sans-serif;" x="329.0" y="1045">S156</text><text style="font: 15px sans-serif;" x="40" y="1135">FIN1</text><rect stroke="#006FB0" stroke-width="1" x="100" y="1120" width="436.5" height="20" fill="#B9E3FF"/><line stroke="#000000" stroke-width="1.5" x1="275.5" y1="1110" x2="275.5" y2="1120"/><text style="font: 8px sans-serif;" x="270.5" y="1105">S117</text><text style="font: 15px sans-serif;" x="40" y="1195">PSH1</text><rect stroke="#006FB0" stroke-width="1" x="100" y="1180" width="609.0" height="20" fill="#B9E3FF"/><line stroke="#000000" stroke-width="1.5" x1="314.5" y1="1170" x2="314.5" y2="1180"/><text style="font: 8px sans-serif;" x="309.5" y="1165">S143</text><line stroke="#000000" stroke-width="1.5" x1="386.5" y1="1170" x2="386.5" y2="1180"/><text style="font: 8px sans-serif;" x="381.5" y="1165">S191</text><line stroke="#000000" stroke-width="1.5" x1="565.0" y1="1170" x2="565.0" y2="1180"/><text style="font: 8px sans-serif;" x="560.0" y="1165">T310</text><text style="font: 15px sans-serif;" x="40" y="1255">XRN1</text><rect stroke="#006FB0" stroke-width="1" x="100" y="1240" width="2292.0" height="20" fill="#B9E3FF"/><line stroke="#000000" stroke-width="1.5" x1="2365.0" y1="1230" x2="2365.0" y2="1240"/><text style="font: 8px sans-serif;" x="2360.0" y="1225">S1510</text></svg>