<svg xmlns="http://www.w3.org/2000/svg" width="2834.0" height="1280"><text style="font: 15px sans-serif;" x="40" y="175">NDC80</text><rect stroke="#006FB0" stroke-width="1" x="100" y="160" width="1036.5" height="20" fill="#B9E3FF"/><line stroke="#000000" stroke-width="1.5" x1="155.5" y1="150" x2="155.5" y2="160"/><text style="font: 8px sans-serif;" x="150.5" y="145">S37</text><line stroke="#000000" stroke-width="1.5" x1="472.0" y1="150" x2="472.0" y2="160"/><text style="font: 8px sans-serif;" x="467.0" y="145">T248</text><line stroke="#000000" stroke-width="1.5" x1="478.0" y1="150" x2="478.0" y2="160"/><text style="font: 8px sans-serif;" x="473.0" y="145">T252</text><text style="font: 15px sans-serif;" x="40" y="235">SPC105</text><rect stroke="#006FB0" stroke-width="1" x="100" y="220" width="1375.5" height="20" fill="#B9E3FF"/><line stroke="#000000" stroke-width="1.5" x1="358.0" y1="210" x2="358.0" y2="220"/><text style="font: 8px sans-serif;" x="353.0" y="205">T172</text><line stroke="#000000" stroke-width="1.5" x1="593.5" y1="210" x2="593.5" y2="220"/><text style="font: 8px sans-serif;" x="588.5" y="205">S329</text><line stroke="#000000" stroke-width="1.5" x1="634.0" y1="210" x2="634.0" y2="220"/><text style="font: 8px sans-serif;" x="629.0" y="205">T356</text><text style="font: 15px sans-serif;" x="40" y="295">BUB1</text><rect stroke="#006FB0" stroke-width="1" x="100" y="280" width="1531.5" height="20" fill="#B9E3FF"/><line stroke="#000000" stroke-width="1.5" x1="121.0" y1="270" x2="121.0" y2="280"/><text style="font: 8px sans-serif;" x="116.0" y="265">S14</text><line stroke="#000000" stroke-width="1.5" x1="142.0" y1="270" x2="142.0" y2="280"/><text style="font: 8px sans-serif;" x="137.0" y="265">S28</text><line stroke="#000000" stroke-width="1.5" x1="905.5" y1="270" x2="905.5" y2="280"/><text style="font: 8px sans-serif;" x="900.5" y="265">S537</text><line stroke="#000000" stroke-width="1.5" x1="908.5" y1="270" x2="908.5" y2="280"/><text style="font: 8px sans-serif;" x="903.5" y="265">S539</text><text style="font: 15px sans-serif;" x="40" y="355">DSN1</text><rect stroke="#006FB0" stroke-width="1" x="100" y="340" width="864.0" height="20" fill="#B9E3FF"/><line stroke="#000000" stroke-width="1.5" x1="109.0" y1="330" x2="109.0" y2="340"/><text style="font: 8px sans-serif;" x="104.0" y="325">T6</text><line stroke="#000000" stroke-width="1.5" x1="184.0" y1="330" x2="184.0" y2="340"/><text style="font: 8px sans-serif;" x="179.0" y="325">T56</text><line stroke="#000000" stroke-width="1.5" x1="475.0" y1="330" x2="475.0" y2="340"/><text style="font: 8px sans-serif;" x="470.0" y="325">S250</text><line stroke="#000000" stroke-width="1.5" x1="581.5" y1="330" x2="581.5" y2="340"/><text style="font: 8px sans-serif;" x="576.5" y="325">T321</text><line stroke="#000000" stroke-width="1.5" x1="679.0" y1="330" x2="679.0" y2="340"/><text style="font: 8px sans-serif;" x="674.0" y="325">T386</text><line stroke="#000000" stroke-width="1.5" x1="931.0" y1="330" x2="931.0" y2="340"/><text style="font: 8px sans-serif;" x="926.0" y="325">S554</text><text style="font: 15px sans-serif;" x="40" y="415">MUB1</text><rect stroke="#006FB0" stroke-width="1" x="100" y="400" width="930.0" height="20" fill="#B9E3FF"/><line stroke="#000000" stroke-width="1.5" x1="479.5" y1="390" x2="479.5" y2="400"/><text style="font: 8px sans-serif;" x="474.5" y="385">S253</text><text style="font: 15px sans-serif;" x="40" y="475">OKP1</text><rect stroke="#006FB0" stroke-width="1" x="100" y="460" width="609.0" height="20" fill="#B9E3FF"/><line stroke="#000000" stroke-width="1.5" x1="205.0" y1="450" x2="205.0" y2="460"/><text style="font: 8px sans-serif;" x="200.0" y="445">S70</text><line stroke="#000000" stroke-width="1.5" x1="271.0" y1="450" x2="271.0" y2="460"/><text style="font: 8px sans-serif;" x="266.0" y="445">S114</text><line stroke="#000000" stroke-width="1.5" x1="275.5" y1="450" x2="275.5" y2="460"/><text style="font: 8px sans-serif;" x="270.5" y="445">S117</text><line stroke="#000000" stroke-width="1.5" x1="701.5" y1="450" x2="701.5" y2="460"/><text style="font: 8px sans-serif;" x="696.5" y="445">T401</text><text style="font: 15px sans-serif;" x="40" y="535">MAD1</text><rect stroke="#006FB0" stroke-width="1" x="100" y="520" width="1123.5" height="20" fill="#B9E3FF"/><line stroke="#000000" stroke-width="1.5" x1="853.0" y1="510" x2="853.0" y2="520"/><text style="font: 8px sans-serif;" x="848.0" y="505">T502</text><text style="font: 15px sans-serif;" x="40" y="595">MPS1</text><rect stroke="#006FB0" stroke-width="1" x="100" y="580" width="1146.0" height="20" fill="#B9E3FF"/><line stroke="#000000" stroke-width="1.5" x1="175.0" y1="570" x2="175.0" y2="580"/><text style="font: 8px sans-serif;" x="170.0" y="565">S50</text><line stroke="#000000" stroke-width="1.5" x1="572.5" y1="570" x2="572.5" y2="580"/><text style="font: 8px sans-serif;" x="567.5" y="565">S315</text><line stroke="#000000" stroke-width="1.5" x1="644.5" y1="570" x2="644.5" y2="580"/><text style="font: 8px sans-serif;" x="639.5" y="565">S363</text><text style="font: 15px sans-serif;" x="40" y="655">AME1</text><rect stroke="#006FB0" stroke-width="1" x="100" y="640" width="486.0" height="20" fill="#B9E3FF"/><line stroke="#000000" stroke-width="1.5" x1="146.5" y1="630" x2="146.5" y2="640"/><text style="font: 8px sans-serif;" x="141.5" y="625">T31</text><line stroke="#000000" stroke-width="1.5" x1="161.5" y1="630" x2="161.5" y2="640"/><text style="font: 8px sans-serif;" x="156.5" y="625">S41</text><line stroke="#000000" stroke-width="1.5" x1="179.5" y1="630" x2="179.5" y2="640"/><text style="font: 8px sans-serif;" x="174.5" y="625">S53</text><line stroke="#000000" stroke-width="1.5" x1="188.5" y1="630" x2="188.5" y2="640"/><text style="font: 8px sans-serif;" x="183.5" y="625">S59</text><text style="font: 15px sans-serif;" x="40" y="715">NSL1</text><rect stroke="#006FB0" stroke-width="1" x="100" y="700" width="324.0" height="20" fill="#B9E3FF"/><line stroke="#000000" stroke-width="1.5" x1="349.0" y1="690" x2="349.0" y2="700"/><text style="font: 8px sans-serif;" x="344.0" y="685">T166</text><text style="font: 15px sans-serif;" x="40" y="775">MIF2</text><rect stroke="#006FB0" stroke-width="1" x="100" y="760" width="823.5" height="20" fill="#B9E3FF"/><line stroke="#000000" stroke-width="1.5" x1="181.0" y1="750" x2="181.0" y2="760"/><text style="font: 8px sans-serif;" x="176.0" y="745">S54</text><line stroke="#000000" stroke-width="1.5" x1="349.0" y1="750" x2="349.0" y2="760"/><text style="font: 8px sans-serif;" x="344.0" y="745">T166</text><text style="font: 15px sans-serif;" x="40" y="835">YPR137C-B</text><rect stroke="#006FB0" stroke-width="1" x="100" y="820" width="2632.5" height="20" fill="#B9E3FF"/><line stroke="#000000" stroke-width="1.5" x1="1540.0" y1="810" x2="1540.0" y2="820"/><text style="font: 8px sans-serif;" x="1535.0" y="805">S960</text><text style="font: 15px sans-serif;" x="40" y="895">YJR029W</text><rect stroke="#006FB0" stroke-width="1" x="100" y="880" width="2632.5" height="20" fill="#B9E3FF"/><line stroke="#000000" stroke-width="1.5" x1="1540.0" y1="870" x2="1540.0" y2="880"/><text style="font: 8px sans-serif;" x="1535.0" y="865">S960</text><text style="font: 15px sans-serif;" x="40" y="955">YPR158W-B</text><rect stroke="#006FB0" stroke-width="1" x="100" y="940" width="2634.0" height="20" fill="#B9E3FF"/><line stroke="#000000" stroke-width="1.5" x1="1540.0" y1="930" x2="1540.0" y2="940"/><text style="font: 8px sans-serif;" x="1535.0" y="925">V960</text><text style="font: 15px sans-serif;" x="40" y="1015">ASK1</text><rect stroke="#006FB0" stroke-width="1" x="100" y="1000" width="438.0" height="20" fill="#B9E3FF"/><line stroke="#000000" stroke-width="1.5" x1="301.0" y1="990" x2="301.0" y2="1000"/><text style="font: 8px sans-serif;" x="296.0" y="985">S134</text><text style="font: 15px sans-serif;" x="40" y="1075">PSH1</text><rect stroke="#006FB0" stroke-width="1" x="100" y="1060" width="609.0" height="20" fill="#B9E3FF"/><line stroke="#000000" stroke-width="1.5" x1="386.5" y1="1050" x2="386.5" y2="1060"/><text style="font: 8px sans-serif;" x="381.5" y="1045">S191</text><line stroke="#000000" stroke-width="1.5" x1="565.0" y1="1050" x2="565.0" y2="1060"/><text style="font: 8px sans-serif;" x="560.0" y="1045">T310</text><text style="font: 15px sans-serif;" x="40" y="1135">CNN1</text><rect stroke="#006FB0" stroke-width="1" x="100" y="1120" width="541.5" height="20" fill="#B9E3FF"/><line stroke="#000000" stroke-width="1.5" x1="131.5" y1="1110" x2="131.5" y2="1120"/><text style="font: 8px sans-serif;" x="126.5" y="1105">T21</text><text style="font: 15px sans-serif;" x="40" y="1195">PSD2</text><rect stroke="#006FB0" stroke-width="1" x="100" y="1180" width="1707.0" height="20" fill="#B9E3FF"/><line stroke="#000000" stroke-width="1.5" x1="1633.0" y1="1170" x2="1633.0" y2="1180"/><text style="font: 8px sans-serif;" x="1628.0" y="1165">T1022</text></svg>